<svg preserveAspectRatio="none" width="100%" height="100%" overflow="visible" style="display: block;" viewBox="0 0 68.1634 19.96" fill="none" xmlns="http://www.w3.org/2000/svg">
<g id="Group">
<g id="Group_2">
<path id="Vector" d="M9.53674e-05 5.06259H5.02596V19.96H9.53674e-05V5.12801C9.53674e-05 5.10598 9.53674e-05 5.08462 9.53674e-05 5.06259Z" fill="var(--fill-0, #1E1E1E)"/>
<path id="Vector_2" d="M23.2637 19.96H17.6177L10.0238 5.09799C10.0125 5.07596 9.98976 5.06261 9.96507 5.06261H5.02665V0.00069738C5.04867 2.98458e-05 5.0707 2.98464e-05 5.09273 2.98464e-05H9.96507C11.8869 2.98464e-05 13.6245 1.09812 14.4996 2.80968L23.2637 19.96Z" fill="var(--fill-0, #1E1E1E)"/>
</g>
<path id="Vector_3" d="M59.4134 2.80967C58.5383 1.09811 56.8007 1.33682e-05 54.8788 1.33682e-05H50.0072C49.9851 1.33682e-05 49.9624 1.33676e-05 49.9404 0.000680902L49.9404 5.0626H54.8788C54.9035 5.0626 54.9262 5.07595 54.9376 5.09798L57.6157 10.3341L49.9404 13.9949V5.0626H44.9145C44.9139 5.08463 44.9139 5.10665 44.9139 5.12868L44.9052 19.96H49.9317L59.9301 14.8593L62.5174 19.96H68.1634L59.4134 2.80967Z" fill="var(--fill-0, #1E1E1E)"/>
<g id="Group_3">
<path id="Vector_4" d="M30.9149 14.9735H35.8527L35.8467 19.96C35.8246 19.96 35.8019 19.96 35.7799 19.96H30.9089C30.6339 19.96 30.3642 19.9386 30.0985 19.8959C28.5078 19.6429 27.13 18.693 26.3797 17.2264L17.5709 0.000699361H23.2162L30.8555 14.9381C30.8668 14.9601 30.8895 14.9735 30.9149 14.9735Z" fill="var(--fill-0, #1E1E1E)"/>
<path id="Vector_5" d="M40.8801 0.000686646V14.9081C40.8801 14.9301 40.8801 14.9521 40.8794 14.9735H35.8529V0.000686646H40.8801Z" fill="var(--fill-0, #1E1E1E)"/>
</g>
</g>
</svg>
