<svg preserveAspectRatio="none" width="100%" height="100%" overflow="visible" style="display: block;" viewBox="0 0 143.143 41.916" fill="none" xmlns="http://www.w3.org/2000/svg">
<g id="Group">
<g id="Group_2">
<path id="Vector" d="M0.000200272 10.6314H10.5545V41.9159H0.000200272V10.7688C0.000200272 10.7226 0.000200272 10.6777 0.000200272 10.6314Z" fill="var(--fill-0, white)"/>
<path id="Vector_2" d="M48.8538 41.916H36.9972L21.05 10.7058C21.0262 10.6595 20.9785 10.6315 20.9266 10.6315H10.556V0.0014645C10.6022 6.26761e-05 10.6485 6.26774e-05 10.6947 6.26774e-05H20.9266C24.9625 6.26774e-05 28.6114 2.30606 30.4492 5.90033L48.8538 41.916Z" fill="var(--fill-0, white)"/>
</g>
<path id="Vector_3" d="M124.768 5.9003C122.93 2.30603 119.281 2.80732e-05 115.246 2.80732e-05H105.015C104.969 2.80732e-05 104.921 2.80719e-05 104.875 0.00142989L104.875 10.6315H115.246C115.297 10.6315 115.345 10.6595 115.369 10.7058L120.993 21.7016L104.875 29.3892V10.6315H94.3205C94.3191 10.6777 94.3191 10.724 94.3191 10.7702L94.3009 41.9159H104.857L125.853 31.2046L131.287 41.9159H143.143L124.768 5.9003Z" fill="var(--fill-0, white)"/>
<g id="Group_3">
<path id="Vector_4" d="M64.9213 31.4443H75.2906L75.278 41.916C75.2318 41.916 75.1841 41.916 75.1378 41.916H64.9087C64.3312 41.916 63.7648 41.8711 63.2069 41.7814C59.8664 41.2501 56.973 39.2553 55.3973 36.1755L36.8989 0.00146866H48.7541L64.7965 31.37C64.8204 31.4163 64.868 31.4443 64.9213 31.4443Z" fill="var(--fill-0, white)"/>
<path id="Vector_5" d="M85.8481 0.00144196V31.3069C85.8481 31.3532 85.8481 31.3995 85.8467 31.4443H75.291V0.00144196H85.8481Z" fill="var(--fill-0, white)"/>
</g>
</g>
</svg>
