<svg preserveAspectRatio="none" width="100%" height="100%" overflow="visible" style="display: block;" viewBox="0 0 124.869 24" fill="none" xmlns="http://www.w3.org/2000/svg">
<g id="Group 1000011102">
<path id="Vector" d="M56.0054 5.99586H39.988V23.9624H45.1144V10.9475H50.877V23.9624H56.0054V10.9475H61.766V23.9624H66.8944V5.99586H56.0054Z" fill="white"/>
<path id="Vector_2" d="M8.93786 10.925H13.8206V5.97143H8.93786V0.0967503L8.69227 0L0 7.38011V10.925H3.80952V23.9399H14.3079V18.6941H8.93593V10.925H8.93786Z" fill="white"/>
<path id="Vector_3" d="M30.2277 7.59309C28.6266 6.18828 26.9384 5.64454 24.9543 5.64454C19.9246 5.64454 16.4574 9.43134 16.4574 14.8223C16.4574 20.2132 19.9246 24 24.9543 24C26.9403 24 28.6266 23.4563 30.2277 22.0514V23.9516H35.1105V5.9851H30.2277V7.59309ZM25.9309 19.5785C23.0496 19.5785 21.4871 17.4906 21.4871 14.8203C21.4871 12.15 23.0496 10.0622 25.9309 10.0622C28.8122 10.0622 30.3263 12.15 30.3263 14.8203C30.3263 17.4906 28.7639 19.5785 25.9309 19.5785Z" fill="white"/>
<path id="Vector_4" d="M119.986 5.9851V7.59309C118.385 6.18828 116.697 5.64454 114.713 5.64454C109.683 5.64454 106.216 9.43134 106.216 14.8223C106.216 20.2132 109.683 24 114.713 24C116.699 24 118.385 23.4563 119.986 22.0514V23.9516H124.869V5.9851H119.986ZM115.689 19.5805C112.808 19.5805 111.245 17.4926 111.245 14.8223C111.245 12.152 112.808 10.0641 115.689 10.0641C118.57 10.0641 120.085 12.152 120.085 14.8223C120.085 17.4926 118.522 19.5805 115.689 19.5805Z" fill="white"/>
<path id="Vector_5" d="M84.3427 7.59309C82.7415 6.18828 81.0533 5.64454 79.0693 5.64454C74.0396 5.64454 70.5723 9.43134 70.5723 14.8223C70.5723 20.2132 74.0396 24 79.0693 24C81.0553 24 82.7415 23.4563 84.3427 22.0514V23.9516H89.2254V5.9851H84.3427V7.59309ZM80.0458 19.5785C77.1645 19.5785 75.6021 17.4906 75.6021 14.8203C75.6021 12.15 77.1645 10.0622 80.0458 10.0622C82.9272 10.0622 84.4413 12.15 84.4413 14.8203C84.4413 17.4906 82.8788 19.5785 80.0458 19.5785Z" fill="white"/>
<path id="Vector_6" d="M98.9971 7.76563V5.89448H93.8687V23.9597H98.9971V12.7599L104.955 10.6062V5.60423L104.76 5.45717L98.999 7.76563H98.9971Z" fill="white"/>
</g>
</svg>
