<svg preserveAspectRatio="none" width="100%" height="100%" overflow="visible" style="display: block;" viewBox="0 0 13.8258 10.4344" fill="none" xmlns="http://www.w3.org/2000/svg">
<g id="Group">
<path id="Vector" d="M1.69601 7.56482C1.69601 8.42924 2.39679 9.13002 3.26121 9.13002H7.95687C7.95687 9.8504 8.54084 10.4344 9.26122 10.4344H10.8264C11.5468 10.4344 12.1308 9.8504 12.1308 9.13002V7.56482H1.69601Z" fill="var(--fill-0, #F0F0F0)"/>
<path id="Vector_2" d="M12.2605 0.000254631V3.65242C12.2605 4.22781 11.7925 4.6959 11.2171 4.6959V6.2611C12.6555 6.2611 13.8258 5.09082 13.8258 3.65242V0.000254631H12.2605V0.000254631Z" fill="var(--fill-0, #F0F0F0)"/>
<path id="Vector_3" d="M1.04348 3.65217C1.04348 4.22756 0.575391 4.69565 0 4.69565V6.26085C1.43845 6.26085 2.60869 5.09057 2.60869 3.65217V0H1.04348V3.65217Z" fill="var(--fill-0, #F0F0F0)"/>
<path id="Vector_4" d="M11.4786 0.000254631H9.91339V3.65243H11.4786V0.000254631Z" fill="var(--fill-0, #F0F0F0)"/>
<path id="Vector_5" d="M7.5652 2.08722C7.5652 2.23108 7.44815 2.34808 7.30434 2.34808C7.16052 2.34808 7.04348 2.23103 7.04348 2.08722V0.000254631H5.47827V2.08722C5.47827 2.23108 5.36122 2.34808 5.21741 2.34808C5.0736 2.34808 4.95655 2.23103 4.95655 2.08722V0.000254631H3.3913V2.08722C3.3913 3.09414 4.21049 3.91333 5.21741 3.91333C5.60521 3.91333 5.96483 3.79146 6.2609 3.58446C6.55691 3.79141 6.91659 3.91333 7.30438 3.91333C7.38248 3.91333 7.45926 3.90785 7.53477 3.89824C7.42387 4.35522 7.0123 4.69591 6.52176 4.69591V6.26111C7.96021 6.26111 9.13045 5.09083 9.13045 3.65242V2.08722V0.000254631H7.56524V2.08722H7.5652Z" fill="var(--fill-0, #F0F0F0)"/>
<path id="Vector_6" d="M5.73913 4.69529H3.3913V6.26049H5.73913V4.69529Z" fill="var(--fill-0, #F0F0F0)"/>
</g>
</svg>
