<svg preserveAspectRatio="none" width="100%" height="100%" overflow="visible" style="display: block;" viewBox="0 0 190.464 24" fill="none" xmlns="http://www.w3.org/2000/svg">
<g id="AlibabaCloudLogo 1" clip-path="url(#clip0_21472_1285404)">
<path id="Vector" d="M25.6653 10.495H12.8333V13.375H25.6653V10.495Z" fill="white"/>
<path id="Vector_2" d="M32.0646 0H23.5846L25.6326 2.912L31.8406 4.8C32.9926 5.152 33.7286 6.24 33.6966 7.36V16.64C33.6966 17.792 32.9606 18.848 31.8406 19.2L25.6646 21.088L23.5846 24H32.0646C35.6166 24 38.4646 21.12 38.4646 17.6V6.4C38.4966 2.88 35.6166 0 32.0646 0Z" fill="white"/>
<path id="Vector_3" d="M6.40082 0H14.8808L12.8328 2.912L6.65682 4.8C5.50482 5.152 4.76882 6.24 4.80082 7.36V16.64C4.80082 17.792 5.53682 18.848 6.65682 19.2L12.8328 21.088L14.8808 24H6.40082C2.88082 24 0.00081665 21.12 0.00081665 17.6V6.4C0.00081665 2.88 2.88082 0 6.40082 0Z" fill="white"/>
<path id="Vector_4" d="M142.369 16.768C142.369 18.848 140.673 20.512 138.561 20.512C136.449 20.512 134.753 18.816 134.753 16.768V7.584C134.753 5.504 136.449 3.84 138.561 3.84C140.641 3.84 142.369 5.536 142.369 7.584V7.68H145.281V7.552C145.281 3.936 142.273 0.96 138.561 0.96C134.849 0.96 131.841 3.936 131.841 7.584V16.736C131.841 20.384 134.849 23.36 138.561 23.36C142.241 23.36 145.249 20.384 145.281 16.736V16.64H142.369V16.768Z" fill="white"/>
<path id="Vector_5" d="M157.473 6.88C154.401 6.88 151.841 9.28 151.713 12.32V17.952C151.873 20.992 154.401 23.392 157.473 23.392C160.545 23.392 163.073 20.992 163.233 17.952V12.32C163.105 9.28 160.577 6.88 157.473 6.88ZM160.321 17.6C160.289 19.2 159.041 20.448 157.473 20.448C155.905 20.448 154.657 19.2 154.625 17.6V12.64C154.625 11.072 155.905 9.792 157.473 9.792C159.041 9.792 160.321 11.072 160.321 12.64V17.6Z" fill="white"/>
<path id="Vector_6" d="M149.633 0.96H146.721V23.04H149.633V0.96Z" fill="white"/>
<path id="Vector_7" d="M69.7291 6.88H66.8171V23.008H69.7291V6.88Z" fill="white"/>
<path id="Vector_8" d="M63.9366 0.96H61.0246V23.04H63.9366V0.96Z" fill="white"/>
<path id="Vector_9" d="M53.6963 0.96H50.1443L44.2883 23.008V23.04H47.1683L48.7363 17.184L55.1363 17.216L56.6723 23.04V23.072H59.5523L53.6963 0.96ZM54.3683 14.304H49.5043L51.9363 5.152L54.3683 14.304Z" fill="white"/>
<path id="Vector_10" d="M173.953 17.92C173.953 19.488 172.673 20.768 171.105 20.768C169.537 20.768 168.257 19.488 168.257 17.92V6.88H165.345V18.4C165.345 21.152 167.585 23.392 170.337 23.392C170.849 23.392 171.329 23.328 171.809 23.168C172.097 23.072 172.353 22.976 172.609 22.848C173.057 22.624 173.473 22.336 173.825 21.984L173.953 21.856V23.04H176.865V6.88H173.953V17.92Z" fill="white"/>
<path id="Vector_11" d="M69.7291 0.96H66.8171V3.872H69.7291V0.96Z" fill="white"/>
<path id="Vector_12" d="M79.1363 6.88C77.8243 6.88 76.5763 7.392 75.6483 8.32L75.5203 8.448V0.96H72.6083V23.04H75.5203V21.856L75.6483 21.984C76.5763 22.912 77.8243 23.424 79.1363 23.424C81.8883 23.424 84.1283 21.184 84.1283 18.432V11.872C84.1283 9.088 81.8883 6.88 79.1363 6.88ZM81.2483 12.384V17.856C81.2483 19.424 79.9683 20.736 78.3683 20.736C76.8003 20.736 75.4883 19.456 75.4883 17.856V12.384C75.4883 10.816 76.7683 9.504 78.3683 9.504C79.9683 9.536 81.2483 10.816 81.2483 12.384Z" fill="white"/>
<path id="Vector_13" d="M106.145 6.848C104.833 6.848 103.585 7.36 102.657 8.288L102.529 8.416V0.96H99.6171V23.04H102.529V21.856L102.657 21.984C103.585 22.912 104.833 23.424 106.145 23.424C108.897 23.424 111.137 21.184 111.137 18.432V11.84C111.137 9.088 108.897 6.848 106.145 6.848ZM108.257 12.384V17.856C108.257 19.424 106.977 20.736 105.377 20.736C103.809 20.736 102.497 19.456 102.497 17.856V12.384C102.497 10.816 103.777 9.504 105.377 9.504C106.977 9.504 108.257 10.816 108.257 12.384Z" fill="white"/>
<path id="Vector_14" d="M187.585 0.96V8.416L187.457 8.288C186.529 7.36 185.281 6.848 183.969 6.848C181.217 6.848 178.977 9.088 178.977 11.84V18.368V18.4C178.977 21.152 181.217 23.36 183.969 23.36C185.281 23.36 186.529 22.848 187.457 21.92L187.585 21.792V22.976H190.497V0.96H187.585ZM187.553 12.384V17.856C187.553 19.424 186.273 20.736 184.673 20.736C183.105 20.736 181.793 19.456 181.793 17.856V12.384C181.793 10.816 183.073 9.504 184.673 9.504C186.273 9.504 187.553 10.816 187.553 12.384Z" fill="white"/>
<path id="Vector_15" d="M97.5366 12.352C97.5366 12.192 97.5046 12 97.4726 11.776V11.712C97.3126 10.848 96.9926 10.016 96.4806 9.28C95.4566 7.84 93.8886 6.976 92.1606 6.88C92.1286 6.88 91.9366 6.88 91.8406 6.88C90.4966 6.88 89.1846 7.36 88.1286 8.224C87.1046 9.088 86.4006 10.272 86.1446 11.616V11.648H88.9926V11.616C89.2486 10.272 90.4326 9.312 91.7766 9.312C92.5126 9.312 93.2166 9.6 93.7606 10.112C94.3046 10.624 94.5926 11.328 94.6246 12.064V13.408H90.4966C87.7446 13.408 85.5046 15.648 85.5046 18.4C85.5046 20.704 87.1046 22.656 89.2486 23.232C89.2806 23.232 89.3126 23.232 89.3126 23.264C89.4086 23.296 89.5046 23.296 89.6006 23.328C89.6966 23.36 89.8246 23.36 89.9526 23.392C89.9846 23.392 89.9846 23.392 90.0166 23.392C90.2406 23.424 90.4966 23.424 90.7846 23.424C91.4886 23.424 92.0966 23.328 92.5126 23.168C93.2486 22.944 93.9206 22.528 94.4966 21.984L94.6246 21.856V23.04H97.5366V21.12V12.352ZM91.0726 15.584H94.5926V17.632C94.5926 19.168 93.4726 20.512 91.9686 20.8C91.7446 20.864 91.5206 20.864 91.3286 20.864C90.8166 20.864 90.3366 20.736 89.8566 20.448C89.7286 20.384 89.6006 20.288 89.4726 20.224C89.3126 20.096 89.1526 19.936 89.0246 19.776L88.9926 19.744C88.6406 19.296 88.4486 18.752 88.4486 18.176C88.4806 16.736 89.6326 15.584 91.0726 15.584Z" fill="white"/>
<path id="Vector_16" d="M124.577 12.352C124.577 12.192 124.545 12 124.513 11.776V11.712C124.353 10.848 124.033 10.016 123.521 9.28C122.497 7.84 120.929 6.976 119.201 6.88C119.169 6.88 118.977 6.88 118.881 6.88C117.537 6.88 116.225 7.36 115.169 8.224C114.145 9.088 113.441 10.272 113.185 11.616V11.648H116.033V11.616C116.289 10.272 117.473 9.312 118.817 9.312C119.553 9.312 120.257 9.6 120.801 10.112C121.345 10.624 121.633 11.328 121.665 12.064V13.408H117.537C114.785 13.408 112.545 15.648 112.545 18.4C112.545 20.704 114.145 22.656 116.289 23.232C116.321 23.232 116.353 23.232 116.353 23.264C116.449 23.296 116.545 23.296 116.641 23.328C116.737 23.36 116.865 23.36 116.993 23.392C117.025 23.392 117.025 23.392 117.057 23.392C117.281 23.424 117.537 23.424 117.825 23.424C118.529 23.424 119.137 23.328 119.553 23.168C120.289 22.944 120.961 22.528 121.537 21.984L121.665 21.856V23.04H124.577V21.12V12.352ZM118.113 15.584H121.633V17.632C121.633 19.168 120.513 20.512 119.009 20.8C118.785 20.864 118.561 20.864 118.369 20.864C117.857 20.864 117.377 20.736 116.897 20.448C116.769 20.384 116.641 20.288 116.513 20.224C116.353 20.096 116.193 19.936 116.065 19.776L116.033 19.744C115.681 19.296 115.489 18.752 115.489 18.176C115.521 16.768 116.673 15.584 118.113 15.584Z" fill="white"/>
</g>
<defs>
<clipPath id="clip0_21472_1285404">
<rect width="190.464" height="24" fill="white"/>
</clipPath>
</defs>
</svg>
