<svg preserveAspectRatio="none" width="100%" height="100%" overflow="visible" style="display: block;" viewBox="0 0 94.2148 94.2148" fill="none" xmlns="http://www.w3.org/2000/svg">
<path id="Subtract" d="M47.1074 0C73.1241 0 94.2148 21.0907 94.2148 47.1074V86.812C94.2148 90.9005 90.9005 94.2148 86.812 94.2148C82.7235 94.2148 79.4092 90.9005 79.4092 86.812V69.0908C79.4092 68.8433 79.2085 68.6426 78.9609 68.6426C78.7134 68.6426 78.5127 68.4419 78.5127 68.1943V47.1074C78.5127 29.763 64.4519 15.7021 47.1074 15.7021C29.763 15.7022 15.7022 29.763 15.7021 47.1074V68.1938C15.7021 68.4417 15.5012 68.6426 15.2534 68.6426C15.0056 68.6426 14.8047 68.8435 14.8047 69.0913V86.8125C14.8047 90.9007 11.4905 94.2148 7.40234 94.2148C3.31414 94.2148 0 90.9007 0 86.8125V47.1074C8.18317e-06 21.0907 21.0907 8.1821e-06 47.1074 0Z" fill="var(--fill-0, #0C4EFF)"/>
</svg>
