<svg preserveAspectRatio="none" width="100%" height="100%" overflow="visible" style="display: block;" viewBox="0 0 21.5 21.5" fill="none" xmlns="http://www.w3.org/2000/svg">
<path id="Vector" d="M14.3277 2.13197L16.3277 3.18152C18.4794 4.31066 19.5552 4.87523 20.1526 5.88974C20.75 6.90425 20.75 8.16667 20.75 10.6915V10.8085C20.75 13.3333 20.75 14.5958 20.1526 15.6103C19.5552 16.6248 18.4794 17.1893 16.3277 18.3185L14.3277 19.368C12.5721 20.2893 11.6943 20.75 10.75 20.75C9.80573 20.75 8.92792 20.2893 7.17229 19.368L5.17229 18.3185C3.02063 17.1893 1.94479 16.6248 1.3474 15.6103C0.75 14.5958 0.75 13.3333 0.75 10.8085V10.6915C0.75 8.16667 0.75 6.90425 1.3474 5.88974C1.94479 4.87523 3.02063 4.31066 5.17229 3.18152L7.17229 2.13197C8.92792 1.21066 9.80573 0.75 10.75 0.75C11.6943 0.75 12.5721 1.21066 14.3277 2.13197Z" stroke="var(--stroke-0, #BDBDBD)" stroke-width="1.5" stroke-linecap="round"/>
</svg>
