<svg preserveAspectRatio="none" width="100%" height="100%" overflow="visible" style="display: block;" viewBox="0 0 25.7773 32.0001" fill="none" xmlns="http://www.w3.org/2000/svg">
<g id="Group">
<path id="Vector" d="M12.6123 0.242191L12.4471 0L0.0512763 8.84003L0.205398 9.09324L12.6123 0.242191Z" fill="var(--fill-0, white)"/>
<path id="Vector_2" d="M10.1573 0.38994L9.99219 0.136737L0.0512763 7.22638L0.216408 7.46857L10.1573 0.38994Z" fill="var(--fill-0, white)"/>
<path id="Vector_3" d="M7.13911 0.928339L6.97398 0.675139L0.0384573 5.62908L0.203589 5.87127L7.13911 0.928339Z" fill="var(--fill-0, white)"/>
<path id="Vector_4" d="M3.1007 2.18461L2.93557 1.93141L0.0512763 4.02307L0.216408 4.26526L3.1007 2.18461Z" fill="var(--fill-0, white)"/>
<path id="Vector_5" d="M18.8308 11.4048L16.7942 12.8359L6.47896 20.2008L6.68812 20.52L5.29001 21.5438L5.4001 21.709L2.40572 23.8997L2.57085 24.1419L5.87348 21.731L6.98536 20.9494L17.4877 13.4414L17.2786 13.1111L19.128 11.7901L19.0289 11.6249L25.7773 6.81411L25.6232 6.57192L18.8308 11.4048Z" fill="var(--fill-0, white)"/>
<path id="Vector_6" d="M19.3995 12.5992L17.2417 14.1294L7.23478 21.2741L7.44394 21.5933L5.93575 22.6942L6.04583 22.8483L3.10649 24.995L3.27162 25.2372L6.21096 23.0795L7.70816 21.9896L17.7481 14.8229L17.539 14.4927L19.6857 12.9955L19.5756 12.8304L25.7515 8.43786L25.5864 8.19567L19.3995 12.5992Z" fill="var(--fill-0, white)"/>
<path id="Vector_7" d="M19.9557 13.8144L18.1723 15.0805L7.94511 22.3682L8.15428 22.6985L6.77819 23.7003L6.88827 23.8544L3.92691 26.0232L4.09205 26.2654L7.0534 24.0966L8.4295 23.0838L18.6566 15.796L18.4475 15.4658L20.2309 14.1998L20.1318 14.0346L25.7353 10.0274L25.5701 9.78524L19.9557 13.8144Z" fill="var(--fill-0, white)"/>
<path id="Vector_8" d="M20.7942 14.8107L19.0658 16.0657L8.71758 23.3975L8.93776 23.7278L7.20939 25.0158L7.31947 25.181L4.87553 26.9754L5.04066 27.2176L7.83688 25.1699L9.71938 23.8049L19.6273 16.7372L19.4181 16.407L21.0914 15.207L20.9813 15.0419L25.7371 11.6512L25.572 11.409L20.7942 14.8107Z" fill="var(--fill-0, white)"/>
<path id="Vector_9" d="M21.8248 15.6773L19.8873 17.0534L10.9261 23.4385L11.1353 23.7577L9.0106 25.31L9.12068 25.4751L5.80705 27.897L5.97218 28.1392L9.57204 25.5081L11.3885 24.1761L20.4047 17.747L20.1955 17.4167L22.078 16.0736L21.9789 15.9085L25.6999 13.2774L25.5347 13.0242L21.8248 15.6773Z" fill="var(--fill-0, white)"/>
<path id="Vector_10" d="M24.13 15.7511L24.075 15.6741L21.8072 17.2924L13.1433 23.4793L13.3634 23.8096L11.0296 25.5379L11.1287 25.7031L7.03341 28.6974L7.19854 28.9396L11.602 25.7031L13.8588 24.0517L22.2805 18.0189L22.0714 17.6997L24.3392 16.0814L24.2071 15.8832L24.2841 16.0043L25.6933 14.9585L25.5281 14.7163L24.13 15.7511Z" fill="var(--fill-0, white)"/>
<path id="Vector_11" d="M24.1725 17.1964L22.8955 18.0991L17.7984 21.7431L18.0076 22.0733L15.8389 23.6696L15.949 23.8347L8.16576 29.5262L8.33089 29.7684L16.4113 23.8567L18.3048 22.4806L23.3579 18.8808L23.1487 18.5505L24.4257 17.6478L24.3266 17.4827L25.6587 16.5249L25.4936 16.2717L24.1725 17.1964Z" fill="var(--fill-0, white)"/>
<path id="Vector_12" d="M24.4227 18.6817V18.6377L23.2227 19.4964L19.1825 22.3806L19.4027 22.7109L17.5092 24.087L17.6193 24.2521L9.41776 30.2519L9.58289 30.4941L18.1697 24.1971L19.821 22.9861L23.6741 20.2119L23.4649 19.8927L24.6649 19.056L24.5328 18.8578L25.4685 18.1973L25.3694 18.0322L24.4227 18.6817Z" fill="var(--fill-0, white)"/>
<path id="Vector_13" d="M1.19995 10.6992L2.35587 9.86254L6.71535 6.75808L6.50618 6.42781L8.4217 5.06273L8.32262 4.9086L14.7738 0.284921L14.6196 0.0427303L8.12447 4.6554L6.20894 6.02049L1.58526 9.31211L1.79443 9.64237L0.693551 10.435L0.803638 10.6001L0 11.1726L0.165131 11.4148L1.19995 10.6992Z" fill="var(--fill-0, white)"/>
<path id="Vector_14" d="M1.90995 11.7996L3.06587 10.963L8.44915 7.12092L8.23999 6.79066L9.72617 5.72281L9.62709 5.56869L16.6287 0.515665L16.4635 0.273474L9.45095 5.3375L7.96477 6.40535L2.2292 10.4896L2.43837 10.8199L1.44758 11.5464L1.54666 11.7116L0.0384573 12.8125L0.203589 13.0546L1.90995 11.7996Z" fill="var(--fill-0, white)"/>
<path id="Vector_15" d="M2.15771 13.2264L3.66592 12.1256L9.53359 7.94223L9.32442 7.61197L10.8987 6.48907L10.7996 6.33495L18.3736 0.885612L18.2085 0.632408L10.6345 6.08175L8.98315 7.23767L2.84026 11.6302L3.04943 11.9604L1.71736 12.9292L1.82745 13.0943L0 14.4484L0.165131 14.6906L2.15771 13.2264Z" fill="var(--fill-0, white)"/>
<path id="Vector_16" d="M2.77044 14.3839L4.41075 13.184L10.6527 8.73644L10.4435 8.40618L12.1059 7.21723L11.9958 7.04109L20.0762 1.32754L19.9111 1.08535L11.6875 6.86495L10.1243 7.98785L3.43096 12.7546L3.65114 13.0849L2.12092 14.2078L2.23101 14.3729L0.0512763 16.0352L0.216408 16.2885L2.77044 14.3839Z" fill="var(--fill-0, white)"/>
<path id="Vector_17" d="M3.51331 15.458L4.58116 14.6874L11.7699 9.5573L11.5497 9.24906L13.4102 7.92801L13.3111 7.76288L21.4686 1.92823L21.3035 1.67503L13.146 7.50967L11.2855 8.84173L4.09677 13.9388L4.30594 14.2691L2.94085 15.2709L3.05094 15.436L0.166648 17.5387L0.33178 17.7919L3.52432 15.48L3.51331 15.458Z" fill="var(--fill-0, white)"/>
<path id="Vector_18" d="M4.22171 16.5432L5.43267 15.6625L12.8636 10.3563L12.6544 10.026L14.7131 8.56186L14.614 8.40774L22.9916 2.42999L22.8375 2.18779L14.4599 8.15454L12.2801 9.71778L4.7171 15.1011L4.92627 15.4313L3.62723 16.3781L3.72631 16.5432L0.401665 18.9762L0.566796 19.2184L4.22171 16.5432Z" fill="var(--fill-0, white)"/>
<path id="Vector_19" d="M4.43079 17.9939L6.15917 16.7279L14.9331 10.5079L14.713 10.1777L16.6505 8.79057L16.5514 8.63645L24.3346 3.08803L24.1695 2.84584L16.3863 8.39425L14.3827 9.81438L5.28947 16.2655L5.49864 16.5958L3.88035 17.7847L3.99044 17.9499L0.764872 20.3057L0.930004 20.5589L4.43079 17.9939Z" fill="var(--fill-0, white)"/>
<path id="Vector_20" d="M4.67456 19.4286L6.21579 18.3057L15.7164 11.5354L15.5072 11.2161L17.4557 9.80698L17.3567 9.65285L25.5912 3.77418L25.4261 3.52098L17.1915 9.39965L15.243 10.7868L5.51123 17.7223L5.7204 18.0525L4.06908 19.2635L4.17917 19.4286L1.21781 21.5864L1.38294 21.8285L4.67456 19.4286Z" fill="var(--fill-0, white)"/>
<path id="Vector_21" d="M4.94811 20.819L6.25815 19.8613L16.4192 12.6175L16.2101 12.2872L18.0595 10.9662L17.9605 10.8011L25.7547 5.25264L25.5895 4.99944L17.8063 10.5479L15.9459 11.8689L5.78477 19.1127L5.99394 19.4429L4.45271 20.5658L4.5628 20.731L1.77758 22.7676L1.94271 23.0208L4.97012 20.83L4.94811 20.819Z" fill="var(--fill-0, white)"/>
<path id="Vector_22" d="M10.5501 30.9709L10.7152 31.2131L24.7734 20.9749L24.6083 20.7327L10.5501 30.9709Z" fill="var(--fill-0, white)"/>
<path id="Vector_23" d="M11.738 31.7578L11.9031 32L23.7376 23.3361L23.5724 23.0829L11.738 31.7578Z" fill="var(--fill-0, white)"/>
<path id="Vector_24" d="M15.9341 30.325L16.0993 30.5672L21.2954 26.7692L21.1303 26.527L15.9341 30.325Z" fill="var(--fill-0, white)"/>
</g>
</svg>
