<svg preserveAspectRatio="none" width="100%" height="100%" overflow="visible" style="display: block;" viewBox="0 0 42.5528 42.5528" fill="none" xmlns="http://www.w3.org/2000/svg">
<g id="Layer_1" clip-path="url(#clip0_21479_1286084)">
<path id="Vector" d="M36.3584 15.0189H22.8036C19.2689 11.4842 17.2895 9.50482 13.7548 5.97016V0H21.3395C29.6357 0 36.3584 6.7227 36.3584 15.0189Z" fill="var(--fill-0, white)"/>
<path id="Vector_2" d="M6.19176 27.5235H19.7466C23.2813 31.0582 25.2607 33.0376 28.7953 36.5723V42.5424H21.2106C12.9145 42.5424 6.19176 35.8197 6.19176 27.5235Z" fill="var(--fill-0, white)"/>
<path id="Vector_3" d="M27.5235 36.3584V22.8036C31.0582 19.2689 33.0376 17.2895 36.5723 13.7548H42.5424V21.3395C42.5424 29.6357 35.8197 36.3584 27.5235 36.3584Z" fill="var(--fill-0, white)"/>
<path id="Vector_4" d="M15.0189 6.19176V19.7466C11.4842 23.2813 9.50482 25.2607 5.97016 28.7953H0V21.2106C0 12.9145 6.7227 6.19176 15.0189 6.19176Z" fill="var(--fill-0, white)"/>
</g>
<defs>
<clipPath id="clip0_21479_1286084">
<rect width="42.5528" height="42.5528" fill="white"/>
</clipPath>
</defs>
</svg>
