<svg preserveAspectRatio="none" width="100%" height="100%" overflow="visible" style="display: block;" viewBox="0 0 23.4416 23.4416" fill="none" xmlns="http://www.w3.org/2000/svg">
<g id="66a6043f8b939a6f0fde8e05_Vector-1.svg" clip-path="url(#clip0_21472_1285522)">
<path id="Vector" d="M-0.0015625 3.56227C-0.0015625 2.80801 0.262428 2.18578 0.790384 1.69554C1.31834 1.20528 2.00471 0.960156 2.84945 0.960156C3.67911 0.960156 4.35037 1.20149 4.86326 1.68422C5.39122 2.18201 5.6552 2.83064 5.6552 3.63015C5.6552 4.35421 5.39877 4.95759 4.88588 5.44032C4.35792 5.93811 3.66402 6.18701 2.80419 6.18701H2.78157C1.9519 6.18701 1.28064 5.93811 0.767758 5.44032C0.25487 4.94252 -0.0015625 4.31649 -0.0015625 3.56227ZM0.292589 23.3609V8.24607H5.3158V23.3609H0.292589ZM8.09893 23.3609H13.1221V14.9211C13.1221 14.393 13.1824 13.9858 13.3032 13.6991C13.5143 13.1863 13.8349 12.7526 14.2648 12.3981C14.6947 12.0436 15.234 11.8664 15.8826 11.8664C17.5721 11.8664 18.4168 13.0053 18.4168 15.2831V23.3609H23.4401V14.6948C23.4401 12.4623 22.9121 10.7689 21.8562 9.615C20.8002 8.46103 19.4049 7.88403 17.6701 7.88403C15.7243 7.88403 14.2082 8.72124 13.1221 10.3956V10.4409H13.0995L13.1221 10.3956V8.24607H8.09893C8.12908 8.72877 8.14418 10.2297 8.14418 12.7489C8.14418 15.268 8.12908 18.8054 8.09893 23.3609Z" fill="var(--fill-0, #0D0F13)"/>
</g>
<defs>
<clipPath id="clip0_21472_1285522">
<rect width="23.4416" height="23.4416" fill="white"/>
</clipPath>
</defs>
</svg>
