<svg preserveAspectRatio="none" width="100%" height="100%" overflow="visible" style="display: block;" viewBox="0 0 27.3 27.3" fill="none" xmlns="http://www.w3.org/2000/svg">
<g id="Layer_1" clip-path="url(#clip0_21472_1285583)">
<path id="Vector" d="M23.3239 9.63463H14.6277C12.36 7.36694 11.0901 6.09704 8.8224 3.82936V-0.000837054H13.6884C19.0109 -0.000837054 23.3239 4.31215 23.3239 9.63463Z" fill="var(--fill-0, #1E1E1E)"/>
<path id="Vector_2" d="M3.97098 17.6565H12.6672C14.9349 19.9242 16.2048 21.1941 18.4725 23.4618V27.292H13.6064C8.28397 27.292 3.97098 22.979 3.97098 17.6565Z" fill="var(--fill-0, #1E1E1E)"/>
<path id="Vector_3" d="M17.6565 23.3257V14.6295C19.9242 12.3618 21.1941 11.0919 23.4618 8.82422H27.292V13.6902C27.292 19.0127 22.979 23.3257 17.6565 23.3257Z" fill="var(--fill-0, #1E1E1E)"/>
<path id="Vector_4" d="M9.63463 3.97098V12.6672C7.36694 14.9349 6.09704 16.2048 3.82936 18.4725H-0.000837054V13.6064C-0.000837054 8.28397 4.31215 3.97098 9.63463 3.97098Z" fill="var(--fill-0, #1E1E1E)"/>
</g>
<defs>
<clipPath id="clip0_21472_1285583">
<rect width="27.3" height="27.3" fill="white"/>
</clipPath>
</defs>
</svg>
