<svg preserveAspectRatio="none" width="100%" height="100%" overflow="visible" style="display: block;" viewBox="0 0 8.33333 8.33333" fill="none" xmlns="http://www.w3.org/2000/svg">
<g id="Group">
<path id="Vector" d="M0.277778 4.16667C0.277778 5.19806 0.687499 6.18722 1.41681 6.91653C2.14612 7.64584 3.13527 8.05556 4.16667 8.05556C5.19806 8.05556 6.18722 7.64584 6.91653 6.91653C7.64584 6.18722 8.05556 5.19806 8.05556 4.16667C8.05556 3.13527 7.64584 2.14612 6.91653 1.41681C6.18722 0.687499 5.19806 0.277778 4.16667 0.277778C3.13527 0.277778 2.14612 0.687499 1.41681 1.41681C0.687499 2.14612 0.277778 3.13527 0.277778 4.16667Z" stroke="var(--stroke-0, #2F7BFF)" stroke-width="0.555556" stroke-linejoin="round"/>
<path id="Vector_2" d="M2.50003 4.16667C2.50003 3.13527 2.67562 2.14612 2.98818 1.41681C3.30074 0.687499 3.72467 0.277778 4.16669 0.277778C4.60872 0.277778 5.03264 0.687499 5.3452 1.41681C5.65777 2.14612 5.83336 3.13527 5.83336 4.16667C5.83336 5.19806 5.65777 6.18722 5.3452 6.91653C5.03264 7.64584 4.60872 8.05556 4.16669 8.05556C3.72467 8.05556 3.30074 7.64584 2.98818 6.91653C2.67562 6.18722 2.50003 5.19806 2.50003 4.16667Z" stroke="var(--stroke-0, #2F7BFF)" stroke-width="0.555556" stroke-linejoin="round"/>
<path id="Vector_3" d="M0.555528 5.46296H7.77775M0.555528 2.87037H7.77775" stroke="var(--stroke-0, #2F7BFF)" stroke-width="0.555556" stroke-linecap="round"/>
</g>
</svg>
