<svg width="191" height="24" viewBox="0 0 191 24" fill="none" xmlns="http://www.w3.org/2000/svg">
<g clip-path="url(#clip0_16129_132999)">
<path d="M25.6679 10.4922H12.8359V13.3722H25.6679V10.4922Z" fill="white" fill-opacity="0.7"/>
<path d="M32.0659 0H23.5859L25.6339 2.912L31.8419 4.8C32.9939 5.152 33.7299 6.24 33.6979 7.36V16.64C33.6979 17.792 32.9619 18.848 31.8419 19.2L25.6659 21.088L23.5859 24H32.0659C35.6179 24 38.4659 21.12 38.4659 17.6V6.4C38.4979 2.88 35.6179 0 32.0659 0Z" fill="white" fill-opacity="0.7"/>
<path d="M6.4 0H14.88L12.832 2.912L6.656 4.8C5.504 5.152 4.768 6.24 4.8 7.36V16.64C4.8 17.792 5.536 18.848 6.656 19.2L12.832 21.088L14.88 24H6.4C2.88 24 0 21.12 0 17.6V6.4C0 2.88 2.88 0 6.4 0Z" fill="white" fill-opacity="0.7"/>
<path d="M142.372 16.7689C142.372 18.8489 140.676 20.5129 138.564 20.5129C136.452 20.5129 134.756 18.8169 134.756 16.7689V7.58494C134.756 5.50494 136.452 3.84094 138.564 3.84094C140.644 3.84094 142.372 5.53694 142.372 7.58494V7.68094H145.284V7.55294C145.284 3.93694 142.276 0.960938 138.564 0.960938C134.852 0.960938 131.844 3.93694 131.844 7.58494V16.7369C131.844 20.3849 134.852 23.3609 138.564 23.3609C142.244 23.3609 145.252 20.3849 145.284 16.7369V16.6409H142.372V16.7689Z" fill="white" fill-opacity="0.7"/>
<path d="M157.471 6.88281C154.399 6.88281 151.839 9.28281 151.711 12.3228V17.9548C151.871 20.9948 154.399 23.3948 157.471 23.3948C160.543 23.3948 163.071 20.9948 163.231 17.9548V12.3228C163.103 9.28281 160.575 6.88281 157.471 6.88281ZM160.319 17.6028C160.287 19.2028 159.039 20.4508 157.471 20.4508C155.903 20.4508 154.655 19.2028 154.623 17.6028V12.6428C154.623 11.0748 155.903 9.79481 157.471 9.79481C159.039 9.79481 160.319 11.0748 160.319 12.6428V17.6028Z" fill="white" fill-opacity="0.7"/>
<path d="M149.631 0.960938H146.719V23.0409H149.631V0.960938Z" fill="white" fill-opacity="0.7"/>
<path d="M69.7323 6.88281H66.8203V23.0108H69.7323V6.88281Z" fill="white" fill-opacity="0.7"/>
<path d="M63.9354 0.960938H61.0234V23.0409H63.9354V0.960938Z" fill="white" fill-opacity="0.7"/>
<path d="M53.6971 0.960938H50.1451L44.2891 23.0089V23.0409H47.1691L48.7371 17.1849L55.1371 17.2169L56.6731 23.0409V23.0729H59.5531L53.6971 0.960938ZM54.3691 14.3049H49.5051L51.9371 5.15294L54.3691 14.3049Z" fill="white" fill-opacity="0.7"/>
<path d="M173.952 17.9228C173.952 19.4908 172.672 20.7708 171.104 20.7708C169.536 20.7708 168.256 19.4908 168.256 17.9228V6.88281H165.344V18.4028C165.344 21.1548 167.584 23.3948 170.336 23.3948C170.848 23.3948 171.328 23.3308 171.808 23.1708C172.096 23.0748 172.352 22.9788 172.608 22.8508C173.056 22.6268 173.472 22.3388 173.824 21.9868L173.952 21.8588V23.0428H176.864V6.88281H173.952V17.9228Z" fill="white" fill-opacity="0.7"/>
<path d="M69.7323 0.960938H66.8203V3.87294H69.7323V0.960938Z" fill="white" fill-opacity="0.7"/>
<path d="M79.1374 6.88094C77.8254 6.88094 76.5774 7.39294 75.6494 8.32094L75.5214 8.44894V0.960938H72.6094V23.0409H75.5214V21.8569L75.6494 21.9849C76.5774 22.9129 77.8254 23.4249 79.1374 23.4249C81.8894 23.4249 84.1294 21.1849 84.1294 18.4329V11.8729C84.1294 9.08894 81.8894 6.88094 79.1374 6.88094ZM81.2494 12.3849V17.8569C81.2494 19.4249 79.9694 20.7369 78.3694 20.7369C76.8014 20.7369 75.4894 19.4569 75.4894 17.8569V12.3849C75.4894 10.8169 76.7694 9.50494 78.3694 9.50494C79.9694 9.53694 81.2494 10.8169 81.2494 12.3849Z" fill="white" fill-opacity="0.7"/>
<path d="M106.145 6.84894C104.833 6.84894 103.585 7.36094 102.657 8.28894L102.529 8.41694V0.960938H99.6172V23.0409H102.529V21.8569L102.657 21.9849C103.585 22.9129 104.833 23.4249 106.145 23.4249C108.897 23.4249 111.137 21.1849 111.137 18.4329V11.8409C111.137 9.08894 108.897 6.84894 106.145 6.84894ZM108.257 12.3849V17.8569C108.257 19.4249 106.977 20.7369 105.377 20.7369C103.809 20.7369 102.497 19.4569 102.497 17.8569V12.3849C102.497 10.8169 103.777 9.50494 105.377 9.50494C106.977 9.50494 108.257 10.8169 108.257 12.3849Z" fill="white" fill-opacity="0.7"/>
<path d="M187.585 0.960938V8.41694L187.457 8.28894C186.529 7.36094 185.281 6.84894 183.969 6.84894C181.217 6.84894 178.977 9.08894 178.977 11.8409V18.3689V18.4009C178.977 21.1529 181.217 23.3609 183.969 23.3609C185.281 23.3609 186.529 22.8489 187.457 21.9209L187.585 21.7929V22.9769H190.497V0.960938H187.585ZM187.553 12.3849V17.8569C187.553 19.4249 186.273 20.7369 184.673 20.7369C183.105 20.7369 181.793 19.4569 181.793 17.8569V12.3849C181.793 10.8169 183.073 9.50494 184.673 9.50494C186.273 9.50494 187.553 10.8169 187.553 12.3849Z" fill="white" fill-opacity="0.7"/>
<path d="M97.5398 12.3548C97.5398 12.1948 97.5078 12.0028 97.4758 11.7788V11.7148C97.3158 10.8508 96.9958 10.0188 96.4838 9.28281C95.4598 7.84281 93.8918 6.97881 92.1638 6.88281C92.1318 6.88281 91.9398 6.88281 91.8438 6.88281C90.4998 6.88281 89.1878 7.36281 88.1318 8.22681C87.1078 9.09081 86.4038 10.2748 86.1478 11.6188V11.6508H88.9958V11.6188C89.2518 10.2748 90.4358 9.31481 91.7798 9.31481C92.5158 9.31481 93.2198 9.60281 93.7638 10.1148C94.3078 10.6268 94.5958 11.3308 94.6278 12.0668V13.4108H90.4998C87.7478 13.4108 85.5078 15.6508 85.5078 18.4028C85.5078 20.7068 87.1078 22.6588 89.2518 23.2348C89.2838 23.2348 89.3158 23.2348 89.3158 23.2668C89.4118 23.2988 89.5078 23.2988 89.6038 23.3308C89.6998 23.3628 89.8278 23.3628 89.9558 23.3948C89.9878 23.3948 89.9878 23.3948 90.0198 23.3948C90.2438 23.4268 90.4998 23.4268 90.7878 23.4268C91.4918 23.4268 92.0998 23.3308 92.5158 23.1708C93.2518 22.9468 93.9238 22.5308 94.4998 21.9868L94.6278 21.8588V23.0428H97.5398V21.1228V12.3548ZM91.0758 15.5868H94.5958V17.6348C94.5958 19.1708 93.4758 20.5148 91.9718 20.8028C91.7478 20.8668 91.5238 20.8668 91.3318 20.8668C90.8198 20.8668 90.3398 20.7388 89.8598 20.4508C89.7318 20.3868 89.6038 20.2908 89.4758 20.2268C89.3158 20.0988 89.1558 19.9388 89.0278 19.7788L88.9958 19.7468C88.6438 19.2988 88.4518 18.7548 88.4518 18.1788C88.4838 16.7388 89.6358 15.5868 91.0758 15.5868Z" fill="white" fill-opacity="0.7"/>
<path d="M124.579 12.3548C124.579 12.1948 124.547 12.0028 124.515 11.7788V11.7148C124.355 10.8508 124.035 10.0188 123.523 9.28281C122.499 7.84281 120.931 6.97881 119.203 6.88281C119.171 6.88281 118.979 6.88281 118.883 6.88281C117.539 6.88281 116.227 7.36281 115.171 8.22681C114.147 9.09081 113.443 10.2748 113.187 11.6188V11.6508H116.035V11.6188C116.291 10.2748 117.475 9.31481 118.819 9.31481C119.555 9.31481 120.259 9.60281 120.803 10.1148C121.347 10.6268 121.635 11.3308 121.667 12.0668V13.4108H117.539C114.787 13.4108 112.547 15.6508 112.547 18.4028C112.547 20.7068 114.147 22.6588 116.291 23.2348C116.323 23.2348 116.355 23.2348 116.355 23.2668C116.451 23.2988 116.547 23.2988 116.643 23.3308C116.739 23.3628 116.867 23.3628 116.995 23.3948C117.027 23.3948 117.027 23.3948 117.059 23.3948C117.283 23.4268 117.539 23.4268 117.827 23.4268C118.531 23.4268 119.139 23.3308 119.555 23.1708C120.291 22.9468 120.963 22.5308 121.539 21.9868L121.667 21.8588V23.0428H124.579V21.1228V12.3548ZM118.115 15.5868H121.635V17.6348C121.635 19.1708 120.515 20.5148 119.011 20.8028C118.787 20.8668 118.563 20.8668 118.371 20.8668C117.859 20.8668 117.379 20.7388 116.899 20.4508C116.771 20.3868 116.643 20.2908 116.515 20.2268C116.355 20.0988 116.195 19.9388 116.067 19.7788L116.035 19.7468C115.683 19.2988 115.491 18.7548 115.491 18.1788C115.523 16.7708 116.675 15.5868 118.115 15.5868Z" fill="white" fill-opacity="0.7"/>
</g>
<defs>
<clipPath id="clip0_16129_132999">
<rect width="190.464" height="24" fill="white"/>
</clipPath>
</defs>
</svg>
