<svg preserveAspectRatio="none" width="100%" height="100%" overflow="visible" style="display: block;" viewBox="0 0 18.1667 8.16667" fill="none" xmlns="http://www.w3.org/2000/svg">
<path id="Vector" d="M3.23236 5.48757C1.57745 4.8256 0.75 4.49462 0.75 4.08333C0.75 3.67204 1.57745 3.34106 3.23236 2.6791L5.57275 1.74294C7.22765 1.08098 8.05511 0.75 9.08333 0.75C10.1116 0.75 10.939 1.08098 12.5939 1.74294L14.9343 2.6791C16.5892 3.34106 17.4167 3.67204 17.4167 4.08333C17.4167 4.49462 16.5892 4.8256 14.9343 5.48757L12.5939 6.42372C10.939 7.08569 10.1116 7.41667 9.08333 7.41667C8.05511 7.41667 7.22765 7.08569 5.57275 6.42372L3.23236 5.48757Z" stroke="var(--stroke-0, #464646)" stroke-width="1.5"/>
</svg>
