<svg preserveAspectRatio="none" width="100%" height="100%" overflow="visible" style="display: block;" viewBox="0 0 8.93831 11.2947" fill="none" xmlns="http://www.w3.org/2000/svg">
<g id="Group">
<path id="Vector" d="M5.20042 2.69356e-08C2.84398 2.69356e-08 1.13759 1.38136 1.13759 3.25027C1.13759 4.8754 2.68147 5.68797 4.22535 6.33802C5.52545 6.98807 6.7443 7.55687 6.7443 8.77572C6.7443 10.0758 5.52545 10.9696 3.73781 10.9696C2.68147 10.9696 2.11267 10.8071 1.70639 10.4821V6.98807C1.62513 6.90682 1.46262 6.90682 1.21885 6.90682C0.568797 6.90682 0 7.55687 0 8.61321C0 10.2383 1.30011 11.2947 3.73781 11.2947C6.41927 11.2947 8.36944 9.7508 8.36944 7.80064C8.36944 6.25676 6.82556 5.52545 5.36294 4.79414C3.98157 4.14409 2.68147 3.49404 2.68147 2.19393C2.68147 0.975081 3.81906 0.162514 5.20042 0.162514C6.1755 0.162514 6.7443 0.325028 7.23184 0.731311V3.90032C7.3131 3.98158 7.47561 3.98158 7.71938 3.98158C8.36944 3.98158 8.93823 3.41278 8.93823 2.51896C8.85698 0.97508 7.47561 2.69356e-08 5.20042 2.69356e-08Z" fill="var(--fill-0, white)"/>
</g>
</svg>
