<svg preserveAspectRatio="none" width="100%" height="100%" overflow="visible" style="display: block;" viewBox="0 0 138.656 23.5179" fill="none" xmlns="http://www.w3.org/2000/svg">
<g id="Layer_1-2">
<path id="Vector" d="M11.0335 6.50613V6.59858C11.0335 10.2969 8.25976 11.7454 4.93126 11.7454H2.09588V18.8339H0.000154495V1.42092H4.96208C8.29058 1.42092 11.0335 2.90025 11.0335 6.50613ZM8.93779 6.6294V6.53695C8.93779 4.07139 7.45846 3.14681 5.11618 3.14681H2.1267V10.112H5.08536C7.58174 10.0812 8.93779 8.87922 8.93779 6.6294Z" fill="var(--fill-0, white)"/>
<path id="Vector_2" d="M11.6193 12.6381V12.4532C11.6193 8.60075 14.0848 5.91946 17.5983 5.91946C20.5569 5.91946 23.3307 7.70698 23.3307 12.2683V12.9155H13.7458C13.8383 15.8125 15.2252 17.4151 17.8448 17.4151C19.8173 17.4151 20.9576 16.6754 21.235 15.1961H23.269C22.8376 17.7541 20.711 19.1102 17.814 19.1102C14.2081 19.0794 11.6193 16.5522 11.6193 12.6381ZM17.6291 7.58371C15.5642 7.58371 14.1773 9.0014 13.8383 11.2512H21.2966C21.0809 8.63157 19.7248 7.58371 17.6291 7.58371Z" fill="var(--fill-0, white)"/>
<path id="Vector_3" d="M25.1164 12.6381V12.4532C25.1164 8.60075 27.5819 5.91946 31.0953 5.91946C34.054 5.91946 36.8278 7.70698 36.8278 12.2683V12.9155H27.2121C27.3045 15.8125 28.6914 17.4151 31.3111 17.4151C33.2835 17.4151 34.4238 16.6754 34.7012 15.1961H36.7353C36.3038 17.7541 34.1773 19.1102 31.2803 19.1102C27.6744 19.0794 25.1164 16.5522 25.1164 12.6381ZM31.0953 7.58371C29.0304 7.58371 27.6436 9.0014 27.2737 11.2512H34.732C34.5779 8.63157 33.1911 7.58371 31.0953 7.58371Z" fill="var(--fill-0, white)"/>
<path id="Vector_4" d="M41.4239 8.38513C42.2252 6.93661 43.3347 5.95039 45.6153 5.85793V7.76874C43.0573 7.89202 41.4239 8.69332 41.4239 11.8369V18.8329H39.3898V6.10449H41.4239V8.38513Z" fill="var(--fill-0, white)"/>
<path id="Vector_5" d="M54.489 18.8647H52.3625V1.42092H54.489V18.8647Z" fill="var(--fill-0, #40B3E1)"/>
<path id="Vector_6" d="M59.4825 8.13851C60.068 6.93655 61.4857 5.88869 63.5815 5.88869C66.2319 5.88869 68.0811 7.33721 68.0811 11.0355V18.8637H66.047V10.8814C66.047 8.63162 65.0916 7.6454 63.0575 7.6454C61.1775 7.6454 59.4825 8.84736 59.4825 11.128V18.8637H57.4484V6.10443H59.4825V8.13851Z" fill="var(--fill-0, #40B3E1)"/>
<path id="Vector_7" d="M69.715 14.9496H71.6874C71.8415 16.4598 72.6428 17.4152 74.7077 17.4152C76.6185 17.4152 77.4815 16.768 77.4815 15.3811C77.4815 13.9942 76.4953 13.5936 74.492 13.2237C71.1635 12.6073 70.054 11.6827 70.054 9.46375C70.054 7.09065 72.3655 5.88869 74.3687 5.88869C76.6494 5.88869 78.6526 6.81328 78.9916 9.58703H77.05C76.7726 8.20015 75.9713 7.58376 74.3687 7.58376C72.8894 7.58376 71.9648 8.32343 71.9648 9.40211C71.9648 10.5424 72.612 11.0047 74.9543 11.4362C77.6048 11.9293 79.4539 12.5149 79.4539 15.227C79.4539 17.5384 77.8821 19.1102 74.7694 19.1102C71.6874 19.0794 69.8383 17.5384 69.715 14.9496Z" fill="var(--fill-0, #40B3E1)"/>
<path id="Vector_8" d="M81.3312 2.09582C81.3312 1.35616 81.9168 0.739769 82.6873 0.739769C83.4577 0.739769 84.0433 1.32534 84.0433 2.06501C84.0433 2.80467 83.4577 3.42106 82.6873 3.42106C81.9476 3.42106 81.3312 2.83549 81.3312 2.09582ZM83.7351 18.8616H81.701V6.10235H83.7351V18.8616Z" fill="var(--fill-0, #40B3E1)"/>
<path id="Vector_9" d="M86.2639 19.6034H88.3288C88.637 21.0827 89.8389 21.8224 92.0271 21.8224C94.5235 21.8224 96.1261 20.6204 96.1261 17.8775V16.0283C95.1707 17.5077 93.5681 18.4014 91.8114 18.4323C88.452 18.4323 85.9865 15.9051 85.9865 12.3917V12.2067C85.9865 8.75496 88.4212 5.85793 91.9346 5.85793C94.0612 5.85793 95.3864 6.87497 96.0953 8.13857V6.10449H98.0985V18.0008C98.0677 21.6991 95.5713 23.5175 91.9963 23.5175C88.2671 23.5483 86.6029 21.7608 86.2639 19.6034ZM96.1877 12.2684V12.0835C96.1877 9.21725 94.6159 7.553 92.1504 7.553C89.6232 7.553 88.113 9.43299 88.113 12.1143V12.2992C88.113 15.0729 89.9006 16.7372 92.0579 16.7372C94.4002 16.768 96.1877 15.1038 96.1877 12.2684Z" fill="var(--fill-0, #40B3E1)"/>
<path id="Vector_10" d="M103.369 8.13635C103.955 6.9344 105.372 5.88654 107.468 5.88654C110.088 5.88654 111.968 7.33505 111.968 11.0334V18.8615H109.934V10.8793C109.934 8.62947 108.978 7.64324 106.944 7.64324C105.064 7.64324 103.369 8.8452 103.369 11.1258V18.8615H101.335V2.28882e-05H103.369V8.13635Z" fill="var(--fill-0, #40B3E1)"/>
<path id="Vector_11" d="M115.233 15.6884V7.82948H113.414V6.10359H115.233V3.20657H117.267V6.10359H120.256V7.82948H117.267V15.5035C117.267 16.7363 117.821 17.3527 118.838 17.3527C119.362 17.3527 119.917 17.2602 120.41 17.0753V18.7704C119.855 18.9553 119.27 19.0478 118.684 19.0478C116.342 19.0478 115.233 17.6609 115.233 15.6884Z" fill="var(--fill-0, #40B3E1)"/>
<path id="Vector_12" d="M121.398 14.9496H123.37C123.524 16.4598 124.325 17.4152 126.36 17.4152C128.301 17.4152 129.133 16.768 129.133 15.3811C129.133 13.9942 128.147 13.5936 126.144 13.2237C122.815 12.6073 121.706 11.6827 121.706 9.46375C121.706 7.09065 124.017 5.88869 126.021 5.88869C128.301 5.88869 130.304 6.81328 130.643 9.58703H128.702C128.394 8.20015 127.623 7.58376 126.021 7.58376C124.541 7.58376 123.617 8.32343 123.617 9.40211C123.617 10.5424 124.264 11.0047 126.606 11.4362C129.257 11.9293 131.106 12.5149 131.106 15.227C131.106 17.5384 129.534 19.1102 126.421 19.1102C123.339 19.0794 121.521 17.5384 121.398 14.9496Z" fill="var(--fill-0, #40B3E1)"/>
<path id="Vector_13" d="M132.8 16.1206H135.111V16.5829H134.248V19.2026H133.663V16.5829H132.8V16.1206Z" fill="var(--fill-0, white)"/>
<path id="Vector_14" d="M137.085 18.2471L137.886 16.1514H138.656V19.2333H138.071V16.8911L137.146 19.2333H136.961L136.037 16.8911V19.2333H135.513V16.1514H136.283L137.085 18.2471Z" fill="var(--fill-0, white)"/>
</g>
</svg>
