<svg preserveAspectRatio="none" width="100%" height="100%" overflow="visible" style="display: block;" viewBox="0 0 8.33333 8.33333" fill="none" xmlns="http://www.w3.org/2000/svg">
<g id="Group">
<path id="Vector" d="M0.277778 4.16667C0.277778 5.19806 0.687499 6.18722 1.41681 6.91653C2.14612 7.64584 3.13527 8.05556 4.16667 8.05556C5.19806 8.05556 6.18722 7.64584 6.91653 6.91653C7.64584 6.18722 8.05556 5.19806 8.05556 4.16667C8.05556 3.13527 7.64584 2.14612 6.91653 1.41681C6.18722 0.687499 5.19806 0.277778 4.16667 0.277778C3.13527 0.277778 2.14612 0.687499 1.41681 1.41681C0.687499 2.14612 0.277778 3.13527 0.277778 4.16667Z" stroke="var(--stroke-0, #2F7BFF)" stroke-width="0.555556" stroke-linejoin="round"/>
<path id="Vector_2" d="M2.5 4.16667C2.5 3.13527 2.6756 2.14612 2.98816 1.41681C3.30072 0.687499 3.72464 0.277778 4.16667 0.277778C4.60869 0.277778 5.03262 0.687499 5.34518 1.41681C5.65774 2.14612 5.83333 3.13527 5.83333 4.16667C5.83333 5.19806 5.65774 6.18722 5.34518 6.91653C5.03262 7.64584 4.60869 8.05556 4.16667 8.05556C3.72464 8.05556 3.30072 7.64584 2.98816 6.91653C2.6756 6.18722 2.5 5.19806 2.5 4.16667Z" stroke="var(--stroke-0, #2F7BFF)" stroke-width="0.555556" stroke-linejoin="round"/>
<path id="Vector_3" d="M0.555556 5.46296H7.77778M0.555556 2.87037H7.77778" stroke="var(--stroke-0, #2F7BFF)" stroke-width="0.555556" stroke-linecap="round"/>
</g>
</svg>
