<svg preserveAspectRatio="none" width="100%" height="100%" overflow="visible" style="display: block;" viewBox="0 0 51.1961 48.0018" fill="none" xmlns="http://www.w3.org/2000/svg">
<g id="Group 1000011104">
<g id="Group">
<path id="Vector" d="M40.9995 14.8972C40.9995 15.1289 41.1876 15.3161 41.4192 15.3161C41.6509 15.3161 41.8399 15.1289 41.8399 14.8972C41.8399 14.6655 41.6518 14.4784 41.4192 14.4784C41.1866 14.4784 40.9995 14.6665 40.9995 14.8972Z" fill="var(--fill-0, white)"/>
<path id="Vector_2" d="M28.9754 2.85618C29.2071 2.85618 29.3952 2.6681 29.3952 2.43733C29.3952 2.20655 29.2071 2.01847 28.9754 2.01847C28.7437 2.01847 28.5547 2.20655 28.5547 2.43733C28.5547 2.6681 28.7428 2.85618 28.9754 2.85618Z" fill="var(--fill-0, white)"/>
<path id="Vector_3" d="M3.48696 17.8322C3.48696 18.1793 3.76953 18.4609 4.11751 18.4609C4.46549 18.4609 4.74806 18.1793 4.74806 17.8322C4.74806 17.4851 4.46549 17.2026 4.11751 17.2026C3.76953 17.2026 3.48696 17.4842 3.48696 17.8322Z" fill="var(--fill-0, white)"/>
<path id="Vector_4" d="M25.8958 1.25746C26.2438 1.25746 26.5263 0.975803 26.5263 0.62873C26.5263 0.281656 26.2438 0 25.8958 0C25.5478 0 25.2652 0.281656 25.2652 0.62873C25.2652 0.975803 25.5469 1.25746 25.8958 1.25746Z" fill="var(--fill-0, white)"/>
<path id="Vector_5" d="M12.6498 13.6502C12.6498 13.9972 12.9314 14.2789 13.2803 14.2789C13.6292 14.2789 13.91 13.9972 13.91 13.6502C13.91 13.3031 13.6274 13.0214 13.2803 13.0214C12.9332 13.0214 12.6498 13.3031 12.6498 13.6502Z" fill="var(--fill-0, white)"/>
<path id="Vector_6" d="M37.6037 13.339C37.6037 13.6861 37.8854 13.9678 38.2343 13.9678C38.5832 13.9678 38.8648 13.6861 38.8648 13.339C38.8648 12.992 38.5823 12.7103 38.2343 12.7103C37.8863 12.7103 37.6037 12.992 37.6037 13.339Z" fill="var(--fill-0, white)"/>
<path id="Vector_7" d="M47.6134 19.6286C47.9613 19.6286 48.2439 19.347 48.2439 18.9999C48.2439 18.6528 47.9613 18.3712 47.6134 18.3712C47.2654 18.3712 46.9828 18.6528 46.9828 18.9999C46.9828 19.347 47.2654 19.6286 47.6134 19.6286Z" fill="var(--fill-0, white)"/>
<path id="Vector_8" d="M10.0102 18.1599C9.83852 18.3934 9.70314 18.6206 9.58412 18.8414L10.0675 29.1336C10.0738 29.2445 10.1774 29.3244 10.2855 29.3017C10.3228 29.2936 10.3591 29.2854 10.3955 29.2781C10.4745 29.2608 10.5336 29.1927 10.5372 29.1109L11.0824 17.4985C10.6326 17.6275 10.2519 17.8301 10.0093 18.1609" fill="var(--fill-0, white)"/>
<path id="Vector_9" d="M14.0323 17.1196C13.6226 17.1878 13.1492 17.215 12.665 17.2477L13.161 28.4967C13.1665 28.6049 13.2646 28.6839 13.37 28.6666C13.43 28.6566 13.4917 28.6467 13.5517 28.6367C13.6353 28.623 13.6998 28.5531 13.7034 28.4677L14.205 17.0887C14.1486 17.0996 14.0932 17.1096 14.0333 17.1196" fill="var(--fill-0, white)"/>
<path id="Vector_10" d="M16.2642 15.3817C16.0516 15.6461 15.8772 15.8669 15.7154 16.055L16.2133 28.0281C16.2179 28.1326 16.3096 28.2107 16.4132 28.1998C16.4904 28.1916 16.5668 28.1816 16.644 28.1735C16.7321 28.1644 16.8003 28.0917 16.8039 28.0026L17.3618 14.5694C17.0438 14.7457 16.6676 14.8793 16.2642 15.3817Z" fill="var(--fill-0, white)"/>
<path id="Vector_11" d="M7.70639 21.2742C7.34024 21.4986 6.95591 21.6785 6.57158 21.8347L7.01133 29.8738C7.01769 29.9873 7.12854 30.0673 7.23938 30.0373C7.2521 30.0337 7.26392 30.03 7.27754 30.0273C7.35205 30.0082 7.40656 29.941 7.4111 29.8638L7.88901 21.156C7.82995 21.1951 7.76999 21.2351 7.70639 21.2742Z" fill="var(--fill-0, white)"/>
<path id="Vector_12" d="M3.49834 23.0293L3.90902 30.7294C3.91538 30.8466 4.03167 30.9266 4.14343 30.8902C4.1616 30.8839 4.18068 30.8784 4.19794 30.8721C4.26881 30.8494 4.31878 30.7848 4.32242 30.7112L4.76398 22.4233C4.30061 22.5968 3.86813 22.784 3.49834 23.0284" fill="var(--fill-0, white)"/>
<path id="Vector_13" d="M0.478219 25.6837L0.790767 31.7357C0.797127 31.8574 0.920693 31.9383 1.03517 31.8947C1.05334 31.8883 1.07151 31.8811 1.08969 31.8747C1.15692 31.8493 1.20235 31.7875 1.20507 31.7157L1.58213 24.419C1.20962 24.7633 0.833469 25.1658 0.479127 25.6837" fill="var(--fill-0, white)"/>
<path id="Vector_14" d="M50.094 24.51L50.4729 31.7341C50.4765 31.8077 50.5238 31.8713 50.5937 31.8949C50.6137 31.9013 50.6337 31.9094 50.6528 31.9149C50.7654 31.954 50.8845 31.874 50.8908 31.755L51.1961 25.9538C50.839 25.3514 50.4683 24.8962 50.094 24.51Z" fill="var(--fill-0, white)"/>
<path id="Vector_15" d="M46.8993 22.4916L47.3591 30.8886C47.3636 30.964 47.4163 31.0303 47.4899 31.0521C47.5054 31.0567 47.5208 31.0612 47.5363 31.0657C47.648 31.0985 47.7607 31.0194 47.767 30.9031L48.1895 23.1903C47.7961 22.9095 47.3627 22.6969 46.9003 22.4916" fill="var(--fill-0, white)"/>
<path id="Vector_16" d="M44.1974 21.3757C44.032 21.274 43.8867 21.1713 43.754 21.065L44.2746 30.1543C44.2783 30.2334 44.3337 30.2988 44.41 30.3188C44.4173 30.3206 44.4245 30.3224 44.4318 30.3242C44.5427 30.3515 44.649 30.2733 44.6562 30.1607L45.1296 21.88C44.8261 21.7328 44.5154 21.5711 44.1983 21.3766" fill="var(--fill-0, white)"/>
<path id="Vector_17" d="M41.7981 18.2579C41.5319 17.8954 41.0994 17.6855 40.5897 17.5592L41.1376 29.4433C41.1421 29.526 41.2003 29.5941 41.2811 29.6114C41.3147 29.6187 41.3484 29.6259 41.3802 29.6332C41.4892 29.6568 41.5937 29.5769 41.5982 29.466L42.0943 18.7195C42.0071 18.565 41.9099 18.4114 41.7981 18.2579Z" fill="var(--fill-0, white)"/>
<path id="Vector_18" d="M37.7605 17.2231C37.6633 17.2076 37.5724 17.1904 37.4861 17.1722L38.0022 28.7992C38.0058 28.8828 38.0694 28.9536 38.1521 28.9673C38.193 28.9745 38.2348 28.9818 38.2748 28.9882C38.382 29.0072 38.4801 28.9273 38.4855 28.8192L38.9953 17.3412C38.5573 17.313 38.1321 17.2849 37.7605 17.2222" fill="var(--fill-0, white)"/>
<path id="Vector_19" d="M35.5224 15.4852C35.1226 14.9864 34.711 14.5785 34.3294 14.1369L34.9363 28.2833C34.94 28.3706 35.0072 28.4423 35.0926 28.4532C35.1362 28.4596 35.1798 28.465 35.2234 28.4714C35.3279 28.4859 35.4215 28.406 35.427 28.3006L35.9539 16.0195C35.824 15.8632 35.685 15.6869 35.5224 15.4852Z" fill="var(--fill-0, white)"/>
<path id="Vector_20" d="M32.956 11.9284C32.3572 9.96589 32.5789 10.7236 32.0438 8.82473C31.7785 7.88708 31.4523 7.18203 31.0589 6.59419L31.8502 27.9438C31.853 28.0346 31.9229 28.1073 32.0129 28.1155C32.0856 28.1218 32.1582 28.13 32.23 28.1373C32.3336 28.1473 32.4235 28.0682 32.4272 27.9646L33.015 12.1092C32.9959 12.0492 32.9732 11.9911 32.9551 11.9293" fill="var(--fill-0, white)"/>
<path id="Vector_21" d="M27.8604 5.82175L28.6518 27.6974C28.6554 27.79 28.7299 27.8655 28.8235 27.8709C28.8926 27.8745 28.9616 27.8782 29.0316 27.8818C29.1324 27.8882 29.2178 27.8109 29.2224 27.7101L30.0155 5.75906C29.4386 5.68365 28.6354 5.76814 27.8613 5.82175" fill="var(--fill-0, white)"/>
<path id="Vector_22" d="M20.5778 9.26525C20.3833 9.46514 20.2207 9.63504 20.1035 9.75043C20.1035 9.75043 19.2113 10.7608 18.7052 11.7811L19.3067 27.7619C19.3103 27.8628 19.3975 27.9418 19.4993 27.9336C19.572 27.9282 19.6428 27.9236 19.7155 27.9191C19.8073 27.9127 19.8791 27.8382 19.8836 27.7465L20.5787 9.26616L20.5778 9.26525Z" fill="var(--fill-0, white)"/>
<path id="Vector_23" d="M21.7073 8.01078L22.3978 27.6014C22.4014 27.7004 22.4841 27.7776 22.5831 27.7749C22.6703 27.7722 22.7576 27.7703 22.8448 27.7676C22.9402 27.7658 23.0165 27.6904 23.0211 27.5959L23.7679 6.38172C23.2073 6.64248 22.4278 7.31845 21.7064 8.01078" fill="var(--fill-0, white)"/>
<path id="Vector_24" d="M26.8799 5.8604C26.74 5.85404 26.6074 5.84404 26.4847 5.82496C25.8805 5.73502 25.3908 5.87948 24.8011 6.05483C24.7993 6.05483 24.7975 6.05665 24.7948 6.05665L25.5089 27.5861C25.5125 27.6833 25.5925 27.7605 25.6888 27.7605H25.9832C26.0804 27.7605 26.1594 27.6833 26.1631 27.5861L26.8854 5.85949H26.879" fill="var(--fill-0, white)"/>
</g>
<path id="Fill-49" fill-rule="evenodd" clip-rule="evenodd" d="M13.3278 47.9762C13.1234 47.989 12.9326 48.0017 12.7409 48.0017C10.4558 48.0017 8.59234 46.737 7.17497 44.9389C6.58804 45.1542 5.94931 45.2678 5.28515 45.2678C2.31049 45.2678 0 43.0136 0 40.0244C0 37.0353 2.37409 34.7938 5.28515 34.7938C8.1962 34.7938 10.6085 36.9726 10.6085 40.0244C10.6085 41.9497 9.62538 43.5706 8.14441 44.4828C9.39551 45.9265 10.9655 47.0132 12.8808 47.0132C13.2642 47.0132 13.723 46.9877 14.2473 46.9496C14.26 47.482 13.8639 47.9372 13.3278 47.9753M9.37007 40.0235C9.37007 37.6431 7.64652 35.8696 5.28515 35.8696C2.92378 35.8696 1.21294 37.6676 1.21294 40.0108C1.21294 42.354 2.92378 44.1648 5.29787 44.1775C7.64652 44.1902 9.37007 42.2014 9.37007 40.0235ZM12.3702 44.1521V38.1364H12.4601C12.9962 38.1364 13.4305 38.5544 13.4305 39.0986V45.1015H13.3287C12.8054 45.1015 12.3711 44.6582 12.3711 44.1512M15.3857 41.5045C15.3857 39.5293 16.8285 37.8948 18.8328 37.8948C19.8413 37.8948 20.9007 38.3381 21.4495 39.0605V34.9701H21.5258C22.0746 34.9701 22.5089 35.4135 22.5089 35.9577V45.127H22.4835C21.9347 45.127 21.5004 44.709 21.5004 44.0249C20.9262 44.8608 19.8659 45.2787 18.8328 45.2787C16.7904 45.2787 15.3857 43.5561 15.3857 41.5045ZM21.4622 41.5045C21.4622 39.9472 20.4283 38.896 18.9855 38.896C17.5427 38.896 16.496 40.099 16.496 41.5045C16.496 43.05 17.5427 44.2784 18.9855 44.2784C20.4283 44.2784 21.4622 43.1381 21.4622 41.5045ZM24.3124 41.5045C24.3124 39.5293 25.7552 37.8948 27.7595 37.8948C28.768 37.8948 29.8274 38.3381 30.3762 39.0605V34.9701H30.4525C31.0013 34.9701 31.4356 35.4135 31.4356 35.9577V45.127H31.4101C30.8614 45.127 30.4271 44.709 30.4271 44.0249C29.8529 44.8608 28.7926 45.2787 27.7595 45.2787C25.717 45.2787 24.3124 43.5561 24.3124 41.5045ZM30.3889 41.5045C30.3889 39.9472 29.355 38.896 27.9121 38.896C26.4693 38.896 25.4227 40.099 25.4227 41.5045C25.4227 43.05 26.4693 44.2784 27.9121 44.2784C29.355 44.2784 30.3889 43.1381 30.3889 41.5045ZM33.9596 44.1512V38.1355H34.0495C34.5856 38.1355 35.0199 38.5535 35.0199 39.0977V45.1006H34.9181C34.3948 45.1006 33.9605 44.6572 33.9605 44.1503M36.5981 47.0232V46.9605C37.3258 47.0613 37.8492 47.0995 38.2962 46.796C38.6533 46.5807 39.1257 45.8102 39.5982 44.7218L36.7643 38.1355H37.1605C37.8755 38.1355 38.0282 38.4017 38.169 38.7434L40.186 43.5052L42.4329 38.1228H43.5822L40.0334 46.2009C39.5482 47.3157 38.6542 47.999 37.6593 47.999H37.5702C37.0342 47.999 36.5999 47.5556 36.5999 47.0241M44.0411 41.5045C44.0411 39.5293 45.4839 37.8948 47.4882 37.8948C48.4967 37.8948 49.5561 38.3381 50.1049 39.0605V38.1355H51.1643V45.127H51.1388C50.59 45.127 50.1557 44.709 50.1557 44.0249C49.5815 44.8608 48.5212 45.2787 47.4873 45.2787C45.4448 45.2787 44.0402 43.5306 44.0402 41.5045M50.1167 41.5045C50.1167 39.9472 49.0827 38.896 47.6399 38.896C46.1971 38.896 45.1504 40.099 45.1504 41.5045C45.1504 43.0245 46.1971 44.2784 47.6399 44.2784C49.0827 44.2784 50.1167 43.1127 50.1167 41.5045ZM12.9026 34.9628C12.5328 34.9628 12.2321 35.2608 12.2321 35.6279C12.2321 35.9949 12.5319 36.293 12.9026 36.293C13.2733 36.293 13.5731 35.9949 13.5731 35.6279C13.5731 35.2608 13.2733 34.9628 12.9026 34.9628ZM34.4911 34.9628C34.1213 34.9628 33.8206 35.2608 33.8206 35.6279C33.8206 35.9949 34.1204 36.293 34.4911 36.293C34.8618 36.293 35.1616 35.9949 35.1616 35.6279C35.1616 35.2608 34.8618 34.9628 34.4911 34.9628Z" fill="var(--fill-0, white)"/>
</g>
</svg>
