<svg width="131" height="32" viewBox="0 0 131 32" fill="none" xmlns="http://www.w3.org/2000/svg">
<path d="M52.2179 12.1864H49.2927C48.8864 12.0239 48.5614 11.6988 48.5614 11.0488C48.5614 10.3175 49.0489 9.3424 49.8615 8.44858H53.5993C53.7618 8.20481 53.8431 7.87978 53.8431 7.63601C53.8431 7.06722 53.3555 6.74219 52.7867 6.74219C50.5115 6.74219 48.1551 9.42366 47.4238 12.2676L45.7174 12.5927L45.6361 12.7552H47.3425C47.3425 12.8364 45.5549 22.7498 45.5549 22.7498C45.1486 24.8624 44.4173 26.4876 43.1172 27.4626V27.5439C45.2299 26.9751 46.9362 24.7812 47.4238 22.0184L49.1302 12.7552H51.9742L52.2179 12.1864Z" fill="white" fill-opacity="0.7"/>
<path d="M59.7132 12.6266C59.0632 12.2203 58.1693 11.9766 57.3568 11.9766C54.0253 11.9766 51.425 15.6331 51.425 20.021C51.425 22.0524 52.3189 23.3525 53.7815 23.3525C56.0567 23.3525 57.6818 20.9148 59.4694 15.3893L59.0632 20.346C58.9007 22.9462 57.8443 24.7339 56.2192 25.8715H51.1C51.0188 26.034 50.9375 26.1965 50.9375 26.359C50.9375 27.009 51.5063 27.4153 52.4001 27.4153C56.3004 27.4153 59.4694 24.4901 60.5258 18.7209L61.7446 11.9766H61.6634C61.2571 12.3016 60.4445 12.5454 59.7132 12.6266ZM59.632 13.9267C57.7631 19.4522 56.2192 22.1336 54.594 22.1336C53.7815 22.1336 53.2939 21.1586 53.2939 19.3709C53.2939 15.6331 55.1628 12.3016 57.6005 12.3016C58.5756 12.3016 59.3882 12.7891 59.7132 13.683L59.632 13.9267Z" fill="white" fill-opacity="0.7"/>
<path d="M67.7082 12C65.3518 12 63.6454 13.3814 63.6454 15.2503C63.6454 16.8754 65.1893 17.688 66.7332 18.338C68.0333 18.9881 69.2521 19.5569 69.2521 20.7757C69.2521 22.0758 68.0333 22.9696 66.2456 22.9696C65.1893 22.9696 64.6205 22.8071 64.2142 22.4821V18.9881C64.1329 18.9068 63.9704 18.9068 63.7267 18.9068C63.0766 18.9068 62.5078 19.5569 62.5078 20.6132C62.5078 22.2383 63.8079 23.2947 66.2456 23.2947C68.9271 23.2947 70.8772 21.7508 70.8772 19.8006C70.8772 18.2568 69.3334 17.5255 67.8708 16.7941C66.4894 16.1441 65.1893 15.494 65.1893 14.1939C65.1893 12.9751 66.3269 12.1625 67.7082 12.1625C68.6833 12.1625 69.2521 12.325 69.7397 12.7313V15.9003C69.8209 15.9816 69.9834 15.9816 70.2272 15.9816C70.8772 15.9816 71.446 15.4128 71.446 14.519C71.3648 12.9751 69.9834 12 67.7082 12Z" fill="white" fill-opacity="0.7"/>
<path d="M85.5085 13.9736H85.2648C84.7772 13.0798 83.6396 12.0234 81.527 12.0234C78.683 12.0234 76.5703 13.8923 76.5703 17.5489C76.5703 21.2054 78.683 23.0743 81.527 23.0743C83.6396 23.0743 84.7772 22.0993 85.2648 21.1242H85.5085V22.5055C85.5085 25.187 84.4522 26.6496 81.7707 26.6496C79.0893 26.6496 78.0329 25.2683 77.8704 23.8869H76.8953V24.2119C77.0579 25.8371 78.4392 27.6247 81.7707 27.6247C85.1835 27.6247 86.5649 25.7558 86.5649 22.6681V12.3485H85.5085V13.9736ZM81.527 22.1805C79.1705 22.1805 77.6267 20.4741 77.6267 17.5489C77.6267 14.6237 79.2518 12.9173 81.527 12.9173C83.8834 12.9173 85.5085 14.6237 85.5085 17.5489C85.5085 20.5554 83.8834 22.1805 81.527 22.1805Z" fill="white" fill-opacity="0.7"/>
<path d="M89.7422 23.0513H90.7985V7.53125H89.7422V23.0513Z" fill="white" fill-opacity="0.7"/>
<path d="M98.3145 12.0391C95.2267 12.0391 93.1953 14.0705 93.1953 17.6458C93.1953 21.2211 95.1455 23.2525 98.3145 23.2525C101.483 23.2525 103.434 21.2211 103.434 17.6458C103.434 14.0705 101.483 12.0391 98.3145 12.0391ZM98.3145 22.4399C95.8768 22.4399 94.2517 20.8148 94.2517 17.727C94.2517 14.6393 95.8768 13.0141 98.3145 13.0141C100.752 13.0141 102.377 14.6393 102.377 17.727C102.377 20.7335 100.752 22.4399 98.3145 22.4399Z" fill="white" fill-opacity="0.7"/>
<path d="M110.643 12.0629C108.449 12.0629 107.311 13.1192 106.824 14.0943H106.58V7.59375H105.523V23.1138H106.58V21.4074H106.824C107.311 22.3825 108.449 23.4388 110.643 23.4388C113.487 23.4388 115.599 21.4886 115.599 17.8321C115.599 14.013 113.568 12.0629 110.643 12.0629ZM110.561 22.3825C108.205 22.3825 106.58 20.6761 106.58 17.6696C106.58 14.6631 108.205 12.9567 110.561 12.9567C112.918 12.9567 114.543 14.6631 114.543 17.6696C114.624 20.6761 112.918 22.3825 110.561 22.3825Z" fill="white" fill-opacity="0.7"/>
<path d="M126.962 22.1149C126.393 22.1149 126.068 21.7899 126.068 21.2211V15.6956C126.068 13.1767 124.524 12.0391 122.005 12.0391C119.486 12.0391 117.861 13.1767 117.698 14.9643V15.2893H118.674C118.755 13.6642 120.055 12.9329 122.005 12.9329C123.955 12.9329 125.012 13.7455 125.012 15.4518C125.012 16.4269 124.443 16.6707 123.468 16.7519L120.949 16.9957C118.836 17.1582 117.211 18.0521 117.211 20.0835C117.211 21.9524 118.755 23.2525 121.03 23.2525C123.224 23.2525 124.28 22.3587 124.849 21.2211H125.093C125.093 22.4399 125.743 23.0087 127.043 23.0087H127.693V22.1149H126.962ZM125.093 18.0521C125.093 21.1398 123.224 22.3587 121.111 22.3587C119.486 22.3587 118.267 21.4648 118.267 20.0835C118.267 18.7021 119.242 18.1333 121.111 17.8895L123.061 17.727C124.199 17.6458 124.524 17.4833 124.849 17.2395H125.093V18.0521Z" fill="white" fill-opacity="0.7"/>
<path d="M129.531 23.0513H130.588V7.53125H129.531V23.0513Z" fill="white" fill-opacity="0.7"/>
<path d="M31.6225 18.2833L39.5249 13.6806L39.4911 4.5936L31.6225 0.0078125L23.7031 4.55976L31.6056 9.07786L31.6225 18.2833Z" fill="white" fill-opacity="0.7"/>
<path d="M31.6292 18.2755L23.6422 13.6389L23.6252 4.55195L15.7905 0L7.92188 4.50118L8.05725 4.61963L15.8243 9.08697L15.8412 9.22234L15.8582 18.3601L23.7268 22.8613L31.6292 18.2755Z" fill="white" fill-opacity="0.7"/>
<path d="M31.5887 27.4294L23.7031 31.9983V22.7252L31.5887 18.2578V27.4294Z" fill="white" fill-opacity="0.7"/>
<path d="M15.6695 27.4488L15.7203 18.2772L7.81784 13.7422L0 18.2434L7.93629 22.8292L8.00398 31.8654L15.6695 27.4488Z" fill="white" fill-opacity="0.7"/>
</svg>
