<svg width="52" height="24" viewBox="0 0 52 24" fill="none" xmlns="http://www.w3.org/2000/svg">
<path d="M51.1338 6.81352C51.1338 4.24489 49.051 2.1621 46.4823 2.1621V7.38504V11.4221C49.1394 11.4221 51.1338 9.24725 51.1338 6.81352ZM0 11.4221H3.12738V23.547H7.90004V7.38504H0V11.4221ZM3.12374 4.68424H7.89639V0H3.12374V4.68424ZM19.766 6.94478C14.6051 6.94478 11.2453 10.4732 11.2453 15.4592C11.2453 20.4752 14.606 24 19.766 24C24.9598 24 28.3069 20.4788 28.3069 15.4592C28.3069 10.4723 24.9589 6.94478 19.766 6.94478ZM19.766 19.8052C17.3059 19.8052 15.893 18.1098 15.893 15.4592C15.893 12.8541 17.3059 11.1596 19.766 11.1596C22.2134 11.1596 23.6591 12.855 23.6591 15.4592C23.6582 18.1098 22.2162 19.8052 19.766 19.8052ZM37.123 7.38504V2.34257H32.3503V7.38139H29.6568V11.4185H32.3503V18.7406C32.3503 21.6902 34.1013 23.5433 37.8066 23.5433H41.8573V19.5063H38.3854C37.5806 19.5063 37.1239 19.0724 37.1239 18.1627V11.4221H41.8573V7.38504H37.123ZM41.8573 11.4221V15.4592H51.131V11.4221H46.4796H41.8573Z" fill="white" fill-opacity="0.7"/>
<path d="M41.8359 6.81132C41.8359 7.00547 41.846 7.19597 41.8651 7.37919H46.4874V2.15625C43.9187 2.15898 41.8359 4.24178 41.8359 6.81132Z" fill="white" fill-opacity="0.2"/>
</svg>
