<svg width="126" height="33" viewBox="0 0 126 33" fill="none" xmlns="http://www.w3.org/2000/svg">
<path d="M15.9726 15.4185C16.0162 15.6366 16.182 15.8111 16.3914 15.8547L16.4001 15.8722L16.6444 17.0063H16.3041L16.6444 18.5941H16.3041L16.6444 20.1819H17.3249L17.6652 18.5941H17.3249L17.6652 17.0063H17.3249L17.5692 15.8547C17.7874 15.8024 17.9531 15.6279 17.988 15.4185C18.6511 15.6192 19.4626 16.1339 19.8901 17.4164C19.8901 17.4164 20.7539 15.2179 19.0961 13.9703C18.7907 13.7435 18.4941 13.6039 18.2149 13.5167C18.6424 13.3946 19.2008 13.3946 19.9075 13.6824C19.9075 13.6824 19.1136 12.0947 17.3947 12.5396C17.2377 12.5832 17.0981 12.6356 16.9759 12.7141C16.8538 12.6443 16.7142 12.5832 16.5571 12.5396C14.8383 12.0947 14.0356 13.6824 14.0356 13.6824C14.7511 13.3946 15.3095 13.3946 15.7283 13.5167C15.4491 13.6039 15.1524 13.7435 14.847 13.9703C13.1893 15.2092 14.0531 17.4164 14.0531 17.4164C14.498 16.1339 15.3095 15.6192 15.9726 15.4185Z" fill="white" fill-opacity="0.7"/>
<path d="M11.5845 9.79347C11.7764 7.05411 13.2684 4.78584 15.2839 3.93961C15.1181 3.54703 15.0221 3.08465 15.0221 2.58738C15.0221 2.43034 15.0396 2.27331 15.057 2.125C12.6751 3.17189 10.9388 6.08573 10.8516 9.54919C10.965 9.58409 11.0784 9.61898 11.1918 9.65388C11.314 9.6975 11.4449 9.74985 11.5845 9.79347Z" fill="white" fill-opacity="0.7"/>
<path d="M23.1745 9.54919C23.0872 6.08573 21.351 3.18061 18.969 2.125C18.9865 2.27331 19.0039 2.43034 19.0039 2.58738C19.0039 3.08465 18.908 3.54703 18.7422 3.93961C20.7577 4.77712 22.2409 7.05411 22.4329 9.78474C22.5637 9.7324 22.7033 9.68878 22.8429 9.64516C22.9476 9.61899 23.0611 9.58409 23.1745 9.54919Z" fill="white" fill-opacity="0.7"/>
<path d="M17.0039 4.75683C17.8154 4.75683 18.461 3.78846 18.461 2.59326C18.461 1.39806 17.8066 0.429688 17.0039 0.429688C16.2012 0.429688 15.5469 1.39806 15.5469 2.59326C15.5469 3.78846 16.2012 4.75683 17.0039 4.75683Z" fill="white" fill-opacity="0.7"/>
<path d="M30.8703 15.3315C30.6958 17.4864 29.0206 19.5889 26.5078 20.6358C26.5951 20.7492 26.6823 20.8626 26.7696 20.9847C26.8394 21.0807 26.9004 21.1766 26.9702 21.2726C30.2072 20.1036 32.4146 17.5736 32.6677 15C32.5281 15.0611 32.3885 15.1221 32.2314 15.1745C31.769 15.3141 31.2978 15.3664 30.8703 15.3315Z" fill="white" fill-opacity="0.7"/>
<path d="M23.1562 10.3345C25.7999 9.69766 28.3912 10.413 29.8047 12.0532C30.1275 11.774 30.5376 11.5384 31.0087 11.3814C31.1571 11.3291 31.3141 11.2942 31.4624 11.268C29.7436 9.33997 26.463 8.5897 23.165 9.54935C23.165 9.64532 23.1737 9.74128 23.1737 9.83724C23.165 10.003 23.165 10.1688 23.1562 10.3345Z" fill="white" fill-opacity="0.7"/>
<path d="M22.4393 10.5414C22.4655 10.5327 22.4829 10.524 22.5091 10.5152C22.7272 10.4455 22.9367 10.3844 23.1548 10.332C23.1635 10.1663 23.1722 10.0005 23.1722 9.83477C23.1722 9.7388 23.1722 9.64284 23.1635 9.54688C23.0501 9.58177 22.9367 9.61667 22.832 9.65156C22.6924 9.69518 22.5615 9.7388 22.4219 9.79115C22.4393 9.9918 22.448 10.2012 22.448 10.4106C22.4393 10.4542 22.4393 10.4978 22.4393 10.5414Z" fill="white" fill-opacity="0.7"/>
<path d="M33.6833 12.6063C33.4303 11.8386 32.3135 11.5158 31.1793 11.8909C30.045 12.2573 29.3209 13.1821 29.5739 13.9498C29.8182 14.7175 30.9437 15.0403 32.078 14.6739C33.2122 14.2988 33.9276 13.374 33.6833 12.6063Z" fill="white" fill-opacity="0.7"/>
<path d="M26.2188 21.5177C27.6409 23.8383 27.7631 26.5253 26.6288 28.3748C26.9953 28.5929 27.3443 28.907 27.6409 29.3083C27.7282 29.4392 27.8154 29.57 27.8852 29.7009C29.1852 27.4675 28.8886 24.1175 26.9604 21.2734C26.8469 21.3083 26.7423 21.352 26.6288 21.3868C26.498 21.4305 26.3583 21.4741 26.2188 21.5177Z" fill="white" fill-opacity="0.7"/>
<path d="M16.9766 28.4953C19.088 31.2347 22.1941 32.5607 24.7331 32.0111C24.6284 31.8977 24.5237 31.7843 24.4277 31.6534C24.1398 31.2521 23.9478 30.8247 23.8431 30.4059C21.7317 30.9032 19.2014 29.9522 17.4303 27.8672C17.3605 27.9719 17.2819 28.0853 17.2034 28.19C17.1423 28.2859 17.0551 28.3906 16.9766 28.4953Z" fill="white" fill-opacity="0.7"/>
<path d="M24.7772 28.7287C24.1228 29.1998 24.1665 30.3689 24.8645 31.3372C25.5625 32.3056 26.6705 32.7069 27.3162 32.2271C27.9705 31.7473 27.9269 30.5782 27.2289 29.6186C26.5222 28.6589 25.4229 28.2576 24.7772 28.7287Z" fill="white" fill-opacity="0.7"/>
<path d="M6.98734 21.2656C5.08529 24.101 4.80609 27.4248 6.09739 29.6407C6.16719 29.5099 6.25444 29.379 6.35041 29.2482C6.63834 28.8469 6.98734 28.5328 7.35379 28.3147C6.23699 26.4826 6.35041 23.8218 7.73769 21.5099C7.60681 21.475 7.48466 21.4314 7.35379 21.3878C7.23164 21.3441 7.10949 21.3092 6.98734 21.2656Z" fill="white" fill-opacity="0.7"/>
<path d="M16.5161 27.8359C14.7536 29.8861 12.2496 30.8196 10.1468 30.3223C10.0509 30.7411 9.85892 31.1685 9.56227 31.5698C9.47502 31.7007 9.37032 31.8141 9.26562 31.9275C11.7871 32.4684 14.8583 31.1685 16.9698 28.4728C16.9087 28.3856 16.8476 28.307 16.7866 28.2198C16.6906 28.0977 16.6033 27.9755 16.5161 27.8359Z" fill="white" fill-opacity="0.7"/>
<path d="M9.23335 28.6599C8.57897 28.1888 7.47963 28.5814 6.78163 29.5498C6.0749 30.5182 6.04 31.6872 6.69438 32.1583C7.34003 32.6294 8.4481 32.2281 9.1461 31.2684C9.8441 30.3001 9.88772 29.131 9.23335 28.6599Z" fill="white" fill-opacity="0.7"/>
<path d="M10.8365 9.54754C7.53848 8.58789 4.25789 9.34688 2.53906 11.2749C2.68739 11.3011 2.83571 11.3447 2.99276 11.3883C3.46391 11.5366 3.87399 11.7722 4.20554 12.0513C5.61026 10.4112 8.2103 9.69585 10.854 10.3327C10.8453 10.1669 10.8365 10.0012 10.8365 9.83543C10.8278 9.73947 10.8278 9.6435 10.8365 9.54754Z" fill="white" fill-opacity="0.7"/>
<path d="M7.45306 20.6192C4.95772 19.5723 3.29997 17.4786 3.12547 15.3324C2.69795 15.3673 2.2268 15.315 1.75565 15.1667C1.60732 15.1143 1.459 15.062 1.32812 14.9922C1.58987 17.5571 3.77985 20.0871 6.99937 21.2561C7.07789 21.1427 7.15642 21.0293 7.23494 20.9246C7.29602 20.8112 7.38327 20.7152 7.45306 20.6192Z" fill="white" fill-opacity="0.7"/>
<path d="M11.5523 10.5414C11.5523 10.4978 11.5523 10.4542 11.5523 10.4106C11.5523 10.2012 11.561 9.9918 11.5785 9.79115C11.4389 9.7388 11.308 9.69518 11.1684 9.65156C11.055 9.61667 10.9416 9.58177 10.8369 9.54688C10.8281 9.64284 10.8281 9.7388 10.8281 9.83477C10.8281 10.0005 10.8368 10.1663 10.8456 10.332C11.0637 10.3844 11.2731 10.4455 11.4912 10.5152C11.5087 10.524 11.5348 10.5327 11.5523 10.5414Z" fill="white" fill-opacity="0.7"/>
<path d="M4.43426 13.9599C4.68728 13.1922 3.96311 12.2675 2.82886 11.901C1.69461 11.5346 0.569092 11.8574 0.316067 12.6251C0.0630426 13.3929 0.787216 14.3176 1.92146 14.684C3.05571 15.0504 4.18124 14.7189 4.43426 13.9599Z" fill="white" fill-opacity="0.7"/>
<path d="M29.1109 14.098C28.3431 11.7164 25.2893 10.5735 22.3228 11.5419C22.0262 11.6379 21.7383 11.7513 21.4678 11.8821C21.5114 11.5681 21.5376 11.2365 21.5376 10.905C21.5376 7.78181 19.5047 5.23438 17.0006 5.23438C14.5053 5.23438 12.4636 7.78181 12.4636 10.905C12.4636 11.2365 12.4898 11.5593 12.5334 11.8821C12.2542 11.7513 11.975 11.6379 11.6784 11.5419C8.70314 10.5735 5.65812 11.7251 4.8816 14.1068C4.1138 16.4797 5.8937 19.2016 8.86892 20.17C9.14812 20.2572 9.42732 20.3358 9.69779 20.3881C9.51457 20.5888 9.34007 20.8069 9.16557 21.0337C7.32459 23.5637 7.48164 26.809 9.50584 28.2834C11.5388 29.749 14.671 28.8941 16.512 26.3641C16.6865 26.1198 16.8436 25.8756 16.9832 25.6313C17.1315 25.9017 17.2973 26.1722 17.4892 26.4339C19.3215 28.9639 22.4624 29.8188 24.4866 28.3532C26.5108 26.8788 26.6592 23.6335 24.8269 21.1035C24.6437 20.8505 24.4517 20.6149 24.2423 20.4056C24.539 20.3532 24.8356 20.2747 25.1236 20.1787C28.0988 19.1929 29.8874 16.471 29.1109 14.098ZM24.1551 20.2921C24.1115 20.3009 24.0678 20.3096 24.0242 20.3183C24.0591 20.3532 24.0853 20.3794 24.1115 20.4143C24.3296 20.6411 24.5477 20.8854 24.7397 21.1558C26.537 23.6335 26.3974 26.8178 24.4256 28.2485C22.445 29.688 19.3738 28.833 17.5765 26.3554C17.3758 26.0849 17.2013 25.797 17.0442 25.5091C17.0181 25.4742 17.0006 25.4306 16.9832 25.3957C16.9657 25.4306 16.9483 25.4742 16.9221 25.5091C16.7738 25.7796 16.608 26.0413 16.4248 26.303C14.6274 28.7807 11.5475 29.6356 9.57564 28.1962C7.59507 26.7567 7.45547 23.5724 9.25282 21.0948C9.43604 20.8505 9.61927 20.6149 9.81994 20.4056C9.84612 20.3707 9.88102 20.3445 9.91592 20.3096C9.87229 20.3009 9.82867 20.2921 9.78504 20.2834C9.48839 20.2311 9.19174 20.1526 8.89509 20.0566C5.98095 19.1057 4.22722 16.4448 4.97757 14.1329C5.73665 11.8123 8.72059 10.6869 11.6347 11.6379C11.9488 11.7425 12.2542 11.8647 12.5421 12.0043C12.577 12.0217 12.6207 12.0392 12.6643 12.0653C12.6556 12.0217 12.6468 11.9781 12.6381 11.9345C12.5858 11.603 12.5596 11.254 12.5596 10.905C12.5596 7.84288 14.5402 5.34779 16.9832 5.34779C19.4262 5.34779 21.4155 7.84288 21.4155 10.905C21.4155 11.254 21.3893 11.603 21.3369 11.9345C21.3282 11.9781 21.3282 12.0217 21.3195 12.0653C21.3544 12.0479 21.398 12.0304 21.4329 12.0043C21.7208 11.8647 22.0175 11.7425 22.3403 11.6379C25.2544 10.6869 28.2384 11.8123 28.9887 14.1329C29.7391 16.4535 27.9854 19.1144 25.0712 20.0653C24.7833 20.1613 24.4692 20.2311 24.1551 20.2921Z" fill="white" fill-opacity="0.7"/>
<path d="M26.7722 20.9896C26.685 20.8675 26.5977 20.754 26.5105 20.6406C26.3098 20.7191 26.0917 20.8064 25.8823 20.8762C25.8561 20.8849 25.8387 20.8936 25.8125 20.9023C25.8299 20.9198 25.8387 20.9372 25.8561 20.9547C25.987 21.1379 26.1091 21.3298 26.2313 21.513C26.3709 21.4781 26.5105 21.4345 26.6501 21.3909C26.7635 21.356 26.8682 21.3124 26.9817 21.2775C26.9119 21.1815 26.842 21.0856 26.7722 20.9896Z" fill="white" fill-opacity="0.7"/>
<path d="M17.046 27.3529C17.0198 27.3267 17.0024 27.2918 16.985 27.2656C16.9762 27.2743 16.9762 27.2831 16.9675 27.2918C16.8279 27.4837 16.6796 27.6669 16.5312 27.8501C16.6185 27.981 16.7058 28.1119 16.8017 28.2427C16.8628 28.3212 16.9239 28.4085 16.985 28.4957C17.0635 28.391 17.142 28.2951 17.2205 28.1817C17.299 28.077 17.3776 27.9723 17.4474 27.8589C17.3078 27.6931 17.1682 27.5273 17.046 27.3529Z" fill="white" fill-opacity="0.7"/>
<path d="M8.12644 20.8849C7.89959 20.8064 7.67274 20.7279 7.45461 20.6406C7.37609 20.7366 7.29756 20.8413 7.22776 20.946C7.14051 21.0594 7.07071 21.1728 6.99219 21.2775C7.11434 21.3211 7.23649 21.3647 7.35864 21.4083C7.48951 21.452 7.61166 21.4869 7.74254 21.5218C7.86469 21.3124 8.00429 21.1117 8.15261 20.9111L8.16134 20.9023C8.14389 20.8936 8.13516 20.8936 8.12644 20.8849Z" fill="white" fill-opacity="0.7"/>
<path fill-rule="evenodd" clip-rule="evenodd" d="M23.0725 19.6303C23.0202 19.6303 22.9766 19.6303 22.9417 19.639C21.9296 19.6826 20.9349 19.8397 19.9664 20.1712C19.3121 20.398 18.6926 20.7033 18.1255 21.0959C17.8899 21.2617 17.663 21.4536 17.4449 21.6455C17.4187 21.6717 17.41 21.6892 17.4449 21.7241C17.8288 22.073 18.204 22.422 18.5792 22.7797C18.6228 22.8146 18.6315 22.8058 18.649 22.7622C18.6839 22.6837 18.71 22.6139 18.7362 22.5354C18.7711 22.4133 18.8235 22.2911 18.9194 22.2039C19.0678 22.0556 19.251 21.9858 19.4604 22.012C19.6523 22.0381 19.8181 22.2388 19.8268 22.4394C19.8268 22.6401 19.6785 22.8233 19.4778 22.8669C19.3295 22.8931 19.1899 22.8582 19.0678 22.7884C19.0154 22.7622 18.9892 22.7622 18.9631 22.8146C18.9194 22.9018 18.9107 22.9891 18.9805 23.0763C19.0852 23.2246 19.2335 23.3031 19.3993 23.3816C19.4778 23.4165 19.5302 23.4253 19.6087 23.3467C19.757 23.2072 19.9315 23.1984 20.1148 23.2769C20.2631 23.3467 20.3678 23.5038 20.3591 23.6695C20.3591 23.8353 20.2544 23.9749 20.0973 24.0272C19.8181 24.1319 19.5476 24.0796 19.2772 23.9661C19.0329 23.8615 18.8147 23.7132 18.6053 23.5474C18.5792 23.5212 18.5617 23.5212 18.5355 23.5561C18.3523 23.8004 18.1342 23.9749 17.8288 24.0534C17.6369 24.097 17.4624 24.0708 17.2966 23.94C17.0872 23.7655 17.0697 23.5038 17.253 23.3031C17.4362 23.1112 17.6718 23.1286 17.8637 23.2421C17.9422 23.2857 17.9771 23.3642 17.9684 23.4514C17.9684 23.5387 17.9859 23.5561 18.0731 23.5299C18.1429 23.5125 18.1865 23.4602 18.2302 23.4078C18.2476 23.3816 18.2389 23.3642 18.2302 23.338C18.1342 23.1635 18.0033 23.0065 17.855 22.8669C17.6456 22.6663 17.41 22.5005 17.1832 22.3086C17.1221 22.2562 17.0523 22.2039 16.9912 22.1428C16.965 22.1254 16.9563 22.1166 16.9301 22.1428C16.6858 22.3696 16.4241 22.5616 16.1798 22.7797C15.9966 22.9367 15.8395 23.1112 15.6999 23.3118C15.665 23.3729 15.665 23.4078 15.7086 23.4514C15.7523 23.495 15.7959 23.5212 15.857 23.5299C15.9006 23.5387 15.9355 23.5212 15.9529 23.4776C15.9617 23.434 15.9704 23.3991 15.9878 23.3555C16.0053 23.2769 16.0576 23.2159 16.1362 23.1984C16.1885 23.181 16.2409 23.1723 16.2932 23.1635C16.5462 23.1286 16.7033 23.2857 16.7731 23.4863C16.8429 23.687 16.7469 23.8876 16.5462 23.9923C16.3456 24.0883 16.1449 24.0796 15.9442 24.001C15.7174 23.9051 15.5341 23.7568 15.3945 23.5474C15.3771 23.5125 15.3596 23.5125 15.3247 23.5387C15.1241 23.6957 14.9147 23.844 14.6791 23.9574C14.461 24.0534 14.2341 24.1145 13.9898 24.097C13.6583 24.0708 13.5361 23.748 13.6321 23.5038C13.7717 23.1461 14.1643 23.1548 14.3475 23.3555C14.4086 23.4165 14.4522 23.4165 14.522 23.3904C14.6965 23.3118 14.8623 23.2246 14.967 23.0676C15.0281 22.9891 15.0281 22.8931 14.967 22.8146C14.9408 22.7797 14.9059 22.7622 14.8536 22.7797C14.7925 22.8058 14.7314 22.832 14.6704 22.8495C14.4173 22.9367 14.2428 22.8233 14.1469 22.5877C14.0771 22.4133 14.1207 22.2475 14.2603 22.1166C14.3999 21.9945 14.5569 21.9683 14.7314 22.0381C14.7489 22.0469 14.7663 22.0556 14.7838 22.0643C14.9845 22.1515 15.1328 22.2998 15.1939 22.518C15.22 22.6139 15.2462 22.7099 15.2986 22.7971C15.3073 22.8233 15.3247 22.832 15.3509 22.8058C15.7348 22.4482 16.1187 22.0905 16.5113 21.7328C16.5462 21.7066 16.5288 21.6892 16.5026 21.6717C16.2234 21.41 15.918 21.1657 15.5952 20.9651C14.7663 20.4329 13.8677 20.1014 12.9079 19.892C12.3757 19.7786 11.826 19.7088 11.2763 19.6739C11.1629 19.6652 11.0495 19.6652 10.9361 19.6565C10.9186 19.6565 10.9012 19.6652 10.875 19.639C10.9884 19.6216 11.0931 19.6041 11.2065 19.5867C11.6951 19.5169 12.1837 19.4994 12.6723 19.5343C13.1348 19.5605 13.5885 19.639 14.0422 19.7437C14.714 19.9007 15.3335 20.1624 15.9268 20.5114C16.2845 20.7208 16.6248 20.9563 16.965 21.2093C17.0174 21.2442 17.0348 21.2181 17.061 21.1919C17.5845 20.7382 18.1604 20.3893 18.7886 20.1101C19.347 19.8658 19.9228 19.7001 20.5336 19.6041C21.153 19.5081 21.7638 19.482 22.3833 19.5343C22.6014 19.5518 22.8108 19.5779 23.0202 19.6216C23.0376 19.6128 23.0551 19.6128 23.0725 19.6303Z" fill="white" fill-opacity="0.7"/>
<path d="M48.5021 13.6056C48.8303 13.6291 49.1116 13.7697 49.3226 14.0041C49.5336 14.2385 49.6508 14.5316 49.6508 14.8597V23.1698H48.8655V14.8597C48.8655 14.5902 48.7131 14.4261 48.42 14.3675C48.127 14.3089 47.9511 14.4495 47.8925 14.766L46.3335 22.4314C46.2749 22.6658 46.1577 22.865 45.9701 23.0291C45.7826 23.1932 45.5716 23.2635 45.3254 23.2635C45.0793 23.2635 44.8565 23.1815 44.669 23.0291C44.4814 22.8767 44.3525 22.6775 44.3056 22.4196L42.7583 14.7542C42.6997 14.4378 42.5239 14.3089 42.2308 14.3557C41.9378 14.4143 41.7854 14.5784 41.7854 14.848V23.158H41V14.848C41 14.5198 41.1055 14.2268 41.3282 13.9924C41.5392 13.758 41.8205 13.6173 42.1488 13.5939C42.4887 13.5587 42.7817 13.6408 43.0396 13.8283C43.2975 14.0158 43.4616 14.2737 43.532 14.6136L45.0675 22.2907C45.091 22.4196 45.1848 22.49 45.3254 22.49C45.4544 22.49 45.5364 22.4196 45.5599 22.2907L47.1072 14.6136C47.1775 14.2854 47.3416 14.0158 47.5995 13.8283C47.8574 13.6525 48.1621 13.5705 48.5021 13.6056Z" fill="white" fill-opacity="0.7"/>
<path d="M51.5744 14.883H50.7891V13.7109H51.5744V14.883ZM51.5744 23.193H50.7891V16.102H51.5744V23.193Z" fill="white" fill-opacity="0.7"/>
<path d="M55.5359 15.9297C56.2979 15.9297 56.966 16.211 57.5287 16.7736C58.0796 17.3245 58.3609 17.9925 58.3609 18.7661V23.1848H57.5873V18.7661C57.5873 18.2035 57.388 17.723 56.9777 17.3127C56.5792 16.9142 56.0869 16.7033 55.5242 16.7033C54.9498 16.7033 54.4692 16.9025 54.0707 17.3127C53.6721 17.7112 53.4612 18.1918 53.4612 18.7661V23.1848H52.6875V18.7661C52.6875 17.9808 52.9571 17.3127 53.508 16.7736C54.0824 16.211 54.7506 15.9297 55.5359 15.9297Z" fill="white" fill-opacity="0.7"/>
<path d="M60.2932 14.883H59.5078V13.7109H60.2932V14.883ZM60.2932 23.193H59.5078V16.102H60.2932V23.193Z" fill="white" fill-opacity="0.7"/>
<path d="M63.4537 15.9297C64.0163 15.9297 64.4969 16.1289 64.8838 16.5392C65.2823 16.926 65.4933 17.3948 65.4933 17.9574V18.4614H64.6962V17.9574C64.6962 17.6175 64.579 17.3245 64.3328 17.0783C64.0984 16.8322 63.8053 16.715 63.4654 16.715C63.1372 16.715 62.8441 16.8322 62.598 17.0666C62.3518 17.301 62.2229 17.5823 62.2229 17.9105C62.2229 18.4379 62.469 18.8013 62.9731 18.9888L64.2391 19.4811C64.6142 19.6217 64.9072 19.8679 65.1299 20.1961C65.3526 20.5242 65.4581 20.8876 65.4581 21.2978C65.4581 21.6494 65.3761 21.9776 65.2003 22.2823C64.8017 22.9387 64.2273 23.2669 63.4654 23.2669C62.9028 23.2669 62.4221 23.0676 62.0353 22.6809C61.6368 22.2823 61.4375 21.8018 61.4375 21.2392V20.7352H62.2229V21.2392C62.2229 21.5791 62.3401 21.8721 62.5863 22.1183C62.8324 22.3644 63.1137 22.4816 63.4537 22.4816C63.7819 22.4816 64.0749 22.3644 64.3211 22.13C64.5673 21.8956 64.6962 21.6143 64.6962 21.2861C64.6962 20.7704 64.4501 20.407 63.946 20.2078L62.68 19.7038C62.2932 19.5514 62.0002 19.317 61.7774 18.9888C61.5547 18.6606 61.4492 18.309 61.4492 17.8988C61.4492 17.5354 61.5313 17.2073 61.7071 16.9142C62.1057 16.2696 62.68 15.9297 63.4537 15.9297Z" fill="white" fill-opacity="0.7"/>
<path d="M67.2776 13.6875V15.9262C67.2776 16.0317 67.3244 16.0785 67.4299 16.0785H68.5904V16.8638H67.4299C67.3244 16.8638 67.2776 16.9107 67.2776 17.0045V21.306C67.2776 21.599 67.3831 21.8569 67.6058 22.0679C67.8168 22.2788 68.0747 22.3843 68.3794 22.3843H68.6021V23.1696H68.3677C67.8402 23.1696 67.3948 22.9938 67.0314 22.6305C66.668 22.2671 66.4922 21.8217 66.4922 21.306V13.6875H67.2776Z" fill="white" fill-opacity="0.7"/>
<path d="M72.5477 16.7189H72.0319C71.5748 16.7189 71.1762 16.883 70.8597 17.2112C70.5432 17.5276 70.3791 17.9144 70.3791 18.3832V23.1888H69.5938V18.3832C69.5938 17.7152 69.8282 17.1526 70.2971 16.672C70.7777 16.1915 71.3638 15.9453 72.0202 15.9453H72.536V16.7189H72.5477Z" fill="white" fill-opacity="0.7"/>
<path d="M77.0009 25.5837H76.2156L76.7079 23.3567C76.7196 23.3216 76.7079 23.2981 76.6845 23.263C76.661 23.2395 76.6376 23.2278 76.6024 23.2395C76.5907 23.2395 76.5438 23.2395 76.4852 23.2512C76.4148 23.263 76.368 23.263 76.3445 23.263C75.9929 23.263 75.6881 23.1575 75.4068 22.9348C75.1372 22.7121 74.9613 22.4308 74.8793 22.1026L73.5781 16.0781H74.3752L75.6412 21.9268C75.7115 22.2901 75.946 22.4659 76.3445 22.4659C76.7079 22.4659 76.9423 22.2784 77.0478 21.9151L78.349 16.0781H79.1461L77.0009 25.5837Z" fill="white" fill-opacity="0.7"/>
<path d="M86.1924 15.9297C87.2005 15.9297 88.0797 16.293 88.7947 17.008C89.5097 17.723 89.8731 18.5903 89.8731 19.5983C89.8731 20.6063 89.5097 21.4736 88.7947 22.1886C88.0679 22.9153 87.2005 23.2669 86.1924 23.2669C85.1843 23.2669 84.3169 22.9036 83.6019 22.1886C82.8868 21.4736 82.5234 20.6063 82.5234 19.5983C82.5234 18.5903 82.8751 17.723 83.6019 17.008C84.3169 16.293 85.1843 15.9297 86.1924 15.9297ZM86.1924 16.715C85.3836 16.715 84.7037 16.9963 84.1411 17.5589C83.5784 18.1332 83.2971 18.813 83.2971 19.61C83.2971 20.3953 83.5784 21.0751 84.1411 21.6494C84.7037 22.212 85.3836 22.4933 86.1924 22.4933C87.0012 22.4933 87.6928 22.212 88.2438 21.6494C88.8181 21.0751 89.0995 20.3953 89.0995 19.61C89.0995 18.813 88.8181 18.1332 88.2438 17.5589C87.6928 16.9963 87.0012 16.715 86.1924 16.715Z" fill="white" fill-opacity="0.7"/>
<path d="M92.9811 14.465H92.7583C92.4536 14.465 92.1957 14.5705 91.9847 14.7814C91.7737 14.9924 91.6682 15.2503 91.6682 15.5433V15.9066C91.6682 16.0121 91.7151 16.059 91.8206 16.059H92.9811V16.8326H91.8206C91.7151 16.8326 91.6682 16.8795 91.6682 16.985V23.1501H90.8828V15.5316C90.8828 15.0159 91.0586 14.5822 91.422 14.2188C91.7854 13.8438 92.2308 13.6562 92.7583 13.6562H92.9811V14.465Z" fill="white" fill-opacity="0.7"/>
<path d="M98.7897 13.6172C99.4462 13.6172 100.021 13.8516 100.513 14.3322C100.993 14.8127 101.228 15.3753 101.228 16.0434V16.6294H100.443V16.0434C100.443 15.598 100.278 15.2112 99.9385 14.8713C99.6103 14.5431 99.2235 14.379 98.7663 14.379C98.3209 14.379 97.934 14.5431 97.5941 14.8713C97.2776 15.1995 97.1135 15.598 97.1135 16.0434C97.1135 16.4185 97.219 16.7584 97.4183 17.0748C97.6175 17.3796 97.8871 17.614 98.2271 17.7781L99.6454 18.4227C100.126 18.6337 100.501 18.9619 100.794 19.4072C101.076 19.8526 101.216 20.3332 101.216 20.8489C101.216 21.517 100.982 22.0913 100.501 22.5719C100.021 23.0524 99.4462 23.2868 98.778 23.2868C98.0981 23.2868 97.5238 23.0524 97.0549 22.5719C96.586 22.103 96.3516 21.5287 96.3516 20.8489V20.2629H97.1369V20.8489C97.1369 21.3177 97.301 21.7045 97.6175 22.021C97.934 22.3374 98.3326 22.5015 98.7897 22.5015C99.2586 22.5015 99.6454 22.3374 99.9619 22.021C100.29 21.7045 100.466 21.306 100.466 20.8489C100.466 20.4738 100.36 20.1339 100.161 19.8175C99.9619 19.5127 99.6923 19.2783 99.3641 19.126L97.9223 18.4813C97.4534 18.2586 97.0666 17.9304 96.7853 17.4968C96.5039 17.0631 96.3633 16.5825 96.3633 16.0434C96.3633 15.3753 96.5977 14.8127 97.0666 14.3322C97.5355 13.8633 98.1216 13.6172 98.7897 13.6172Z" fill="white" fill-opacity="0.7"/>
<path d="M105.935 15.9297C106.943 15.9297 107.822 16.293 108.537 17.008C109.252 17.723 109.615 18.5903 109.615 19.5983C109.615 20.6063 109.252 21.4736 108.537 22.1886C107.81 22.9153 106.943 23.2669 105.935 23.2669C104.833 23.2669 103.907 22.8332 103.156 21.9776C103.145 21.9542 103.11 21.9424 103.074 21.9542C103.051 21.9776 103.039 21.9893 103.039 22.001V25.5642H102.266V19.5397C102.266 18.5434 102.629 17.6995 103.344 16.9846C104.047 16.293 104.915 15.9297 105.935 15.9297ZM105.935 16.715C105.126 16.715 104.446 16.9963 103.883 17.5589C103.321 18.1332 103.039 18.813 103.039 19.61C103.039 20.3953 103.321 21.0751 103.883 21.6494C104.446 22.212 105.126 22.4933 105.935 22.4933C106.743 22.4933 107.435 22.212 107.986 21.6494C108.56 21.0751 108.842 20.3953 108.842 19.61C108.842 18.813 108.56 18.1332 107.986 17.5589C107.423 16.9963 106.743 16.715 105.935 16.715Z" fill="white" fill-opacity="0.7"/>
<path d="M114.302 15.9297C115.31 15.9297 116.189 16.293 116.904 17.008C117.619 17.723 117.983 18.5903 117.983 19.5983C117.983 20.6063 117.619 21.4736 116.904 22.1886C116.177 22.9153 115.31 23.2669 114.302 23.2669C113.294 23.2669 112.426 22.9036 111.711 22.1886C110.996 21.4736 110.633 20.6063 110.633 19.5983C110.633 18.5903 110.984 17.723 111.711 17.008C112.426 16.293 113.294 15.9297 114.302 15.9297ZM114.302 16.715C113.493 16.715 112.813 16.9963 112.25 17.5589C111.688 18.1332 111.406 18.813 111.406 19.61C111.406 20.3953 111.688 21.0751 112.25 21.6494C112.813 22.212 113.493 22.4933 114.302 22.4933C115.111 22.4933 115.802 22.212 116.353 21.6494C116.928 21.0751 117.209 20.3953 117.209 19.61C117.209 18.813 116.928 18.1332 116.353 17.5589C115.802 16.9963 115.111 16.715 114.302 16.715Z" fill="white" fill-opacity="0.7"/>
<path d="M121.938 16.7189H121.423C120.965 16.7189 120.567 16.883 120.25 17.2112C119.934 17.5276 119.77 17.9144 119.77 18.3832V23.1888H118.984V18.3832C118.984 17.7152 119.219 17.1526 119.688 16.672C120.168 16.1915 120.754 15.9453 121.423 15.9453H121.938V16.7189Z" fill="white" fill-opacity="0.7"/>
<path d="M123.735 13.6875V15.9262C123.735 16.0317 123.781 16.0785 123.887 16.0785H125.047V16.8638H123.887C123.781 16.8638 123.735 16.9107 123.735 17.0045V21.306C123.735 21.599 123.84 21.8569 124.063 22.0679C124.274 22.2788 124.532 22.3843 124.836 22.3843H125.059V23.1696H124.836C124.309 23.1696 123.864 22.9938 123.5 22.6305C123.137 22.2671 122.961 21.8217 122.961 21.306V13.6875H123.735Z" fill="white" fill-opacity="0.7"/>
</svg>
