<svg width="52" height="48" viewBox="0 0 52 48" fill="none" xmlns="http://www.w3.org/2000/svg">
<path d="M41 14.8954C41 15.1271 41.1881 15.3143 41.4198 15.3143C41.6514 15.3143 41.8404 15.1271 41.8404 14.8954C41.8404 14.6637 41.6524 14.4766 41.4198 14.4766C41.1872 14.4766 41 14.6646 41 14.8954Z" fill="white" fill-opacity="0.7"/>
<path d="M28.9754 2.85333C29.207 2.85333 29.3951 2.66525 29.3951 2.43448C29.3951 2.2037 29.207 2.01562 28.9754 2.01562C28.7437 2.01562 28.5547 2.2037 28.5547 2.43448C28.5547 2.66525 28.7428 2.85333 28.9754 2.85333Z" fill="white" fill-opacity="0.7"/>
<path d="M3.48438 17.8328C3.48438 18.1798 3.76694 18.4615 4.11492 18.4615C4.4629 18.4615 4.74547 18.1798 4.74547 17.8328C4.74547 17.4857 4.4629 17.2031 4.11492 17.2031C3.76694 17.2031 3.48438 17.4848 3.48438 17.8328Z" fill="white" fill-opacity="0.7"/>
<path d="M25.8962 1.25746C26.2442 1.25746 26.5267 0.975803 26.5267 0.62873C26.5267 0.281656 26.2442 0 25.8962 0C25.5482 0 25.2656 0.281656 25.2656 0.62873C25.2656 0.975803 25.5473 1.25746 25.8962 1.25746Z" fill="white" fill-opacity="0.7"/>
<path d="M12.6484 13.6522C12.6484 13.9992 12.9301 14.2809 13.279 14.2809C13.6279 14.2809 13.9086 13.9992 13.9086 13.6522C13.9086 13.3051 13.6261 13.0234 13.279 13.0234C12.9319 13.0234 12.6484 13.3051 12.6484 13.6522Z" fill="white" fill-opacity="0.7"/>
<path d="M37.6016 13.3397C37.6016 13.6867 37.8832 13.9684 38.2321 13.9684C38.581 13.9684 38.8627 13.6867 38.8627 13.3397C38.8627 12.9926 38.5801 12.7109 38.2321 12.7109C37.8841 12.7109 37.6016 12.9926 37.6016 13.3397Z" fill="white" fill-opacity="0.7"/>
<path d="M47.6149 19.6246C47.9629 19.6246 48.2455 19.343 48.2455 18.9959C48.2455 18.6488 47.9629 18.3672 47.6149 18.3672C47.2669 18.3672 46.9844 18.6488 46.9844 18.9959C46.9844 19.343 47.2669 19.6246 47.6149 19.6246Z" fill="white" fill-opacity="0.7"/>
<path d="M10.0121 18.1614C9.84034 18.3949 9.70496 18.6221 9.58594 18.8429L10.0693 29.1351C10.0757 29.246 10.1792 29.3259 10.2874 29.3032C10.3246 29.295 10.3609 29.2869 10.3973 29.2796C10.4763 29.2623 10.5354 29.1942 10.539 29.1124L11.0842 17.5C10.6344 17.629 10.2537 17.8316 10.0111 18.1623" fill="white" fill-opacity="0.7"/>
<path d="M14.0315 17.1168C13.6217 17.185 13.1483 17.2122 12.6641 17.2449L13.1601 28.4939C13.1656 28.6021 13.2637 28.6811 13.3691 28.6638C13.4291 28.6538 13.4909 28.6438 13.5508 28.6339C13.6344 28.6202 13.6989 28.5503 13.7026 28.4649L14.2041 17.0859C14.1478 17.0968 14.0923 17.1068 14.0324 17.1168" fill="white" fill-opacity="0.7"/>
<path d="M16.2597 15.3826C16.0471 15.647 15.8727 15.8677 15.7109 16.0558L16.2088 28.0289C16.2134 28.1334 16.3051 28.2116 16.4087 28.2007C16.4859 28.1925 16.5623 28.1825 16.6395 28.1743C16.7276 28.1652 16.7958 28.0925 16.7994 28.0035L17.3573 14.5703C17.0393 14.7466 16.6631 14.8801 16.2597 15.3826Z" fill="white" fill-opacity="0.7"/>
<path d="M7.70512 21.2744C7.33896 21.4988 6.95464 21.6787 6.57031 21.835L7.01006 29.874C7.01642 29.9875 7.12727 30.0675 7.23811 30.0375C7.25083 30.0339 7.26264 30.0302 7.27627 30.0275C7.35078 30.0084 7.40529 29.9412 7.40983 29.864L7.88774 21.1562C7.82868 21.1953 7.76872 21.2353 7.70512 21.2744Z" fill="white" fill-opacity="0.7"/>
<path d="M3.5 23.0279L3.91068 30.728C3.91704 30.8452 4.03333 30.9252 4.14508 30.8888C4.16326 30.8825 4.18234 30.877 4.1996 30.8707C4.27047 30.8479 4.32044 30.7834 4.32407 30.7098L4.76564 22.4219C4.30227 22.5954 3.86979 22.7826 3.5 23.027" fill="white" fill-opacity="0.7"/>
<path d="M0.476562 25.6788L0.789111 31.7308C0.795471 31.8525 0.919036 31.9334 1.03352 31.8898C1.05169 31.8834 1.06986 31.8761 1.08803 31.8698C1.15526 31.8443 1.20069 31.7826 1.20342 31.7108L1.58047 24.4141C1.20796 24.7584 0.831813 25.1609 0.477471 25.6788" fill="white" fill-opacity="0.7"/>
<path d="M50.0938 24.5078L50.4726 31.7318C50.4763 31.8054 50.5235 31.869 50.5935 31.8927C50.6135 31.899 50.6334 31.9072 50.6525 31.9127C50.7652 31.9517 50.8842 31.8718 50.8906 31.7527L51.1958 25.9515C50.8388 25.3491 50.4681 24.894 50.0938 24.5078Z" fill="white" fill-opacity="0.7"/>
<path d="M46.8984 22.4922L47.3582 30.8892C47.3627 30.9646 47.4154 31.0309 47.489 31.0527C47.5045 31.0573 47.5199 31.0618 47.5353 31.0664C47.6471 31.0991 47.7598 31.02 47.7661 30.9037L48.1886 23.1909C47.7952 22.9101 47.3618 22.6975 46.8993 22.4922" fill="white" fill-opacity="0.7"/>
<path d="M44.1934 21.3732C44.028 21.2715 43.8827 21.1688 43.75 21.0625L44.2706 30.1518C44.2742 30.2309 44.3297 30.2963 44.406 30.3163C44.4133 30.3181 44.4205 30.3199 44.4278 30.3217C44.5386 30.349 44.6449 30.2708 44.6522 30.1582L45.1256 21.8775C44.8221 21.7303 44.5114 21.5686 44.1943 21.3741" fill="white" fill-opacity="0.7"/>
<path d="M41.7943 18.2534C41.5281 17.8909 41.0956 17.681 40.5859 17.5547L41.1338 29.4388C41.1383 29.5215 41.1965 29.5896 41.2774 29.6069C41.311 29.6141 41.3446 29.6214 41.3764 29.6287C41.4854 29.6523 41.5899 29.5723 41.5944 29.4615L42.0905 18.7149C42.0033 18.5605 41.9061 18.4069 41.7943 18.2534Z" fill="white" fill-opacity="0.7"/>
<path d="M37.7588 17.2228C37.6615 17.2073 37.5707 17.19 37.4844 17.1719L38.0004 28.7988C38.0041 28.8824 38.0677 28.9533 38.1504 28.9669C38.1912 28.9742 38.233 28.9815 38.273 28.9878C38.3802 29.0069 38.4783 28.9269 38.4838 28.8188L38.9935 17.3409C38.5556 17.3127 38.1304 17.2845 37.7588 17.2218" fill="white" fill-opacity="0.7"/>
<path d="M35.5211 15.4811C35.1213 14.9823 34.7097 14.5744 34.3281 14.1328L34.935 28.2792C34.9387 28.3665 35.0059 28.4382 35.0913 28.4491C35.1349 28.4555 35.1785 28.4609 35.2222 28.4673C35.3266 28.4818 35.4202 28.4019 35.4257 28.2965L35.9526 16.0154C35.8227 15.8591 35.6837 15.6828 35.5211 15.4811Z" fill="white" fill-opacity="0.7"/>
<path d="M32.9518 11.928C32.353 9.96545 32.5747 10.7232 32.0396 8.82429C31.7743 7.88664 31.4481 7.18159 31.0547 6.59375L31.8461 27.9433C31.8488 28.0342 31.9187 28.1069 32.0087 28.115C32.0814 28.1214 32.1541 28.1296 32.2258 28.1368C32.3294 28.1468 32.4194 28.0678 32.423 27.9642L33.0108 12.1088C32.9918 12.0488 32.969 11.9907 32.9509 11.9289" fill="white" fill-opacity="0.7"/>
<path d="M27.8594 5.81918L28.6507 27.6948C28.6544 27.7875 28.7289 27.8629 28.8225 27.8683C28.8915 27.872 28.9606 27.8756 29.0305 27.8792C29.1314 27.8856 29.2168 27.8084 29.2213 27.7075L30.0145 5.75649C29.4376 5.68108 28.6344 5.76558 27.8603 5.81918" fill="white" fill-opacity="0.7"/>
<path d="M20.5757 9.26562C20.3813 9.46551 20.2186 9.63541 20.1014 9.7508C20.1014 9.7508 19.2092 10.7611 18.7031 11.7815L19.3046 27.7623C19.3082 27.8631 19.3955 27.9422 19.4972 27.934C19.5699 27.9285 19.6408 27.924 19.7135 27.9195C19.8052 27.9131 19.877 27.8386 19.8815 27.7468L20.5766 9.26653L20.5757 9.26562Z" fill="white" fill-opacity="0.7"/>
<path d="M21.704 8.01188L22.3945 27.6024C22.3982 27.7015 22.4809 27.7787 22.5799 27.776C22.6671 27.7733 22.7543 27.7714 22.8416 27.7687C22.937 27.7669 23.0133 27.6915 23.0178 27.597L23.7647 6.38281C23.2041 6.64357 22.4245 7.31955 21.7031 8.01188" fill="white" fill-opacity="0.7"/>
<path d="M26.882 5.85985C26.7421 5.85349 26.6095 5.8435 26.4868 5.82442C25.8826 5.73447 25.3929 5.87893 24.8032 6.05428C24.8014 6.05428 24.7996 6.0561 24.7969 6.0561L25.511 27.5856C25.5146 27.6828 25.5946 27.76 25.6909 27.76H25.9853C26.0825 27.76 26.1615 27.6828 26.1652 27.5856L26.8875 5.85894H26.8811" fill="white" fill-opacity="0.7"/>
<path fill-rule="evenodd" clip-rule="evenodd" d="M13.3278 47.9715C13.1234 47.9842 12.9326 47.9969 12.7409 47.9969C10.4558 47.9969 8.59234 46.7322 7.17497 44.9341C6.58804 45.1495 5.94931 45.263 5.28515 45.263C2.31049 45.263 0 43.0089 0 40.0197C0 37.0305 2.37409 34.7891 5.28515 34.7891C8.1962 34.7891 10.6085 36.9678 10.6085 40.0197C10.6085 41.945 9.62538 43.5658 8.14441 44.478C9.39551 45.9218 10.9655 47.0084 12.8808 47.0084C13.2642 47.0084 13.723 46.983 14.2473 46.9448C14.26 47.4772 13.8639 47.9324 13.3278 47.9706M9.37007 40.0188C9.37007 37.6383 7.64652 35.8648 5.28515 35.8648C2.92378 35.8648 1.21294 37.6629 1.21294 40.0061C1.21294 42.3493 2.92378 44.16 5.29787 44.1728C7.64652 44.1855 9.37007 42.1966 9.37007 40.0188ZM12.3702 44.1473V38.1317H12.4601C12.9962 38.1317 13.4305 38.5496 13.4305 39.0939V45.0968H13.3287C12.8054 45.0968 12.3711 44.6534 12.3711 44.1464M15.3857 41.4998C15.3857 39.5245 16.8285 37.89 18.8328 37.89C19.8413 37.89 20.9007 38.3334 21.4495 39.0557V34.9653H21.5258C22.0746 34.9653 22.5089 35.4087 22.5089 35.9529V45.1222H22.4835C21.9347 45.1222 21.5004 44.7043 21.5004 44.0201C20.9262 44.856 19.8659 45.274 18.8328 45.274C16.7904 45.274 15.3857 43.5513 15.3857 41.4998ZM21.4622 41.4998C21.4622 39.9425 20.4283 38.8913 18.9855 38.8913C17.5427 38.8913 16.496 40.0942 16.496 41.4998C16.496 43.0452 17.5427 44.2736 18.9855 44.2736C20.4283 44.2736 21.4622 43.1334 21.4622 41.4998ZM24.3124 41.4998C24.3124 39.5245 25.7552 37.89 27.7595 37.89C28.768 37.89 29.8274 38.3334 30.3762 39.0557V34.9653H30.4525C31.0013 34.9653 31.4356 35.4087 31.4356 35.9529V45.1222H31.4101C30.8614 45.1222 30.4271 44.7043 30.4271 44.0201C29.8529 44.856 28.7926 45.274 27.7595 45.274C25.717 45.274 24.3124 43.5513 24.3124 41.4998ZM30.3889 41.4998C30.3889 39.9425 29.355 38.8913 27.9121 38.8913C26.4693 38.8913 25.4227 40.0942 25.4227 41.4998C25.4227 43.0452 26.4693 44.2736 27.9121 44.2736C29.355 44.2736 30.3889 43.1334 30.3889 41.4998ZM33.9596 44.1464V38.1308H34.0495C34.5856 38.1308 35.0199 38.5487 35.0199 39.093V45.0959H34.9181C34.3948 45.0959 33.9605 44.6525 33.9605 44.1455M36.5981 47.0184V46.9557C37.3258 47.0566 37.8492 47.0947 38.2962 46.7913C38.6533 46.5759 39.1257 45.8055 39.5982 44.717L36.7643 38.1308H37.1605C37.8755 38.1308 38.0282 38.397 38.169 38.7386L40.186 43.5004L42.4329 38.1181H43.5822L40.0334 46.1961C39.5482 47.311 38.6542 47.9942 37.6593 47.9942H37.5702C37.0342 47.9942 36.5999 47.5508 36.5999 47.0193M44.0411 41.4998C44.0411 39.5245 45.4839 37.89 47.4882 37.89C48.4967 37.89 49.5561 38.3334 50.1049 39.0557V38.1308H51.1643V45.1222H51.1388C50.59 45.1222 50.1557 44.7043 50.1557 44.0201C49.5815 44.856 48.5212 45.274 47.4873 45.274C45.4448 45.274 44.0402 43.5259 44.0402 41.4998M50.1167 41.4998C50.1167 39.9425 49.0827 38.8913 47.6399 38.8913C46.1971 38.8913 45.1504 40.0942 45.1504 41.4998C45.1504 43.0198 46.1971 44.2736 47.6399 44.2736C49.0827 44.2736 50.1167 43.1079 50.1167 41.4998ZM12.9026 34.9581C12.5328 34.9581 12.2321 35.2561 12.2321 35.6231C12.2321 35.9902 12.5319 36.2882 12.9026 36.2882C13.2733 36.2882 13.5731 35.9902 13.5731 35.6231C13.5731 35.2561 13.2733 34.9581 12.9026 34.9581ZM34.4911 34.9581C34.1213 34.9581 33.8206 35.2561 33.8206 35.6231C33.8206 35.9902 34.1204 36.2882 34.4911 36.2882C34.8618 36.2882 35.1616 35.9902 35.1616 35.6231C35.1616 35.2561 34.8618 34.9581 34.4911 34.9581Z" fill="white" fill-opacity="0.7"/>
</svg>
