<svg width="49" height="24" viewBox="0 0 49 24" fill="none" xmlns="http://www.w3.org/2000/svg">
<path d="M7.89268 24C10.3988 24 12.4525 23.2168 13.8013 21.9028C14.8107 20.8934 15.4112 19.5446 15.4112 17.9782C15.4112 16.5598 14.889 15.2893 13.9144 14.3147C12.9398 13.3401 11.5562 12.6352 9.7984 12.2959L6.91806 11.7389C5.72589 11.5127 5.04714 10.921 5.04714 10.0943C5.04714 9.01523 6.09137 8.26686 7.77955 8.26686C8.82378 8.26686 9.72009 8.60623 10.3205 9.19797C10.6947 9.60696 10.9558 10.1378 11.0341 10.7295L15.1849 9.7984C15.0718 8.60624 14.5149 7.5533 13.6534 6.6918C12.3046 5.343 10.2161 4.49021 7.74474 4.49021C5.46483 4.49021 3.5591 5.23858 2.24511 6.43075C1.12255 7.47498 0.48731 8.9021 0.48731 10.4685C0.48731 11.8521 0.939812 13.0094 1.83611 13.9057C2.73242 14.802 4.04641 15.4721 5.7607 15.8898L8.60624 16.5598C10.0247 16.8992 10.6599 17.4213 10.6599 18.3524C10.6599 19.5098 9.61566 20.1885 7.89268 20.1885C6.657 20.1885 5.64757 19.7795 5.01233 19.1008C4.55983 18.6483 4.29877 18.0566 4.26396 17.3778L0 18.3089C0.113125 19.5794 0.713561 20.702 1.60986 21.5983C3.03698 23.1037 5.3169 24 7.89268 24ZM39.446 24C42.2132 24 44.3452 22.9906 45.7984 21.5722C46.9558 20.4496 47.6693 19.1443 48.0435 17.7955L43.6664 16.3336C43.4837 17.0036 43.1095 17.7172 42.5091 18.2741C41.7955 18.9442 40.8296 19.4315 39.446 19.4315C38.1755 19.4315 36.9746 18.9442 36.1131 18.0827C35.2516 17.1864 34.7295 15.8724 34.7295 14.2277C34.7295 12.5482 35.2516 11.2777 36.1131 10.3814C36.9746 9.51994 38.132 9.07614 39.4025 9.07614C40.7513 9.07614 41.6824 9.52864 42.3524 10.1987C42.9094 10.7643 43.2487 11.4692 43.475 12.1827L47.9217 10.686C47.5823 9.38071 46.8774 8.06671 45.8245 6.98767C44.3278 5.52574 42.161 4.48151 39.2806 4.48151C36.6265 4.48151 34.2335 5.49093 32.5105 7.21392C30.8136 8.97172 29.7694 11.3996 29.7694 14.2451C29.7694 17.0906 30.8571 19.5185 32.6062 21.2763C34.3292 22.9906 36.7571 24 39.446 24ZM24.3481 24C26.2886 24 27.6722 23.3996 28.2727 22.8774V18.8397C27.8202 19.1791 26.9239 19.5881 25.7665 19.5881C24.9398 19.5881 24.3481 19.3967 23.8956 18.9877C23.5214 18.6135 23.3387 17.9782 23.3387 17.1167V0H18.4046V5.04713H28.2727V9.83321H18.3959V18.3176C18.3959 20.0406 18.9181 21.4242 19.8579 22.3901C20.9021 23.4431 22.4336 24 24.3481 24Z" fill="white" fill-opacity="0.7"/>
</svg>
