<svg width="125" height="24" viewBox="0 0 125 24" fill="none" xmlns="http://www.w3.org/2000/svg">
<path d="M56.0017 6H39.9844V23.9665H45.1108V10.9517H50.8734V23.9665H56.0017V10.9517H61.7624V23.9665H66.8908V6H56.0017Z" fill="white" fill-opacity="0.7"/>
<path d="M8.93786 10.925H13.8206V5.97143H8.93786V0.0967503L8.69227 0L0 7.38012V10.925H3.80952V23.9399H14.3079V18.6941H8.93593V10.925H8.93786Z" fill="white" fill-opacity="0.7"/>
<path d="M30.2313 7.59699C28.6301 6.19218 26.9419 5.64844 24.9579 5.64844C19.9282 5.64844 16.4609 9.43524 16.4609 14.8262C16.4609 20.2171 19.9282 24.0039 24.9579 24.0039C26.9439 24.0039 28.6301 23.4602 30.2313 22.0553V23.9555H35.114V5.989H30.2313V7.59699ZM25.9344 19.5824C23.0531 19.5824 21.4907 17.4945 21.4907 14.8242C21.4907 12.1539 23.0531 10.0661 25.9344 10.0661C28.8158 10.0661 30.3299 12.1539 30.3299 14.8242C30.3299 17.4945 28.7674 19.5824 25.9344 19.5824Z" fill="white" fill-opacity="0.7"/>
<path d="M119.989 5.989V7.59699C118.388 6.19218 116.7 5.64844 114.716 5.64844C109.686 5.64844 106.219 9.43524 106.219 14.8262C106.219 20.2171 109.686 24.0039 114.716 24.0039C116.702 24.0039 118.388 23.4602 119.989 22.0553V23.9555H124.872V5.989H119.989ZM115.692 19.5844C112.811 19.5844 111.248 17.4965 111.248 14.8262C111.248 12.1559 112.811 10.068 115.692 10.068C118.574 10.068 120.088 12.1559 120.088 14.8262C120.088 17.4965 118.525 19.5844 115.692 19.5844Z" fill="white" fill-opacity="0.7"/>
<path d="M84.3406 7.59699C82.7395 6.19218 81.0513 5.64844 79.0673 5.64844C74.0376 5.64844 70.5703 9.43524 70.5703 14.8262C70.5703 20.2171 74.0376 24.0039 79.0673 24.0039C81.0532 24.0039 82.7395 23.4602 84.3406 22.0553V23.9555H89.2234V5.989H84.3406V7.59699ZM80.0438 19.5824C77.1625 19.5824 75.6 17.4945 75.6 14.8242C75.6 12.1539 77.1625 10.0661 80.0438 10.0661C82.9251 10.0661 84.4393 12.1539 84.4393 14.8242C84.4393 17.4945 82.8768 19.5824 80.0438 19.5824Z" fill="white" fill-opacity="0.7"/>
<path d="M98.9955 7.7694V5.89825H93.8672V23.9635H98.9955V12.7637L104.953 10.61V5.608L104.758 5.46094L98.9975 7.7694H98.9955Z" fill="white" fill-opacity="0.7"/>
</svg>
