<svg width="232" height="32" viewBox="0 0 232 32" fill="none" xmlns="http://www.w3.org/2000/svg">
<path d="M13.3813 0.242191L13.2162 0L0.820312 8.84004L0.974435 9.09324L13.3813 0.242191Z" fill="white" fill-opacity="0.7"/>
<path d="M10.9264 0.393829L10.7612 0.140625L0.820312 7.23027L0.985444 7.47246L10.9264 0.393829Z" fill="white" fill-opacity="0.7"/>
<path d="M7.91315 0.932888L7.74802 0.679688L0.8125 5.63363L0.977631 5.87582L7.91315 0.932888Z" fill="white" fill-opacity="0.7"/>
<path d="M3.86974 2.18289L3.70461 1.92969L0.820312 4.02135L0.985444 4.26354L3.86974 2.18289Z" fill="white" fill-opacity="0.7"/>
<path d="M19.6048 11.4032L17.5681 12.8343L7.25293 20.1992L7.4621 20.5184L6.06398 21.5422L6.17407 21.7074L3.17969 23.8981L3.34482 24.1403L6.64745 21.7294L7.75933 20.9478L18.2617 13.4398L18.0525 13.1095L19.902 11.7885L19.8029 11.6233L26.5513 6.81251L26.3972 6.57031L19.6048 11.4032Z" fill="white" fill-opacity="0.7"/>
<path d="M20.1758 12.5988L18.0181 14.129L8.0111 21.2737L8.22026 21.593L6.71207 22.6939L6.82215 22.848L3.88281 24.9947L4.04794 25.2369L6.98728 23.0792L8.48448 21.9893L18.5245 14.8226L18.3153 14.4923L20.462 12.9951L20.3519 12.83L26.5278 8.4375L26.3627 8.19531L20.1758 12.5988Z" fill="white" fill-opacity="0.7"/>
<path d="M20.7319 13.8183L18.9485 15.0843L8.72132 22.3721L8.93049 22.7023L7.5544 23.7041L7.66448 23.8583L4.70312 26.027L4.86826 26.2692L7.82962 24.1005L9.20571 23.0876L19.4328 15.7998L19.2237 15.4696L21.0071 14.2036L20.908 14.0384L26.5115 10.0313L26.3464 9.78906L20.7319 13.8183Z" fill="white" fill-opacity="0.7"/>
<path d="M21.5671 14.8158L19.8387 16.0708L9.49049 23.4026L9.71067 23.7329L7.9823 25.0209L8.09238 25.186L5.64844 26.9805L5.81357 27.2227L8.60979 25.175L10.4923 23.8099L20.4002 16.7423L20.191 16.412L21.8643 15.2121L21.7543 15.047L26.51 11.6563L26.3449 11.4141L21.5671 14.8158Z" fill="white" fill-opacity="0.7"/>
<path d="M22.5959 15.6766L20.6583 17.0526L11.6972 23.4377L11.9064 23.757L9.78168 25.3092L9.89176 25.4743L6.57812 27.8963L6.74326 28.1385L10.3431 25.5074L12.1596 24.1753L21.1757 17.7462L20.9666 17.4159L22.8491 16.0729L22.75 15.9077L26.471 13.2766L26.3058 13.0234L22.5959 15.6766Z" fill="white" fill-opacity="0.7"/>
<path d="M24.9013 15.7536L24.8463 15.6765L22.5785 17.2948L13.9146 23.4817L14.1347 23.812L11.8009 25.5404L11.8999 25.7055L7.80469 28.6999L7.96982 28.9421L12.3733 25.7055L14.6301 24.0542L23.0518 18.0214L22.8427 17.7021L25.1105 16.0838L24.9784 15.8857L25.0554 16.0068L26.4645 14.9609L26.2994 14.7188L24.9013 15.7536Z" fill="white" fill-opacity="0.7"/>
<path d="M24.9442 17.1982L23.6672 18.1009L18.5702 21.7448L18.7793 22.0751L16.6106 23.6713L16.7207 23.8365L8.9375 29.528L9.10263 29.7702L17.1831 23.8585L19.0766 22.4824L24.1296 18.8825L23.9204 18.5523L25.1974 17.6495L25.0984 17.4844L26.4304 16.5266L26.2653 16.2734L24.9442 17.1982Z" fill="white" fill-opacity="0.7"/>
<path d="M25.1924 18.6808V18.6367L23.9925 19.4954L19.9523 22.3797L20.1724 22.71L18.2789 24.0861L18.389 24.2512L10.1875 30.251L10.3526 30.4932L18.9395 24.1962L20.5908 22.9852L24.4438 20.211L24.2347 19.8917L25.4346 19.0551L25.3025 18.8569L26.2383 18.1964L26.1392 18.0312L25.1924 18.6808Z" fill="white" fill-opacity="0.7"/>
<path d="M1.97339 10.7034L3.12931 9.86669L7.48878 6.76222L7.27961 6.43196L9.19514 5.06687L9.09606 4.91275L15.5472 0.289066L15.3931 0.046875L8.8979 4.65955L6.98238 6.02463L2.3587 9.31625L2.56786 9.64651L1.46699 10.4391L1.57708 10.6043L0.773438 11.1767L0.938569 11.4189L1.97339 10.7034Z" fill="white" fill-opacity="0.7"/>
<path d="M2.68399 11.7996L3.83991 10.9629L9.22319 7.12089L9.01403 6.79062L10.5002 5.72277L10.4011 5.56865L17.4027 0.515628L17.2376 0.273438L10.225 5.33747L8.73881 6.40532L3.00324 10.4896L3.21241 10.8198L2.22162 11.5464L2.3207 11.7115L0.8125 12.8124L0.977631 13.0546L2.68399 11.7996Z" fill="white" fill-opacity="0.7"/>
<path d="M2.93115 13.2268L4.43935 12.126L10.307 7.94263L10.0979 7.61237L11.6721 6.48948L11.573 6.33535L19.1471 0.886016L18.9819 0.632812L11.4079 6.08215L9.75659 7.23807L3.6137 11.6306L3.82286 11.9608L2.4908 12.9296L2.60089 13.0947L0.773438 14.4488L0.938569 14.691L2.93115 13.2268Z" fill="white" fill-opacity="0.7"/>
<path d="M3.53947 14.3845L5.17978 13.1846L11.4217 8.73703L11.2126 8.40677L12.8749 7.21782L12.7648 7.04168L20.8453 1.32813L20.6801 1.08594L12.4566 6.86554L10.8933 7.98843L4.2 12.7552L4.42018 13.0855L2.88996 14.2084L3.00005 14.3735L0.820312 16.0358L0.985444 16.289L3.53947 14.3845Z" fill="white" fill-opacity="0.7"/>
<path d="M4.28416 15.4627L5.35201 14.692L12.5407 9.56196L12.3206 9.25372L14.181 7.93267L14.082 7.76754L22.2395 1.93289L22.0743 1.67969L13.9168 7.51433L12.0563 8.84639L4.86763 13.9435L5.07679 14.2737L3.71171 15.2755L3.82179 15.4406L0.9375 17.5433L1.10263 17.7965L4.29517 15.4847L4.28416 15.4627Z" fill="white" fill-opacity="0.7"/>
<path d="M4.99192 16.5429L6.20288 15.6622L13.6338 10.356L13.4246 10.0257L15.4833 8.56157L15.3842 8.40745L23.7619 2.42969L23.6077 2.1875L15.2301 8.15425L13.0503 9.71749L5.48731 15.1008L5.69648 15.431L4.39744 16.3778L4.49652 16.5429L1.17188 18.9759L1.33701 19.2181L4.99192 16.5429Z" fill="white" fill-opacity="0.7"/>
<path d="M5.20498 17.9918L6.93336 16.7258L15.7073 10.5059L15.4872 10.1756L17.4247 8.78848L17.3256 8.63436L25.1088 3.08594L24.9437 2.84375L17.1605 8.39217L15.1569 9.8123L6.06366 16.2634L6.27283 16.5937L4.65454 17.7826L4.76463 17.9478L1.53906 20.3036L1.70419 20.5569L5.20498 17.9918Z" fill="white" fill-opacity="0.7"/>
<path d="M5.44894 19.4311L6.99016 18.3082L16.4907 11.5378L16.2816 11.2186L18.2301 9.80944L18.131 9.65532L26.3656 3.77664L26.2005 3.52344L17.9659 9.40212L16.0173 10.7892L6.2856 17.7247L6.49477 18.055L4.84346 19.266L4.95354 19.4311L1.99219 21.5888L2.15732 21.831L5.44894 19.4311Z" fill="white" fill-opacity="0.7"/>
<path d="M5.7174 20.8196L7.02744 19.8618L17.1885 12.6181L16.9794 12.2878L18.8288 10.9667L18.7298 10.8016L26.524 5.2532L26.3588 5L18.5756 10.5484L16.7152 11.8695L6.55407 19.1132L6.76323 19.4435L5.22201 20.5664L5.33209 20.7315L2.54688 22.7681L2.71201 23.0213L5.73942 20.8306L5.7174 20.8196Z" fill="white" fill-opacity="0.7"/>
<path d="M11.3203 30.9725L11.4854 31.2147L25.5436 20.9766L25.3785 20.7344L11.3203 30.9725Z" fill="white" fill-opacity="0.7"/>
<path d="M12.5078 31.7608L12.6729 32.003L24.5074 23.3391L24.3422 23.0859L12.5078 31.7608Z" fill="white" fill-opacity="0.7"/>
<path d="M16.7031 30.3293L16.8683 30.5715L22.0644 26.7734L21.8993 26.5312L16.7031 30.3293Z" fill="white" fill-opacity="0.7"/>
<path d="M39.6402 18.0184V19.5392H32.9766V18.3502L37.2899 11.659H33.2254V10.1659H39.4743V11.3825L35.2162 18.0184H39.6402ZM41.5756 13.9539L41.2991 12.9032C43.4282 11.9631 46.3314 11.8525 46.3314 14.8387V19.5115H44.7277V18.6544C44.2024 19.2627 43.4282 19.6221 42.5987 19.6221C41.6309 19.6498 40.8567 18.8756 40.8291 17.9355C40.8291 17.8802 40.8291 17.7972 40.8291 17.7419C40.8291 16.1935 42.2945 15.1152 44.7001 15.2258V14.8111C44.7277 13.1521 43.0687 13.3456 41.5756 13.9539ZM42.3498 17.5207C42.3498 18.1014 42.7922 18.3502 43.3176 18.3502C43.8706 18.3502 44.3683 18.1014 44.7277 17.7143V16.1659C43.124 16 42.3498 16.8571 42.3498 17.5207ZM55.2623 13.9539L54.9858 12.9032C57.1148 11.9631 60.018 11.8525 60.018 14.8387V19.5115H58.4696V18.6544C57.9443 19.2627 57.1701 19.6221 56.3406 19.6221C55.3729 19.6498 54.571 18.8756 54.571 17.9078C54.571 17.8525 54.571 17.7696 54.571 17.7143C54.571 16.1659 56.0365 15.0876 58.442 15.1982V14.8111C58.4696 13.1521 56.783 13.3456 55.2623 13.9539ZM56.0641 17.5207C56.0641 18.1014 56.5065 18.3502 57.0318 18.3502C57.5848 18.3502 58.1102 18.129 58.442 17.7143V16.1659C56.8383 16 56.0641 16.8571 56.0641 17.5207ZM63.5848 17.7419C63.5295 18.0737 63.7784 18.3779 64.1102 18.4332C64.1655 18.4332 64.2208 18.4332 64.2484 18.4332C64.442 18.4332 64.6355 18.4055 64.8567 18.3779V19.5668C64.442 19.6498 64.0272 19.6774 63.6125 19.6774C62.3959 19.6774 62.0088 19.0138 62.0088 17.8802V14.0369H61.1793L61.3729 12.8203H62.0088V11.106L63.6125 10.6912V12.8203H64.9397L64.7461 14.0645H63.6125V17.7419H63.5848ZM67.2899 21.8064H66.3222C66.571 20.8387 66.7369 19.8433 66.8475 18.8479V18.3502H68.0364L67.9812 18.8479C67.8429 19.8433 67.5941 20.8387 67.2899 21.8064ZM74.3959 11.659V19.5392H72.654V11.659H70.1378V10.1659H76.8014V11.659H74.3959ZM78.8475 13.9539L78.571 12.9032C80.7 11.9631 83.6033 11.8525 83.6033 14.8387V19.5115H81.9996V18.6544C81.4742 19.2627 80.7 19.6221 79.8705 19.6221C78.9028 19.6498 78.101 18.8756 78.101 17.9078C78.101 17.8525 78.101 17.7696 78.101 17.7143C78.101 16.1659 79.5664 15.0876 81.9719 15.1982V14.8111C81.9996 13.1521 80.3406 13.3456 78.8475 13.9539ZM79.6217 17.5207C79.6217 18.1014 80.0641 18.3502 80.5894 18.3502C81.1424 18.3502 81.6401 18.1014 81.9996 17.7143V16.1659C80.3682 16 79.6217 16.8571 79.6217 17.5207ZM86.8106 12.5991L87.7507 14.0645L88.2761 15.1152L88.8291 14.0645L89.7415 12.6267H91.3728L89.2438 15.9724L91.4558 19.5115H89.548L88.6355 18.1014L88.0825 17.0507L87.5295 18.1014L86.6447 19.5392H84.8752L87.1148 15.9724L84.9028 12.5991H86.8106ZM96.2392 13.9539L95.9627 12.9032C98.0917 11.9631 100.995 11.8525 100.995 14.8387V19.5115H99.3913V18.6544C98.8659 19.2627 98.0917 19.6221 97.2622 19.6221C96.2945 19.6498 95.4927 18.8756 95.4927 17.9078C95.4927 17.8525 95.4927 17.7696 95.4927 17.7143C95.4927 16.1659 96.9581 15.0876 99.3636 15.1982V14.8111C99.4189 13.1521 97.7599 13.3456 96.2392 13.9539ZM97.041 17.5207C97.041 18.1014 97.4834 18.3502 98.0088 18.3502C98.5618 18.3502 99.0871 18.1014 99.4189 17.7143V16.1659C97.7599 16 97.0134 16.8571 97.041 17.5207ZM102.709 19.5115V12.6267H104.313V13.2627C104.921 12.765 105.668 12.4885 106.442 12.4885C107.769 12.4885 108.433 13.2903 108.433 14.7281V19.5115H106.857V15.2535C106.857 14.4793 106.525 14.0645 105.806 14.0645C105.253 14.1198 104.755 14.341 104.341 14.7005V19.5115H102.709ZM112.497 19.6221C110.755 19.6221 109.953 18.1014 109.953 16.0277C109.953 13.9539 110.838 12.4332 112.58 12.4332C113.244 12.4332 113.852 12.7097 114.294 13.2074V10.083H115.815V19.5115H114.267V18.7926C113.824 19.318 113.161 19.5945 112.497 19.6221ZM113.078 13.7604C112.138 13.7604 111.612 14.5622 111.612 16C111.612 17.4378 112.165 18.2396 113.078 18.2396C113.52 18.2396 113.963 18.0737 114.294 17.7696V14.2028C113.963 13.9539 113.52 13.788 113.078 13.7604ZM124.47 19.6774C121.594 19.6774 120.405 17.7143 120.405 14.8387C120.405 11.9631 121.594 10 124.47 10C125.52 10 126.543 10.2212 127.483 10.6912V12.0737C126.571 11.7143 125.603 11.5208 124.635 11.4655C122.977 11.4655 122.119 12.5991 122.119 14.8111C122.119 17.023 123.004 18.129 124.635 18.129C125.603 18.1014 126.571 17.9078 127.483 17.576V18.9585C126.571 19.4286 125.52 19.6774 124.47 19.6774ZM134.949 12.5991V19.5115H133.345V18.8479C132.765 19.3733 131.99 19.6498 131.216 19.6498C129.889 19.6498 129.253 18.8479 129.253 17.4101V12.5991H130.857V16.8572C130.857 17.6037 131.188 18.0461 131.907 18.0461C132.46 17.9908 132.958 17.7696 133.373 17.4101V12.5991H134.949ZM136.414 19.1797V17.9078C137.133 18.2673 137.907 18.4608 138.709 18.4885C139.705 18.4885 139.953 17.9908 139.953 17.659C139.953 17.106 139.318 16.9124 138.599 16.6083C137.686 16.2765 136.553 15.8341 136.553 14.4793C136.553 13.1244 137.548 12.212 139.428 12.212C140.202 12.212 140.976 12.4055 141.668 12.765V14.0092C141.115 13.6774 140.479 13.4839 139.843 13.4562C138.792 13.4562 138.377 13.9539 138.377 14.3687C138.377 14.7834 139.069 15.1705 139.871 15.4194C140.672 15.6682 141.834 16.2212 141.834 17.4654C141.834 18.9032 140.672 19.7327 139.069 19.7327C138.129 19.7327 137.244 19.5392 136.414 19.1797ZM145.069 17.7696C145.013 18.1014 145.262 18.4055 145.594 18.4608C145.649 18.4608 145.705 18.4608 145.732 18.4608C145.926 18.4608 146.119 18.4332 146.313 18.4055V19.5945C145.898 19.6774 145.483 19.7051 145.069 19.7051C143.852 19.7051 143.465 19.0415 143.465 17.9078V14.0092H142.608L142.829 12.765H143.437V11.0783L145.041 10.6636V12.7926H146.368L146.147 14.0369H145.013L145.069 17.7696ZM147.474 16C147.474 13.9539 148.442 12.4055 150.571 12.4055C152.672 12.4055 153.64 13.9539 153.64 16C153.64 18.0461 152.672 19.5945 150.571 19.5945C148.442 19.5945 147.474 18.0461 147.474 16ZM148.94 16C148.94 17.3272 149.437 18.4055 150.543 18.4055C151.649 18.4055 152.119 17.3548 152.119 16C152.119 14.6452 151.649 13.5945 150.543 13.5945C149.437 13.5945 148.94 14.6728 148.94 16ZM164.949 14.7005V19.5115H163.373V15.2535C163.373 14.4793 163.041 14.0645 162.322 14.0645C161.769 14.1198 161.271 14.341 160.884 14.7005C160.884 14.894 160.884 15.0599 160.884 15.2535V19.5115H159.308V15.2535C159.308 14.4793 158.976 14.0645 158.258 14.0645C157.732 14.0922 157.235 14.341 156.847 14.7005V19.5115H155.244V12.6267H156.847V13.5392C157.373 12.8756 158.147 12.4885 158.976 12.4885C159.751 12.4055 160.497 12.8756 160.746 13.6221C161.327 12.9309 162.156 12.5161 163.041 12.4885C164.285 12.4608 164.949 13.2627 164.949 14.7005ZM166.47 19.1797V17.9078C167.188 18.2673 167.963 18.4608 168.764 18.4885C169.76 18.4885 170.009 17.9908 170.009 17.659C170.009 17.106 169.373 16.9124 168.654 16.6083C167.741 16.2765 166.608 15.8341 166.608 14.4793C166.608 13.1244 167.603 12.212 169.456 12.212C170.23 12.212 171.004 12.4055 171.695 12.765V14.0092C171.142 13.6774 170.506 13.4839 169.87 13.4562C168.82 13.4562 168.405 13.9539 168.405 14.3687C168.405 14.7834 169.096 15.1705 169.898 15.4194C170.672 15.6959 171.834 16.2212 171.834 17.4654C171.834 18.9032 170.672 19.7327 169.069 19.7327C168.184 19.7327 167.299 19.5392 166.47 19.1797ZM178.221 17.2995L177.529 19.5668H175.843L179.188 10.1106H180.626L183.861 19.5668H182.119L181.4 17.2995H178.221ZM178.525 15.9447H181.041L179.769 11.9908L178.525 15.9447ZM190.829 12.6544V19.5668H189.253V18.9032C188.672 19.4286 187.898 19.7051 187.124 19.7051C185.797 19.7051 185.161 18.9032 185.161 17.4654V12.5991H186.737V16.8572C186.737 17.6037 187.069 18.0461 187.788 18.0461C188.341 17.9908 188.838 17.7696 189.253 17.4101V12.5991L190.829 12.6544ZM194.423 17.7419C194.368 18.0737 194.617 18.3779 194.949 18.4332C195.004 18.4332 195.059 18.4332 195.087 18.4332C195.281 18.4332 195.474 18.4055 195.668 18.3779V19.5668C195.253 19.6498 194.838 19.6774 194.423 19.6774C193.207 19.6774 192.82 19.0138 192.82 17.8802V14.0369H191.963L192.184 12.7926H192.82V11.106L194.423 10.6912V12.8203H195.751L195.529 14.0645H194.396V17.7419H194.423ZM202.691 14.7281V19.5115H201.087V15.2535C201.087 14.4793 200.755 14.0922 200.119 14.0922C199.539 14.1198 198.986 14.341 198.543 14.7005V19.5115H196.94V10.1659H198.543V13.235C199.096 12.765 199.815 12.4885 200.534 12.4608C201.64 12.4055 202.608 13.2627 202.663 14.3687C202.663 14.4793 202.663 14.6175 202.635 14.7281H202.691ZM204.184 16C204.184 13.9539 205.152 12.4055 207.253 12.4055C209.354 12.4055 210.35 13.9816 210.35 16C210.35 18.0184 209.382 19.5945 207.281 19.5945C205.179 19.5945 204.184 18.0461 204.184 16ZM205.649 16C205.649 17.3272 206.147 18.4055 207.253 18.4055C208.359 18.4055 208.829 17.3548 208.829 16C208.829 14.6452 208.331 13.5945 207.253 13.5945C206.175 13.5945 205.649 14.6728 205.649 16ZM211.926 19.4839V12.6267H213.557V13.9539C213.999 13.1244 214.857 12.5991 215.797 12.6267V13.8986C214.857 13.871 213.999 14.3687 213.557 15.1982V19.5115H211.981L211.926 19.4839ZM216.847 11.106C216.875 10.6359 217.262 10.3042 217.705 10.3042C218.147 10.3042 218.506 10.7189 218.506 11.1613C218.479 11.6037 218.119 11.9631 217.677 11.9631C217.207 11.9631 216.847 11.6037 216.847 11.106ZM218.479 19.4839H216.903V12.8203H218.479V19.4839ZM222.488 17.7143C222.433 18.0461 222.682 18.3502 223.013 18.4055C223.069 18.4055 223.124 18.4055 223.152 18.4055C223.345 18.4055 223.539 18.3779 223.732 18.3502V19.5392C223.317 19.6221 222.903 19.6498 222.488 19.6498C221.271 19.6498 220.884 18.9862 220.884 17.8525V14.0092H220.055L220.276 12.765H220.912V11.0783L222.516 10.6636V12.7926H223.843L223.622 14.0369H222.488V17.7143ZM231.225 12.5991L228.046 22H226.525L227.188 20.0092L224.562 12.5714H226.359L227.907 17.8802L229.511 12.5714L231.225 12.5991ZM53.548 19.5115H51.6954L49.5664 16.3318V19.5115H48.018V10.1659H49.5941V15.4747L51.5572 12.4608H53.3544L51.0319 15.8064L53.548 19.5115Z" fill="white" fill-opacity="0.7"/>
</svg>
