<svg width="80" height="30" viewBox="0 0 80 30" fill="none" xmlns="http://www.w3.org/2000/svg">
<path fill-rule="evenodd" clip-rule="evenodd" d="M8.40957 15C7.14894 14.1064 5.63298 13.6117 4.06915 13.6117C2.50532 13.6117 2.68085 14.234 2.68085 15C2.68085 15.766 3.30319 16.3883 4.06915 16.3883C5.63298 16.3883 7.14894 15.8936 8.40957 15ZM15 21.5904C14.1064 22.8511 13.6117 24.367 13.6117 25.9309C13.6117 27.4947 14.234 27.3192 15 27.3192C15.766 27.3192 16.3883 26.6968 16.3883 25.9309C16.3883 24.367 15.8936 22.8511 15 21.5904ZM21.5904 15C22.8511 15.8936 24.367 16.3883 25.9309 16.3883C27.4947 16.3883 27.3192 15.766 27.3192 15C27.3192 14.234 26.6968 13.6117 25.9309 13.6117C24.367 13.6117 22.8511 14.1064 21.5904 15ZM15 12.3511L12.3511 15L15 17.6489L17.6489 15L15 12.3511ZM16.8511 10.4043C18.2872 8.61702 19.0691 6.38298 19.0691 4.06915C19.0691 1.75532 17.25 0 15 0C12.75 0 10.9309 1.81915 10.9309 4.06915C10.9309 6.31915 11.7287 8.61702 13.1489 10.4043L10.4043 13.1489C8.61702 11.7128 6.38298 10.9309 4.06915 10.9309C1.75532 10.9309 0 12.75 0 15C0 17.25 1.81915 19.0691 4.06915 19.0691C6.31915 19.0691 8.61702 18.2713 10.4043 16.8511L13.1489 19.5957C11.7128 21.383 10.9309 23.617 10.9309 25.9309C10.9309 28.2447 12.75 30 15 30C17.25 30 19.0691 28.1809 19.0691 25.9309C19.0691 23.6809 18.2713 21.383 16.8511 19.5957L19.5957 16.8511C21.383 18.2872 23.617 19.0691 25.9309 19.0691C28.2447 19.0691 30 17.25 30 15C30 12.75 28.1809 10.9309 25.9309 10.9309C23.6809 10.9309 21.383 11.7287 19.5957 13.1489L16.8511 10.4043ZM15 2.68085C14.234 2.68085 13.6117 3.30319 13.6117 4.06915C13.6117 5.63298 14.1064 7.14894 15 8.40958C15.8936 7.14894 16.3883 5.63298 16.3883 4.06915C16.3883 2.50532 15.766 2.68085 15 2.68085Z" fill="white" fill-opacity="0.7"/>
<path d="M39.6364 10.5771V6.875H53.2482C54.1737 6.875 54.1737 7.70479 53.8545 8.16755L46.2588 20.0878H53.8545V23.7899H40.3067C39.3811 23.7899 39.3811 22.9601 39.7003 22.4973L47.3279 10.5771H39.6364Z" fill="white" fill-opacity="0.7"/>
<path d="M60.3725 23.77H56.08V6.85505H60.3725V23.77ZM55.6172 2.91357C55.6172 1.50931 56.7502 0.3125 58.2182 0.3125C59.6863 0.3125 60.8193 1.4774 60.8193 2.91357C60.8193 4.34974 59.6225 5.51463 58.2182 5.51463C56.814 5.51463 55.6172 4.34974 55.6172 2.91357Z" fill="white" fill-opacity="0.7"/>
<path d="M70.7282 19.628C73.0899 19.628 75.0208 17.6971 75.0208 15.3035C75.0208 12.9099 73.0899 11.0429 70.7282 11.0429C68.3665 11.0429 66.4357 12.9418 66.4357 15.3035C66.4357 17.6652 68.3346 19.628 70.7282 19.628ZM74.7814 7.83544V0.734375H79.074V15.128C79.074 20.3301 75.675 24.0482 70.7601 24.0482C65.8452 24.0482 62.3984 20.3461 62.3984 15.4471C62.3984 10.5482 65.8612 6.65459 70.7601 6.65459C75.6591 6.65459 73.6484 7.18118 74.7814 7.8514V7.83544Z" fill="white" fill-opacity="0.7"/>
</svg>
