<svg width="82" height="24" viewBox="0 0 81.7961 23.952" fill="none" xmlns="http://www.w3.org/2000/svg">
  <g>
    <g>
      <path d="M0.000114441 6.07511H6.03115V23.9519H0.000114441V6.15361C0.000114441 6.12718 0.000114441 6.10154 0.000114441 6.07511Z" fill="var(--logo-color, currentColor)"/>
      <path d="M27.9164 23.952H21.1412L12.0286 6.11759C12.015 6.09115 11.9877 6.07513 11.9581 6.07513H6.03197V0.000836856C6.05841 3.58149e-05 6.08484 3.58157e-05 6.11128 3.58157e-05H11.9581C14.2643 3.58157e-05 16.3494 1.31775 17.3996 3.37162L27.9164 23.952Z" fill="var(--logo-color, currentColor)"/>
    </g>
    <path d="M71.2961 3.3716C70.2459 1.31773 68.1608 1.60418e-05 65.8546 1.60418e-05H60.0086C59.9822 1.60418e-05 59.9549 1.60411e-05 59.9285 0.000817082L59.9285 6.07512H65.8546C65.8842 6.07512 65.9115 6.09114 65.9251 6.11757L69.1389 12.4009L59.9285 16.7939V6.07512H53.8975C53.8967 6.10155 53.8967 6.12799 53.8967 6.15442L53.8862 23.952H59.9181L71.9161 17.8312L75.0209 23.952H81.7961L71.2961 3.3716Z" fill="var(--logo-color, currentColor)"/>
    <g>
      <path d="M37.0979 17.9682H43.0232L43.016 23.952C42.9896 23.952 42.9623 23.952 42.9359 23.952H37.0907C36.7607 23.952 36.4371 23.9263 36.1182 23.8751C34.2094 23.5715 32.556 22.4316 31.6556 20.6717L21.0851 0.000839233H27.8595L37.0266 17.9257C37.0402 17.9522 37.0675 17.9682 37.0979 17.9682Z" fill="var(--logo-color, currentColor)"/>
      <path d="M49.0561 0.000823975V17.8897C49.0561 17.9161 49.0561 17.9425 49.0553 17.9682H43.0234V0.000823975H49.0561Z" fill="var(--logo-color, currentColor)"/>
    </g>
  </g>
</svg>
