<svg preserveAspectRatio="none" width="100%" height="100%" overflow="visible" style="display: block;" viewBox="0 0 25.7775 32.0002" fill="none" xmlns="http://www.w3.org/2000/svg">
<g id="Group">
<path id="Vector" d="M12.6124 0.242353L12.4473 0.000162125L0.0514131 8.8402L0.205535 9.0934L12.6124 0.242353Z" fill="var(--fill-0, white)"/>
<path id="Vector_2" d="M10.1575 0.390103L9.99232 0.136899L0.0514131 7.22654L0.216545 7.46874L10.1575 0.390103Z" fill="var(--fill-0, white)"/>
<path id="Vector_3" d="M7.13925 0.928501L6.97411 0.675301L0.038594 5.62924L0.203725 5.87143L7.13925 0.928501Z" fill="var(--fill-0, white)"/>
<path id="Vector_4" d="M3.10084 2.18477L2.93571 1.93157L0.0514131 4.02324L0.216545 4.26543L3.10084 2.18477Z" fill="var(--fill-0, white)"/>
<path id="Vector_5" d="M18.8309 11.4049L16.7943 12.8361L6.47909 20.2009L6.68826 20.5202L5.29015 21.544L5.40024 21.7091L2.40585 23.8999L2.57098 24.1421L5.87361 21.7312L6.9855 20.9495L17.4879 13.4415L17.2787 13.1113L19.1282 11.7902L19.0291 11.6251L25.7775 6.81427L25.6233 6.57208L18.8309 11.4049Z" fill="var(--fill-0, white)"/>
<path id="Vector_6" d="M19.3996 12.5993L17.2419 14.1296L7.23491 21.2742L7.44408 21.5935L5.93588 22.6944L6.04597 22.8485L3.10663 24.9952L3.27176 25.2374L6.2111 23.0797L7.70829 21.9898L17.7483 14.8231L17.5391 14.4928L19.6858 12.9957L19.5757 12.8305L25.7517 8.43802L25.5865 8.19583L19.3996 12.5993Z" fill="var(--fill-0, white)"/>
<path id="Vector_7" d="M19.9558 13.8146L18.1724 15.0806L7.94525 22.3684L8.15442 22.6987L6.77832 23.7005L6.88841 23.8546L3.92705 26.0233L4.09218 26.2655L7.05354 24.0968L8.42964 23.084L18.6568 15.7962L18.4476 15.4659L20.231 14.1999L20.132 14.0348L25.7354 10.0276L25.5703 9.7854L19.9558 13.8146Z" fill="var(--fill-0, white)"/>
<path id="Vector_8" d="M20.7943 14.8109L19.066 16.0659L8.71772 23.3977L8.9379 23.728L7.20952 25.016L7.31961 25.1811L4.87566 26.9755L5.04079 27.2177L7.83702 25.1701L9.71952 23.805L19.6274 16.7374L19.4182 16.4071L21.0916 15.2072L20.9815 15.042L25.7373 11.6513L25.5721 11.4091L20.7943 14.8109Z" fill="var(--fill-0, white)"/>
<path id="Vector_9" d="M21.8249 15.6775L19.8874 17.0536L10.9263 23.4386L11.1354 23.7579L9.01073 25.3101L9.12082 25.4753L5.80718 27.8972L5.97231 28.1394L9.57218 25.5083L11.3886 24.1762L20.4048 17.7471L20.1956 17.4168L22.0781 16.0738L21.9791 15.9087L25.7 13.2776L25.5349 13.0244L21.8249 15.6775Z" fill="var(--fill-0, white)"/>
<path id="Vector_10" d="M24.1302 15.7513L24.0751 15.6742L21.8073 17.2925L13.1434 23.4794L13.3636 23.8097L11.0297 25.5381L11.1288 25.7032L7.03354 28.6976L7.19867 28.9398L11.6022 25.7032L13.859 24.0519L22.2807 18.0191L22.0715 17.6998L24.3393 16.0816L24.2072 15.8834L24.2843 16.0045L25.6934 14.9587L25.5283 14.7165L24.1302 15.7513Z" fill="var(--fill-0, white)"/>
<path id="Vector_11" d="M24.1726 17.1966L22.8956 18.0993L17.7986 21.7432L18.0077 22.0735L15.839 23.6697L15.9491 23.8349L8.1659 29.5264L8.33103 29.7686L16.4115 23.8569L18.305 22.4808L23.358 18.8809L23.1488 18.5507L24.4258 17.648L24.3268 17.4828L25.6588 16.5251L25.4937 16.2719L24.1726 17.1966Z" fill="var(--fill-0, white)"/>
<path id="Vector_12" d="M24.4228 18.6819V18.6378L23.2229 19.4965L19.1827 22.3808L19.4028 22.7111L17.5093 24.0872L17.6194 24.2523L9.41789 30.2521L9.58302 30.4943L18.1699 24.1973L19.8212 22.9863L23.6742 20.2121L23.4651 19.8928L24.665 19.0562L24.5329 18.858L25.4687 18.1975L25.3696 18.0323L24.4228 18.6819Z" fill="var(--fill-0, white)"/>
<path id="Vector_13" d="M1.20009 10.6994L2.35601 9.86271L6.71548 6.75824L6.50631 6.42797L8.42184 5.06289L8.32276 4.90876L14.7739 0.285083L14.6198 0.0428924L8.1246 4.65556L6.20908 6.02065L1.5854 9.31227L1.79456 9.64253L0.693688 10.4352L0.803775 10.6003L0.000136762 11.1728L0.165268 11.4149L1.20009 10.6994Z" fill="var(--fill-0, white)"/>
<path id="Vector_14" d="M1.91008 11.7998L3.066 10.9631L8.44929 7.12108L8.24012 6.79082L9.72631 5.72297L9.62723 5.56885L16.6288 0.515827L16.4637 0.273636L9.45109 5.33767L7.9649 6.40551L2.22934 10.4898L2.4385 10.82L1.44771 11.5466L1.5468 11.7117L0.038594 12.8126L0.203725 13.0548L1.91008 11.7998Z" fill="var(--fill-0, white)"/>
<path id="Vector_15" d="M2.15785 13.2266L3.66605 12.1257L9.53372 7.94239L9.32456 7.61213L10.8988 6.48923L10.7997 6.33511L18.3738 0.885774L18.2086 0.63257L10.6346 6.08191L8.98328 7.23783L2.8404 11.6303L3.04956 11.9606L1.7175 12.9294L1.82759 13.0945L0.000136762 14.4486L0.165268 14.6908L2.15785 13.2266Z" fill="var(--fill-0, white)"/>
<path id="Vector_16" d="M2.77058 14.3841L4.41088 13.1841L10.6529 8.7366L10.4437 8.40634L12.106 7.21739L11.9959 7.04125L20.0764 1.32771L19.9112 1.08551L11.6877 6.86511L10.1244 7.98801L3.4311 12.7548L3.65128 13.0851L2.12106 14.208L2.23115 14.3731L0.0514131 16.0354L0.216545 16.2886L2.77058 14.3841Z" fill="var(--fill-0, white)"/>
<path id="Vector_17" d="M3.51345 15.4582L4.5813 14.6875L11.77 9.55747L11.5498 9.24922L13.4103 7.92817L13.3112 7.76304L21.4687 1.92839L21.3036 1.67519L13.1461 7.50983L11.2856 8.8419L4.09691 13.939L4.30608 14.2692L2.94099 15.271L3.05108 15.4361L0.166785 17.5388L0.331916 17.792L3.52446 15.4802L3.51345 15.4582Z" fill="var(--fill-0, white)"/>
<path id="Vector_18" d="M4.22184 16.5434L5.43281 15.6627L12.8637 10.3565L12.6546 10.0262L14.7132 8.56203L14.6141 8.4079L22.9918 2.43015L22.8377 2.18795L14.46 8.1547L12.2803 9.71795L4.71724 15.1012L4.9264 15.4315L3.62737 16.3782L3.72645 16.5434L0.401801 18.9763L0.566933 19.2185L4.22184 16.5434Z" fill="var(--fill-0, white)"/>
<path id="Vector_19" d="M4.43093 17.9941L6.1593 16.7281L14.9333 10.5081L14.7131 10.1778L16.6507 8.79073L16.5516 8.63661L24.3348 3.08819L24.1696 2.846L16.3864 8.39442L14.3828 9.81455L5.28961 16.2657L5.49878 16.5959L3.88049 17.7849L3.99058 17.95L0.765009 20.3059L0.93014 20.5591L4.43093 17.9941Z" fill="var(--fill-0, white)"/>
<path id="Vector_20" d="M4.6747 19.4288L6.21593 18.3059L15.7165 11.5355L15.5073 11.2163L17.4559 9.80714L17.3568 9.65302L25.5913 3.77434L25.4262 3.52114L17.1917 9.39982L15.2431 10.7869L5.51137 17.7224L5.72053 18.0527L4.06922 19.2637L4.17931 19.4288L1.21795 21.5865L1.38308 21.8287L4.6747 19.4288Z" fill="var(--fill-0, white)"/>
<path id="Vector_21" d="M4.94824 20.8192L6.25828 19.8614L16.4194 12.6177L16.2102 12.2874L18.0597 10.9664L17.9606 10.8012L25.7548 5.25281L25.5897 4.99961L17.8065 10.548L15.946 11.8691L5.78491 19.1128L5.99407 19.4431L4.45285 20.566L4.56294 20.7311L1.77772 22.7677L1.94285 23.0209L4.97026 20.8302L4.94824 20.8192Z" fill="var(--fill-0, white)"/>
<path id="Vector_22" d="M10.5502 30.971L10.7154 31.2132L24.7736 20.9751L24.6084 20.7329L10.5502 30.971Z" fill="var(--fill-0, white)"/>
<path id="Vector_23" d="M11.7381 31.758L11.9033 32.0002L23.7377 23.3363L23.5726 23.0831L11.7381 31.758Z" fill="var(--fill-0, white)"/>
<path id="Vector_24" d="M15.9343 30.3252L16.0994 30.5673L21.2955 26.7693L21.1304 26.5271L15.9343 30.3252Z" fill="var(--fill-0, white)"/>
</g>
</svg>
