<svg preserveAspectRatio="none" width="100%" height="100%" overflow="visible" style="display: block;" viewBox="0 0 18.75 18.75" fill="none" xmlns="http://www.w3.org/2000/svg">
<g id="Group">
<path id="Vector" d="M0.625 9.375C0.625 11.6956 1.54687 13.9212 3.18782 15.5622C4.82876 17.2031 7.05436 18.125 9.375 18.125C11.6956 18.125 13.9212 17.2031 15.5622 15.5622C17.2031 13.9212 18.125 11.6956 18.125 9.375C18.125 7.05436 17.2031 4.82876 15.5622 3.18782C13.9212 1.54687 11.6956 0.625 9.375 0.625C7.05436 0.625 4.82876 1.54687 3.18782 3.18782C1.54687 4.82876 0.625 7.05436 0.625 9.375Z" stroke="var(--stroke-0, #2F7BFF)" stroke-width="1.25" stroke-linejoin="round"/>
<path id="Vector_2" d="M5.625 9.375C5.625 7.05436 6.02009 4.82876 6.72335 3.18782C7.42661 1.54687 8.38044 0.625 9.375 0.625C10.3696 0.625 11.3234 1.54687 12.0266 3.18782C12.7299 4.82876 13.125 7.05436 13.125 9.375C13.125 11.6956 12.7299 13.9212 12.0266 15.5622C11.3234 17.2031 10.3696 18.125 9.375 18.125C8.38044 18.125 7.42661 17.2031 6.72335 15.5622C6.02009 13.9212 5.625 11.6956 5.625 9.375Z" stroke="var(--stroke-0, #2F7BFF)" stroke-width="1.25" stroke-linejoin="round"/>
<path id="Vector_3" d="M1.25 12.2917H17.5M1.25 6.45833H17.5" stroke="var(--stroke-0, #2F7BFF)" stroke-width="1.25" stroke-linecap="round"/>
</g>
</svg>
