<svg preserveAspectRatio="none" width="100%" height="100%" overflow="visible" style="display: block;" viewBox="0 0 16.125 16.125" fill="none" xmlns="http://www.w3.org/2000/svg">
<path id="Vector" d="M15.5625 8.0625C15.5625 9.04741 15.3685 10.0227 14.9916 10.9326C14.6147 11.8426 14.0622 12.6694 13.3658 13.3658C12.6694 14.0622 11.8426 14.6147 10.9326 14.9916C10.0227 15.3685 9.04741 15.5625 8.0625 15.5625C7.07759 15.5625 6.10232 15.3685 5.19237 14.9916C4.28243 14.6147 3.45564 14.0622 2.7592 13.3658C2.06276 12.6694 1.51031 11.8426 1.1334 10.9326C0.756493 10.0227 0.5625 9.04741 0.5625 8.0625C0.5625 7.07759 0.756493 6.10232 1.1334 5.19237C1.51031 4.28243 2.06276 3.45564 2.7592 2.7592C3.45564 2.06276 4.28243 1.51031 5.19238 1.1334C6.10232 0.756493 7.07759 0.5625 8.0625 0.5625C9.04742 0.5625 10.0227 0.756493 10.9326 1.1334C11.8426 1.51031 12.6694 2.06276 13.3658 2.7592C14.0622 3.45564 14.6147 4.28243 14.9916 5.19238C15.3685 6.10232 15.5625 7.07759 15.5625 8.0625L15.5625 8.0625Z" stroke="var(--stroke-0, #0C4EFF)" stroke-width="1.125"/>
</svg>
