<svg preserveAspectRatio="none" width="100%" height="100%" overflow="visible" style="display: block;" viewBox="0 0 9.99459 15.6014" fill="none" xmlns="http://www.w3.org/2000/svg">
<g id="Group">
<path id="Vector" d="M8.93824 1.95016H8.69447C8.20693 1.05634 7.06933 0 4.95666 0C2.11268 0 0 1.8689 0 5.52545C0 9.182 2.11268 11.0509 4.95666 11.0509C7.06933 11.0509 8.20693 10.0758 8.69447 9.10075H8.93824V10.4821C8.93824 13.1636 7.8819 14.6262 5.20043 14.6262C2.51896 14.6262 1.46262 13.2448 1.30011 11.8635H0.325028V12.1885C0.487541 13.8136 1.8689 15.6013 5.20043 15.6013C8.61321 15.6013 9.99457 13.7324 9.99457 10.6446V0.325028H8.93824V1.95016ZM4.95666 10.1571C2.60022 10.1571 1.05634 8.45069 1.05634 5.52545C1.05634 2.60021 2.68147 0.893825 4.95666 0.893825C7.3131 0.893825 8.93824 2.60021 8.93824 5.52545C8.93824 8.53195 7.3131 10.1571 4.95666 10.1571Z" fill="var(--fill-0, white)"/>
</g>
</svg>
