<svg preserveAspectRatio="none" width="100%" height="100%" overflow="visible" style="display: block;" viewBox="0 0 196.229 190" fill="none" xmlns="http://www.w3.org/2000/svg">
<g id="Group 1000011099">
<foreignObject x="28.0333" y="-24.9179" width="137.049" height="137.049"><div xmlns="http://www.w3.org/1999/xhtml" style="backdrop-filter:blur(12.46px);clip-path:url(#bgblur_0_21479_1286062_clip_path);height:100%;width:100%"></div></foreignObject><g id="Ellipse 2476" filter="url(#filter0_i_21479_1286062)" data-figma-bg-blur-radius="24.9179">
<circle cx="96.5575" cy="43.6063" r="43.6063" fill="var(--fill-0, #0C4EFF)" fill-opacity="0.25"/>
</g>
<foreignObject x="-24.9179" y="80.9844" width="246.064" height="133.934"><div xmlns="http://www.w3.org/1999/xhtml" style="backdrop-filter:blur(12.46px);clip-path:url(#bgblur_1_21479_1286062_clip_path);height:100%;width:100%"></div></foreignObject><g id="Rectangle 3065" filter="url(#filter1_i_21479_1286062)" data-figma-bg-blur-radius="24.9179">
<path d="M0 177.541C0 137.976 32.0739 105.902 71.639 105.902H124.59C164.155 105.902 196.229 137.976 196.229 177.541C196.229 184.422 190.651 190 183.77 190H12.459C5.57806 190 0 184.422 0 177.541Z" fill="var(--fill-0, #0C4EFF)" fill-opacity="0.25"/>
</g>
</g>
<defs>
<filter id="filter0_i_21479_1286062" x="28.0333" y="-24.9179" width="137.049" height="137.049" filterUnits="userSpaceOnUse" color-interpolation-filters="sRGB">
<feFlood flood-opacity="0" result="BackgroundImageFix"/>
<feBlend mode="normal" in="SourceGraphic" in2="BackgroundImageFix" result="shape"/>
<feColorMatrix in="SourceAlpha" type="matrix" values="0 0 0 0 0 0 0 0 0 0 0 0 0 0 0 0 0 0 127 0" result="hardAlpha"/>
<feOffset/>
<feGaussianBlur stdDeviation="31.1474"/>
<feComposite in2="hardAlpha" operator="arithmetic" k2="-1" k3="1"/>
<feColorMatrix type="matrix" values="0 0 0 0 0.711107 0 0 0 0 0.789571 0 0 0 0 1 0 0 0 1 0"/>
<feBlend mode="normal" in2="shape" result="effect1_innerShadow_21479_1286062"/>
</filter>
<clipPath id="bgblur_0_21479_1286062_clip_path" transform="translate(-28.0333 24.9179)"><circle cx="96.5575" cy="43.6063" r="43.6063"/>
</clipPath><filter id="filter1_i_21479_1286062" x="-24.9179" y="80.9844" width="246.064" height="133.934" filterUnits="userSpaceOnUse" color-interpolation-filters="sRGB">
<feFlood flood-opacity="0" result="BackgroundImageFix"/>
<feBlend mode="normal" in="SourceGraphic" in2="BackgroundImageFix" result="shape"/>
<feColorMatrix in="SourceAlpha" type="matrix" values="0 0 0 0 0 0 0 0 0 0 0 0 0 0 0 0 0 0 127 0" result="hardAlpha"/>
<feOffset/>
<feGaussianBlur stdDeviation="31.1474"/>
<feComposite in2="hardAlpha" operator="arithmetic" k2="-1" k3="1"/>
<feColorMatrix type="matrix" values="0 0 0 0 0.711107 0 0 0 0 0.789571 0 0 0 0 1 0 0 0 1 0"/>
<feBlend mode="normal" in2="shape" result="effect1_innerShadow_21479_1286062"/>
</filter>
<clipPath id="bgblur_1_21479_1286062_clip_path" transform="translate(24.9179 -80.9844)"><path d="M0 177.541C0 137.976 32.0739 105.902 71.639 105.902H124.59C164.155 105.902 196.229 137.976 196.229 177.541C196.229 184.422 190.651 190 183.77 190H12.459C5.57806 190 0 184.422 0 177.541Z"/>
</clipPath></defs>
</svg>
