<svg preserveAspectRatio="none" width="100%" height="100%" overflow="visible" style="display: block;" viewBox="0 0 10.4821 11.2136" fill="none" xmlns="http://www.w3.org/2000/svg">
<g id="Group">
<path id="Vector" d="M9.75081 10.076C9.18202 10.076 8.85698 9.75096 8.85698 9.18216V3.65671C8.85698 1.13775 7.31311 0.000160814 4.79415 0.000160814C2.2752 0.000160814 0.650066 1.13775 0.487553 2.9254V3.25043H1.46263C1.54389 1.62529 2.84399 0.893984 4.79415 0.893984C6.74431 0.893984 7.80065 1.70655 7.80065 3.41294C7.80065 4.38802 7.23185 4.63179 6.25677 4.71305L3.73782 4.95682C1.62515 5.11933 1.42147e-05 6.01315 1.42147e-05 8.04457C1.42147e-05 9.91347 1.54389 11.2136 3.81907 11.2136C6.013 11.2136 7.06934 10.3198 7.63813 9.18216H7.88191C7.88191 10.401 8.53196 10.9698 9.83207 10.9698H10.4821V10.076H9.75081ZM7.88191 6.01315C7.88191 9.10091 6.013 10.3198 3.90033 10.3198C2.2752 10.3198 1.05635 9.42593 1.05635 8.04457C1.05635 6.66321 2.03143 6.09441 3.90033 5.85064L5.85049 5.68813C6.98808 5.60687 7.31311 5.44436 7.63813 5.20059H7.88191V6.01315Z" fill="var(--fill-0, white)"/>
</g>
</svg>
