<svg preserveAspectRatio="none" width="100%" height="100%" overflow="visible" style="display: block;" viewBox="0 0 12.4667 12.4667" fill="none" xmlns="http://www.w3.org/2000/svg">
<path id="Icon" d="M4.58433 4.53333C4.71756 4.15461 4.98052 3.83526 5.32664 3.63184C5.67276 3.42842 6.07971 3.35407 6.4754 3.42194C6.87109 3.48981 7.23 3.69553 7.48854 4.00267C7.74709 4.3098 7.8886 4.69853 7.888 5.1C7.888 6.23333 6.188 6.8 6.188 6.8M6.23333 9.06667H6.239M11.9 6.23333C11.9 9.36295 9.36295 11.9 6.23333 11.9C3.10372 11.9 0.566667 9.36295 0.566667 6.23333C0.566667 3.10372 3.10372 0.566667 6.23333 0.566667C9.36295 0.566667 11.9 3.10372 11.9 6.23333Z" stroke="var(--stroke-0, #989898)" stroke-width="1.13333" stroke-linecap="round" stroke-linejoin="round"/>
</svg>
