<svg preserveAspectRatio="none" width="100%" height="100%" overflow="visible" style="display: block;" viewBox="0 0 198.249 12" fill="none" xmlns="http://www.w3.org/2000/svg">
<g id="Group 1000011103">
<path id="Vector" d="M6.66359 8.01843V9.53917H0V8.35023L4.31336 1.65899H0.248846V0.165909H6.49769V1.38249L2.23963 8.01843H6.66359ZM8.59908 3.95393L8.32258 2.90322C10.4516 1.96313 13.3548 1.85253 13.3548 4.83871V9.51152H11.7511V8.65439C11.2258 9.26268 10.4516 9.62213 9.62212 9.62213C8.65437 9.64978 7.88018 8.87557 7.85253 7.93548C7.85253 7.88018 7.85253 7.79723 7.85253 7.74193C7.85253 6.19354 9.31797 5.11521 11.7235 5.22581V4.81106C11.7511 3.15208 10.0922 3.34563 8.59908 3.95393ZM9.37327 7.52074C9.37327 8.10138 9.81566 8.35023 10.341 8.35023C10.894 8.35023 11.3917 8.10138 11.7511 7.71429V6.16591C10.1475 6.00001 9.37327 6.85714 9.37327 7.52074ZM22.2857 3.95393L22.0092 2.90322C24.1382 1.96313 27.0415 1.85253 27.0415 4.83871V9.51152H25.4931V8.65439C24.9677 9.26268 24.1935 9.62213 23.364 9.62213C22.3963 9.64978 21.5945 8.87558 21.5945 7.90784C21.5945 7.85254 21.5945 7.76959 21.5945 7.71429C21.5945 6.1659 23.0599 5.08757 25.4654 5.19817V4.81106C25.4931 3.15208 23.8064 3.34563 22.2857 3.95393ZM23.0875 7.52074C23.0875 8.10138 23.5299 8.35023 24.0553 8.35023C24.6083 8.35023 25.1336 8.12903 25.4654 7.71429V6.16591C23.8617 6.00001 23.0875 6.85714 23.0875 7.52074ZM30.6083 7.74193C30.553 8.07373 30.8018 8.37788 31.1336 8.43318C31.1889 8.43318 31.2442 8.43318 31.2719 8.43318C31.4654 8.43318 31.659 8.40554 31.8802 8.37789V9.56683C31.4654 9.64977 31.0507 9.67741 30.6359 9.67741C29.4193 9.67741 29.0322 9.01382 29.0322 7.88018V4.03687H28.2027L28.3963 2.82028H29.0322V1.10599L30.6359 0.691244V2.82028H31.9631L31.7696 4.06452H30.6359V7.74193H30.6083ZM34.3133 11.8064H33.3456C33.5945 10.8387 33.7603 9.84331 33.8709 8.84792V8.35023H35.0599L35.0046 8.84792C34.8663 9.84331 34.6175 10.8387 34.3133 11.8064ZM41.4193 1.65899V9.53917H39.6774V1.65899H37.1613V0.165909H43.8249V1.65899H41.4193ZM45.8709 3.95393L45.5944 2.90322C47.7235 1.96313 50.6267 1.85253 50.6267 4.83871V9.51152H49.023V8.65439C48.4977 9.26268 47.7235 9.62213 46.894 9.62213C45.9262 9.64978 45.1244 8.87558 45.1244 7.90784C45.1244 7.85254 45.1244 7.76959 45.1244 7.71429C45.1244 6.1659 46.5898 5.08757 48.9954 5.19817V4.81106C49.023 3.15208 47.364 3.34563 45.8709 3.95393ZM46.6451 7.52074C46.6451 8.10138 47.0875 8.35023 47.6129 8.35023C48.1659 8.35023 48.6636 8.10138 49.023 7.71429V6.16591C47.3917 6.00001 46.6451 6.85714 46.6451 7.52074ZM53.8341 2.59908L54.7742 4.06452L55.2995 5.1152L55.8525 4.06452L56.7649 2.62673H58.3963L56.2672 5.97236L58.4792 9.51152H56.5714L55.659 8.10139L55.106 7.05069L54.553 8.10139L53.6682 9.53917H51.8986L54.1382 5.97236L51.9262 2.59908H53.8341ZM63.2626 3.95393L62.9861 2.90322C65.1152 1.96313 68.0184 1.85253 68.0184 4.83871V9.51152H66.4147V8.65439C65.8894 9.26268 65.1152 9.62213 64.2857 9.62213C63.3179 9.64978 62.5161 8.87558 62.5161 7.90784C62.5161 7.85254 62.5161 7.76959 62.5161 7.71429C62.5161 6.1659 63.9815 5.08757 66.3871 5.19817V4.81106C66.4424 3.15208 64.7834 3.34563 63.2626 3.95393ZM64.0645 7.52074C64.0645 8.10138 64.5069 8.35023 65.0322 8.35023C65.5852 8.35023 66.1106 8.10138 66.4424 7.71429V6.16591C64.7834 6.00001 64.0368 6.85714 64.0645 7.52074ZM69.7327 9.51152V2.62673H71.3364V3.26268C71.9447 2.76499 72.6912 2.48848 73.4654 2.48848C74.7926 2.48848 75.4562 3.29033 75.4562 4.72812V9.51152H73.8801V5.25345C73.8801 4.47926 73.5483 4.06452 72.8295 4.06452C72.2765 4.11982 71.7788 4.34101 71.364 4.70046V9.51152H69.7327ZM79.5207 9.62213C77.7788 9.62213 76.9769 8.10139 76.9769 6.02766C76.9769 3.95393 77.8617 2.43319 79.6036 2.43319C80.2672 2.43319 80.8755 2.70969 81.3179 3.20738V0.0829628H82.8387V9.51152H81.2903V8.79264C80.8479 9.31798 80.1843 9.59448 79.5207 9.62213ZM80.1013 3.76038C79.1612 3.76038 78.6359 4.56221 78.6359 6C78.6359 7.43779 79.1889 8.23964 80.1013 8.23964C80.5437 8.23964 80.9861 8.07374 81.3179 7.76959V4.20277C80.9861 3.95392 80.5437 3.78803 80.1013 3.76038ZM91.493 9.67741C88.6175 9.67741 87.4285 7.71428 87.4285 4.83871C87.4285 1.96313 88.6175 0 91.493 0C92.5437 0 93.5668 0.221198 94.5069 0.691244V2.07373C93.5944 1.71428 92.6267 1.52075 91.6589 1.46545C90 1.46545 89.1428 2.59908 89.1428 4.81106C89.1428 7.02304 90.0276 8.12903 91.6589 8.12903C92.6267 8.10138 93.5944 7.90784 94.5069 7.57604V8.95853C93.5944 9.42857 92.5437 9.67741 91.493 9.67741ZM101.972 2.59908V9.51152H100.369V8.84792C99.788 9.37327 99.0138 9.64977 98.2396 9.64977C96.9124 9.64977 96.2764 8.84793 96.2764 7.41015V2.59908H97.8801V6.85715C97.8801 7.6037 98.2119 8.04609 98.9308 8.04609C99.4838 7.99079 99.9815 7.76959 100.396 7.41015V2.59908H101.972ZM103.438 9.17972V7.90784C104.157 8.26729 104.931 8.46083 105.733 8.48848C106.728 8.48848 106.977 7.99078 106.977 7.65899C106.977 7.10599 106.341 6.91245 105.622 6.6083C104.71 6.2765 103.576 5.8341 103.576 4.47926C103.576 3.12443 104.571 2.21198 106.452 2.21198C107.226 2.21198 108 2.40553 108.691 2.76498V4.00921C108.138 3.67742 107.502 3.48387 106.866 3.45622C105.816 3.45622 105.401 3.95393 105.401 4.36867C105.401 4.78342 106.092 5.17051 106.894 5.41936C107.696 5.66821 108.857 6.22119 108.857 7.46543C108.857 8.90322 107.696 9.73272 106.092 9.73272C105.152 9.73272 104.267 9.53917 103.438 9.17972ZM112.092 7.76959C112.037 8.10139 112.286 8.40554 112.617 8.46083C112.673 8.46083 112.728 8.46083 112.756 8.46083C112.949 8.46083 113.143 8.43318 113.336 8.40553V9.59447C112.922 9.67742 112.507 9.70507 112.092 9.70507C110.876 9.70507 110.488 9.04148 110.488 7.90784V4.00921H109.631L109.852 2.76498H110.461V1.07835L112.064 0.663601V2.79264H113.392L113.17 4.03687H112.037L112.092 7.76959ZM114.498 6C114.498 3.95392 115.465 2.40553 117.594 2.40553C119.696 2.40553 120.664 3.95392 120.664 6C120.664 8.04608 119.696 9.59447 117.594 9.59447C115.465 9.59447 114.498 8.04608 114.498 6ZM115.963 6C115.963 7.32719 116.461 8.40553 117.567 8.40553C118.673 8.40553 119.143 7.35484 119.143 6C119.143 4.64516 118.673 3.59447 117.567 3.59447C116.461 3.59447 115.963 4.67281 115.963 6ZM131.972 4.70046V9.51152H130.396V5.25345C130.396 4.47926 130.064 4.06452 129.346 4.06452C128.793 4.11982 128.295 4.34101 127.908 4.70046C127.908 4.89401 127.908 5.05991 127.908 5.25345V9.51152H126.332V5.25345C126.332 4.47926 126 4.06452 125.281 4.06452C124.756 4.09217 124.258 4.34101 123.871 4.70046V9.51152H122.267V2.62673H123.871V3.53918C124.396 2.87559 125.17 2.48848 126 2.48848C126.774 2.40553 127.521 2.87558 127.77 3.62213C128.35 2.93088 129.18 2.51613 130.064 2.48848C131.309 2.46083 131.972 3.26267 131.972 4.70046ZM133.493 9.17972V7.90784C134.212 8.26729 134.986 8.46083 135.788 8.48848C136.783 8.48848 137.032 7.99078 137.032 7.65899C137.032 7.10599 136.396 6.91245 135.677 6.6083C134.765 6.2765 133.631 5.8341 133.631 4.47926C133.631 3.12443 134.627 2.21198 136.479 2.21198C137.253 2.21198 138.028 2.40553 138.719 2.76498V4.00921C138.166 3.67742 137.53 3.48387 136.894 3.45622C135.843 3.45622 135.428 3.95393 135.428 4.36867C135.428 4.78342 136.12 5.17051 136.922 5.41936C137.696 5.69586 138.857 6.22119 138.857 7.46543C138.857 8.90322 137.696 9.73272 136.092 9.73272C135.207 9.73272 134.323 9.53917 133.493 9.17972ZM145.244 7.29954L144.553 9.56683H142.866L146.212 0.110606H147.65L150.885 9.56683H149.143L148.424 7.29954H145.244ZM145.548 5.9447H148.064L146.793 1.99079L145.548 5.9447ZM157.852 2.65439V9.56683H156.276V8.90322C155.696 9.42857 154.922 9.70507 154.147 9.70507C152.82 9.70507 152.184 8.90322 152.184 7.46543V2.59908H153.76V6.85715C153.76 7.6037 154.092 8.04609 154.811 8.04609C155.364 7.99079 155.862 7.76959 156.276 7.41015V2.59908L157.852 2.65439ZM161.447 7.74193C161.392 8.07373 161.64 8.37788 161.972 8.43318C162.028 8.43318 162.083 8.43318 162.111 8.43318C162.304 8.43318 162.498 8.40554 162.691 8.37789V9.56683C162.276 9.64977 161.862 9.67741 161.447 9.67741C160.23 9.67741 159.843 9.01382 159.843 7.88018V4.03687H158.986L159.207 2.79264H159.843V1.10599L161.447 0.691244V2.82028H162.774L162.553 4.06452H161.419V7.74193H161.447ZM169.714 4.72812V9.51152H168.111V5.25345C168.111 4.47926 167.779 4.09218 167.143 4.09218C166.562 4.11983 166.009 4.34101 165.567 4.70046V9.51152H163.963V0.165909H165.567V3.23502C166.12 2.76498 166.839 2.48848 167.558 2.46083C168.664 2.40554 169.631 3.26268 169.687 4.36867C169.687 4.47927 169.687 4.61752 169.659 4.72812H169.714ZM171.207 6C171.207 3.95392 172.175 2.40553 174.276 2.40553C176.378 2.40553 177.373 3.98157 177.373 6C177.373 8.01843 176.405 9.59447 174.304 9.59447C172.203 9.59447 171.207 8.04608 171.207 6ZM172.673 6C172.673 7.32719 173.17 8.40553 174.276 8.40553C175.382 8.40553 175.852 7.35484 175.852 6C175.852 4.64516 175.355 3.59447 174.276 3.59447C173.198 3.59447 172.673 4.67281 172.673 6ZM178.949 9.48388V2.62673H180.581V3.95393C181.023 3.12444 181.88 2.59908 182.82 2.62673V3.89863C181.88 3.87098 181.023 4.36867 180.581 5.19817V9.51152H179.005L178.949 9.48388ZM183.871 1.10599C183.899 0.635944 184.286 0.304157 184.728 0.304157C185.17 0.304157 185.53 0.718897 185.53 1.16129C185.502 1.60369 185.143 1.96314 184.7 1.96314C184.23 1.96314 183.871 1.60369 183.871 1.10599ZM185.502 9.48388H183.926V2.82028H185.502V9.48388ZM189.511 7.71429C189.456 8.04609 189.705 8.35023 190.037 8.40553C190.092 8.40553 190.147 8.40553 190.175 8.40553C190.369 8.40553 190.562 8.37788 190.756 8.35023V9.53917C190.341 9.62211 189.926 9.64977 189.511 9.64977C188.295 9.64977 187.908 8.98618 187.908 7.85254V4.00921H187.078L187.299 2.76498H187.935V1.07835L189.539 0.663601V2.79264H190.866L190.645 4.03687H189.511V7.71429ZM198.249 2.59908L195.069 12H193.548L194.212 10.0092L191.585 2.57144H193.382L194.931 7.88018L196.534 2.57144L198.249 2.59908ZM20.5714 9.51152H18.7189L16.5899 6.3318V9.51152H15.0415V0.165909H16.6175V5.47466L18.5806 2.46083H20.3779L18.0553 5.80645L20.5714 9.51152Z" fill="var(--fill-0, white)"/>
</g>
</svg>
