<svg preserveAspectRatio="none" width="100%" height="100%" overflow="visible" style="display: block;" viewBox="0 0 96.0322 24.0001" fill="none" xmlns="http://www.w3.org/2000/svg">
<g id="Red_Wordmark">
<path id="z" d="M87.5095 19.0451L95.7048 12.0472V7.04433H80.8878V11.2835H89.7687L87.4316 12.7018L80.5294 18.5775L80.5138 23.2843H96.032V19.0451H87.5095Z" fill="var(--fill-0, white)"/>
<path id="e" d="M70.4553 6.45076C65.3916 6.45076 61.1693 9.98864 61.1693 15.2097C61.1693 20.4308 65.7344 23.9687 70.7357 23.9687C75.7371 23.9687 74.8022 23.5635 76.6875 22.7998L75.9552 19.0126C74.5062 19.4957 72.9481 19.8074 71.5303 19.8074C70.1125 19.8074 67.6352 19.7451 66.9341 16.628H78.822C78.8843 16.176 78.9155 15.6929 78.9155 15.1942C78.9155 9.97305 75.5189 6.43517 70.4553 6.43517V6.45076ZM67.1054 13.0901C67.5884 11.1887 68.9284 10.0354 70.3774 10.0354C71.8263 10.0354 73.1663 11.1887 73.6493 13.0901H67.1054Z" fill="var(--fill-0, white)"/>
<path id="h" d="M51.9316 6.46793C49.8594 6.46793 47.8495 7.54332 46.3693 9.25771L47.0705 7.04459V0H41.4303V23.3001H47.0705V14.1359C47.0705 12.0007 48.8155 10.5981 50.5605 10.5981C52.3055 10.5981 53.4117 12.0007 53.4117 14.1359V23.3001H59.0519V15.2425C59.0519 10.3954 57.1822 6.48352 51.916 6.48352L51.9316 6.46793Z" fill="var(--fill-0, white)"/>
<path id="a" d="M33.6091 9.27181C32.1289 7.49508 29.9944 6.48203 27.6261 6.48203C23.1701 6.48203 19.5554 10.316 19.5554 15.1787C19.5554 20.0413 23.1701 24 27.6261 24C32.0822 24 32.051 22.9246 33.5156 21.1946L34.3102 23.2831H38.6104V7.0431H34.3102L33.6091 9.24064V9.27181ZM32.9547 15.2254C32.9391 17.7347 31.2097 19.7764 29.0751 19.7764C26.9406 19.7764 25.1956 17.6256 25.1956 15.1943C25.1956 12.7629 26.8627 10.6122 29.0751 10.6122C31.2876 10.6122 32.9391 12.7629 32.9547 15.1631V15.241V15.2254Z" fill="var(--fill-0, white)"/>
<path id="j" d="M6.29453 1.88583V7.06018L11.9347 6.45235V14.7749C11.9347 16.9725 10.2208 18.6557 8.00839 18.6557C5.79595 18.6557 4.2379 17.5491 3.677 15.9594L0 19.7623C1.71386 22.3338 4.78322 23.9859 8.41348 23.9859C13.6174 23.9859 17.5904 20.0272 17.5904 14.8373C17.5904 9.64735 17.5904 0 17.5904 0L6.31011 1.88583H6.29453Z" fill="var(--fill-0, white)"/>
</g>
</svg>
