<svg preserveAspectRatio="none" width="100%" height="100%" overflow="visible" style="display: block;" viewBox="0 0 184.877 31.3573" fill="none" xmlns="http://www.w3.org/2000/svg">
<g id="Layer_1-2">
<path id="Vector" d="M14.7112 8.67448V8.79776C14.7112 13.7289 11.0128 15.6602 6.57483 15.6602H2.79431V25.1115H1.59854e-05V1.89421H6.61592C11.0539 1.89421 14.7112 3.86665 14.7112 8.67448ZM11.9169 8.83885V8.71557C11.9169 5.42817 9.94442 4.19539 6.82138 4.19539H2.8354V13.4823H6.78029C10.1088 13.4412 11.9169 11.8386 11.9169 8.83885Z" fill="var(--fill-0, white)"/>
<path id="Vector_2" d="M15.4916 16.8511V16.6045C15.4916 11.468 18.7791 7.8929 23.4636 7.8929C27.4085 7.8929 31.1068 10.2763 31.1068 16.358V17.2209H18.327C18.4503 21.0836 20.2995 23.2204 23.7923 23.2204C26.4223 23.2204 27.9427 22.2342 28.3125 20.2618H31.0246C30.4493 23.6725 27.614 25.4805 23.7513 25.4805C18.9434 25.4394 15.4916 22.0698 15.4916 16.8511ZM23.5047 10.1119C20.7515 10.1119 18.9023 12.0022 18.4503 15.0019H28.3947C28.1071 11.509 26.299 10.1119 23.5047 10.1119Z" fill="var(--fill-0, white)"/>
<path id="Vector_3" d="M33.4893 16.8511V16.6045C33.4893 11.468 36.7767 7.8929 41.4613 7.8929C45.4062 7.8929 49.1045 10.2763 49.1045 16.358V17.2209H36.2836C36.4069 21.0836 38.2561 23.2204 41.7489 23.2204C44.3789 23.2204 45.8993 22.2342 46.2691 20.2618H48.9812C48.4059 23.6725 45.5705 25.4805 41.7078 25.4805C36.9 25.4394 33.4893 22.0698 33.4893 16.8511ZM41.4613 10.1119C38.7081 10.1119 36.8589 12.0022 36.3658 15.0019H46.3102C46.1047 11.509 44.2556 10.1119 41.4613 10.1119Z" fill="var(--fill-0, white)"/>
<path id="Vector_4" d="M55.23 11.1803C56.2984 9.24893 57.7777 7.93396 60.8186 7.81069V10.3584C57.4079 10.5228 55.23 11.5912 55.23 15.7826V25.1107H52.5179V8.13943H55.23V11.1803Z" fill="var(--fill-0, white)"/>
<path id="Vector_5" d="M72.6521 25.1526H69.8167V1.89421H72.6521V25.1526Z" fill="var(--fill-0, #40B3E1)"/>
<path id="Vector_6" d="M79.3086 10.8516C80.0893 9.24894 81.9796 7.8518 84.7739 7.8518C88.3079 7.8518 90.7734 9.78315 90.7734 14.7143V25.1518H88.0613V14.5088C88.0613 11.509 86.7874 10.1941 84.0753 10.1941C81.5687 10.1941 79.3086 11.7967 79.3086 14.8375V25.1518H76.5965V8.13944H79.3086V10.8516Z" fill="var(--fill-0, #40B3E1)"/>
<path id="Vector_7" d="M92.9514 19.933H95.5813C95.7868 21.9465 96.8552 23.2204 99.6084 23.2204C102.156 23.2204 103.307 22.3575 103.307 20.5083C103.307 18.6591 101.992 18.1249 99.3207 17.6318C94.8827 16.81 93.4034 15.5772 93.4034 12.6185C93.4034 9.45441 96.4853 7.8518 99.1564 7.8518C102.197 7.8518 104.868 9.08457 105.32 12.7829H102.731C102.362 10.9337 101.293 10.1119 99.1564 10.1119C97.1839 10.1119 95.9511 11.0981 95.9511 12.5363C95.9511 14.0568 96.8141 14.6732 99.9371 15.2485C103.471 15.9059 105.937 16.6867 105.937 20.3028C105.937 23.3848 103.841 25.4805 99.6906 25.4805C95.5813 25.4394 93.1157 23.3848 92.9514 19.933Z" fill="var(--fill-0, #40B3E1)"/>
<path id="Vector_8" d="M108.443 2.79473C108.443 1.80851 109.224 0.986654 110.251 0.986654C111.278 0.986654 112.059 1.76741 112.059 2.75364C112.059 3.73986 111.278 4.56171 110.251 4.56171C109.265 4.56171 108.443 3.78095 108.443 2.79473ZM111.648 25.1491H108.936V8.13676H111.648V25.1491Z" fill="var(--fill-0, #40B3E1)"/>
<path id="Vector_9" d="M115.019 26.138H117.772C118.183 28.1104 119.785 29.0966 122.703 29.0966C126.031 29.0966 128.168 27.494 128.168 23.8368V21.3712C126.894 23.3437 124.758 24.5354 122.415 24.5765C117.936 24.5765 114.649 21.2069 114.649 16.5223V16.2758C114.649 11.6734 117.895 7.81069 122.58 7.81069C125.415 7.81069 127.182 9.16674 128.127 10.8515V8.13943H130.798V24.0012C130.757 28.9323 127.429 31.3567 122.662 31.3567C117.69 31.3978 115.471 29.0145 115.019 26.138ZM128.25 16.3579V16.1114C128.25 12.2898 126.155 10.0708 122.867 10.0708C119.498 10.0708 117.484 12.5774 117.484 16.1525V16.399C117.484 20.0974 119.868 22.3164 122.744 22.3164C125.867 22.3575 128.25 20.1385 128.25 16.3579Z" fill="var(--fill-0, #40B3E1)"/>
<path id="Vector_10" d="M137.825 10.8485C138.606 9.24588 140.496 7.84873 143.29 7.84873C146.783 7.84873 149.29 9.78008 149.29 14.7112V25.1487H146.578V14.5057C146.578 11.506 145.304 10.191 142.592 10.191C140.085 10.191 137.825 11.7936 137.825 14.8345V25.1487H135.113V4.6503e-05H137.825V10.8485Z" fill="var(--fill-0, #40B3E1)"/>
<path id="Vector_11" d="M153.644 20.9178V10.4392H151.22V8.13805H153.644V4.27534H156.356V8.13805H160.342V10.4392H156.356V20.6713C156.356 22.315 157.096 23.1368 158.452 23.1368C159.151 23.1368 159.89 23.0136 160.548 22.767V25.0271C159.808 25.2737 159.027 25.3969 158.247 25.3969C155.123 25.3969 153.644 23.5478 153.644 20.9178Z" fill="var(--fill-0, #40B3E1)"/>
<path id="Vector_12" d="M161.864 19.933H164.494C164.699 21.9465 165.767 23.2204 168.48 23.2204C171.068 23.2204 172.178 22.3575 172.178 20.5083C172.178 18.6591 170.863 18.1249 168.192 17.6318C163.754 16.81 162.275 15.5772 162.275 12.6185C162.275 9.45441 165.357 7.8518 168.028 7.8518C171.068 7.8518 173.739 9.08457 174.191 12.7829H171.603C171.192 10.9337 170.164 10.1119 168.028 10.1119C166.055 10.1119 164.822 11.0981 164.822 12.5363C164.822 14.0568 165.685 14.6732 168.808 15.2485C172.342 15.9059 174.808 16.6867 174.808 20.3028C174.808 23.3848 172.712 25.4805 168.562 25.4805C164.453 25.4394 162.028 23.3848 161.864 19.933Z" fill="var(--fill-0, #40B3E1)"/>
<path id="Vector_13" d="M177.068 21.4935H180.149V22.1099H178.999V25.6028H178.218V22.1099H177.068V21.4935Z" fill="var(--fill-0, white)"/>
<path id="Vector_14" d="M182.781 24.3289L183.849 21.5346H184.877V25.6439H184.096V22.5209L182.863 25.6439H182.616L181.384 22.5209V25.6439H180.685V21.5346H181.712L182.781 24.3289Z" fill="var(--fill-0, white)"/>
</g>
</svg>
