<svg preserveAspectRatio="none" width="100%" height="100%" overflow="visible" style="display: block;" viewBox="0 0 10.0759 15.8453" fill="none" xmlns="http://www.w3.org/2000/svg">
<g id="Group">
<path id="Vector" d="M5.11925 4.46932C2.92532 4.46932 1.78773 5.52566 1.30019 6.50074H1.05642V0.000208723H7.94953e-05V15.5202H1.05642V13.8138H1.30019C1.78773 14.7889 2.92532 15.8453 5.11925 15.8453C7.96324 15.8453 10.0759 13.8951 10.0759 10.2385C10.0759 6.41948 8.04449 4.46932 5.11925 4.46932ZM5.038 14.7889C2.68155 14.7889 1.05642 13.0825 1.05642 10.076C1.05642 7.06954 2.68155 5.36315 5.038 5.36315C7.39444 5.36315 9.01957 7.06954 9.01957 10.076C9.10083 13.0825 7.39444 14.7889 5.038 14.7889Z" fill="var(--fill-0, white)"/>
</g>
</svg>
