<svg preserveAspectRatio="none" width="100%" height="100%" overflow="visible" style="display: block;" viewBox="0 0 24.2264 7.0941" fill="none" xmlns="http://www.w3.org/2000/svg">
<g id="Group">
<g id="Group_2">
<path id="Vector" d="M0 1.79932H1.78628V7.09409H0V1.82257C0 1.81475 0 1.80715 0 1.79932Z" fill="var(--fill-0, white)"/>
<path id="Vector_2" d="M8.26827 7.0941H6.26158L3.56259 1.81191C3.55856 1.80408 3.55049 1.79933 3.54171 1.79933H1.78652V0.000243735C1.79435 6.48186e-06 1.80218 6.48208e-06 1.81001 6.48208e-06H3.54171C4.22476 6.48208e-06 4.84233 0.390287 5.15337 0.998603L8.26827 7.0941Z" fill="var(--fill-0, white)"/>
</g>
<path id="Vector_3" d="M21.1165 0.998598C20.8054 0.390282 20.1879 6.2546e-07 19.5048 6.2546e-07H17.7733C17.7655 6.2546e-07 17.7574 6.25239e-07 17.7496 0.000237878L17.7496 1.79933H19.5048C19.5136 1.79933 19.5217 1.80407 19.5257 1.8119L20.4775 3.67291L17.7496 4.974V1.79933H15.9633C15.9631 1.80716 15.9631 1.81498 15.9631 1.82281L15.96 7.09409H17.7465L21.3001 5.28125L22.2197 7.09409H24.2264L21.1165 0.998598Z" fill="var(--fill-0, white)"/>
<g id="Group_3">
<path id="Vector_4" d="M10.9876 5.32182H12.7426L12.7405 7.0941C12.7326 7.0941 12.7246 7.0941 12.7167 7.0941H10.9855C10.8878 7.0941 10.7919 7.08651 10.6975 7.07132C10.1321 6.98141 9.64241 6.64379 9.37574 6.12255L6.24495 0.000244439H8.2514L10.9665 5.30925C10.9706 5.31708 10.9786 5.32182 10.9876 5.32182Z" fill="var(--fill-0, white)"/>
<path id="Vector_5" d="M14.5294 0.000239919V5.29857C14.5294 5.3064 14.5294 5.31423 14.5292 5.32182H12.7427V0.000239919H14.5294Z" fill="var(--fill-0, white)"/>
</g>
</g>
</svg>
