<svg preserveAspectRatio="none" width="100%" height="100%" overflow="visible" style="display: block;" viewBox="0 0 10.8072 15.4389" fill="none" xmlns="http://www.w3.org/2000/svg">
<g id="Group">
<path id="Vector" d="M8.77578 0.650216C8.12573 0.243933 7.2319 0.000163774 6.41934 0.000163774C3.08782 0.000163774 0.487603 3.65671 0.487603 8.04457C0.487603 10.076 1.38142 11.3761 2.84404 11.3761C5.11923 11.3761 6.74436 8.9384 8.53201 3.41294L8.12573 8.3696C7.96321 10.9698 6.90688 12.7575 5.28174 13.8951H0.162575C0.0813181 14.0576 6.08375e-05 14.2201 6.08375e-05 14.3826C6.08375e-05 15.0326 0.568857 15.4389 1.46268 15.4389C5.363 15.4389 8.53201 12.5137 9.58835 6.74447L10.8072 0.000163774H10.7259C10.3197 0.32519 9.50709 0.56896 8.77578 0.650216ZM8.69452 1.95032C6.82562 7.47578 5.28174 10.1572 3.65661 10.1572C2.84404 10.1572 2.35651 9.18217 2.35651 7.39452C2.35651 3.65671 4.22541 0.325192 6.66311 0.325192C7.63819 0.325192 8.45075 0.812731 8.77578 1.70655L8.69452 1.95032Z" fill="var(--fill-0, white)"/>
</g>
</svg>
