<svg preserveAspectRatio="none" width="100%" height="100%" overflow="visible" style="display: block;" viewBox="0 0 12.5 12.5" fill="none" xmlns="http://www.w3.org/2000/svg">
<g id="Group">
<path id="Vector" d="M0.416667 6.25001C0.416667 7.7971 1.03125 9.28083 2.12521 10.3748C3.21917 11.4688 4.7029 12.0833 6.25 12.0833C7.7971 12.0833 9.28083 11.4688 10.3748 10.3748C11.4688 9.28083 12.0833 7.7971 12.0833 6.25001C12.0833 4.70291 11.4688 3.21918 10.3748 2.12522C9.28083 1.03125 7.7971 0.416672 6.25 0.416672C4.7029 0.416672 3.21917 1.03125 2.12521 2.12522C1.03125 3.21918 0.416667 4.70291 0.416667 6.25001Z" stroke="var(--stroke-0, #2F7BFF)" stroke-width="0.833333" stroke-linejoin="round"/>
<path id="Vector_2" d="M3.74992 6.25C3.74992 4.7029 4.01331 3.21917 4.48215 2.12521C4.95099 1.03125 5.58688 0.416667 6.24992 0.416667C6.91296 0.416667 7.54884 1.03125 8.01769 2.12521C8.48653 3.21917 8.74992 4.7029 8.74992 6.25C8.74992 7.7971 8.48653 9.28083 8.01769 10.3748C7.54884 11.4688 6.91296 12.0833 6.24992 12.0833C5.58688 12.0833 4.95099 11.4688 4.48215 10.3748C4.01331 9.28083 3.74992 7.7971 3.74992 6.25Z" stroke="var(--stroke-0, #2F7BFF)" stroke-width="0.833333" stroke-linejoin="round"/>
<path id="Vector_3" d="M0.833252 8.19444H11.6666M0.833252 4.30555H11.6666" stroke="var(--stroke-0, #2F7BFF)" stroke-width="0.833333" stroke-linecap="round"/>
</g>
</svg>
