<svg preserveAspectRatio="none" width="100%" height="100%" overflow="visible" style="display: block;" viewBox="0 0 51.1962 48.0019" fill="none" xmlns="http://www.w3.org/2000/svg">
<g id="Group 1000011104">
<g id="Group">
<path id="Vector" d="M40.9996 14.8972C40.9996 15.1289 41.1877 15.3161 41.4194 15.3161C41.6511 15.3161 41.84 15.1289 41.84 14.8972C41.84 14.6655 41.652 14.4784 41.4194 14.4784C41.1868 14.4784 40.9996 14.6665 40.9996 14.8972Z" fill="var(--fill-0, white)"/>
<path id="Vector_2" d="M28.9755 2.85618C29.2072 2.85618 29.3953 2.6681 29.3953 2.43733C29.3953 2.20655 29.2072 2.01847 28.9755 2.01847C28.7439 2.01847 28.5549 2.20655 28.5549 2.43733C28.5549 2.6681 28.743 2.85618 28.9755 2.85618Z" fill="var(--fill-0, white)"/>
<path id="Vector_3" d="M3.48709 17.8322C3.48709 18.1793 3.76965 18.4609 4.11764 18.4609C4.46562 18.4609 4.74818 18.1793 4.74818 17.8322C4.74818 17.4851 4.46562 17.2026 4.11764 17.2026C3.76965 17.2026 3.48709 17.4842 3.48709 17.8322Z" fill="var(--fill-0, white)"/>
<path id="Vector_4" d="M25.8959 1.25746C26.2439 1.25746 26.5265 0.975803 26.5265 0.62873C26.5265 0.281656 26.2439 0 25.8959 0C25.5479 0 25.2654 0.281656 25.2654 0.62873C25.2654 0.975803 25.547 1.25746 25.8959 1.25746Z" fill="var(--fill-0, white)"/>
<path id="Vector_5" d="M12.6499 13.6502C12.6499 13.9972 12.9316 14.2789 13.2804 14.2789C13.6293 14.2789 13.9101 13.9972 13.9101 13.6502C13.9101 13.3031 13.6275 13.0214 13.2804 13.0214C12.9334 13.0214 12.6499 13.3031 12.6499 13.6502Z" fill="var(--fill-0, white)"/>
<path id="Vector_6" d="M37.6039 13.339C37.6039 13.6861 37.8855 13.9678 38.2344 13.9678C38.5833 13.9678 38.865 13.6861 38.865 13.339C38.865 12.992 38.5824 12.7103 38.2344 12.7103C37.8864 12.7103 37.6039 12.992 37.6039 13.339Z" fill="var(--fill-0, white)"/>
<path id="Vector_7" d="M47.6135 19.6286C47.9615 19.6286 48.244 19.347 48.244 18.9999C48.244 18.6528 47.9615 18.3712 47.6135 18.3712C47.2655 18.3712 46.9829 18.6528 46.9829 18.9999C46.9829 19.347 47.2655 19.6286 47.6135 19.6286Z" fill="var(--fill-0, white)"/>
<path id="Vector_8" d="M10.0104 18.1599C9.83865 18.3934 9.70327 18.6206 9.58425 18.8414L10.0676 29.1336C10.074 29.2445 10.1775 29.3244 10.2857 29.3017C10.3229 29.2936 10.3593 29.2854 10.3956 29.2781C10.4746 29.2608 10.5337 29.1927 10.5373 29.1109L11.0825 17.4985C10.6327 17.6275 10.252 17.8301 10.0095 18.1609" fill="var(--fill-0, white)"/>
<path id="Vector_9" d="M14.0325 17.1196C13.6227 17.1878 13.1493 17.215 12.6651 17.2477L13.1612 28.4967C13.1666 28.6049 13.2647 28.6839 13.3701 28.6666C13.4301 28.6566 13.4919 28.6467 13.5518 28.6367C13.6354 28.623 13.6999 28.5531 13.7036 28.4677L14.2051 17.0887C14.1488 17.0996 14.0933 17.1096 14.0334 17.1196" fill="var(--fill-0, white)"/>
<path id="Vector_10" d="M16.2643 15.3817C16.0517 15.6461 15.8773 15.8669 15.7156 16.055L16.2134 28.0281C16.218 28.1326 16.3098 28.2107 16.4133 28.1998C16.4906 28.1916 16.5669 28.1816 16.6441 28.1735C16.7322 28.1644 16.8004 28.0917 16.804 28.0026L17.3619 14.5694C17.0439 14.7457 16.6677 14.8793 16.2643 15.3817Z" fill="var(--fill-0, white)"/>
<path id="Vector_11" d="M7.70652 21.2742C7.34036 21.4986 6.95604 21.6785 6.57171 21.8347L7.01146 29.8738C7.01782 29.9873 7.12867 30.0673 7.23951 30.0373C7.25223 30.0337 7.26404 30.03 7.27767 30.0273C7.35217 30.0082 7.40669 29.941 7.41123 29.8638L7.88914 21.156C7.83008 21.1951 7.77012 21.2351 7.70652 21.2742Z" fill="var(--fill-0, white)"/>
<path id="Vector_12" d="M3.49847 23.0293L3.90915 30.7294C3.91551 30.8466 4.0318 30.9266 4.14355 30.8902C4.16173 30.8839 4.18081 30.8784 4.19807 30.8721C4.26894 30.8494 4.31891 30.7848 4.32254 30.7112L4.76411 22.4233C4.30074 22.5968 3.86826 22.784 3.49847 23.0284" fill="var(--fill-0, white)"/>
<path id="Vector_13" d="M0.478346 25.6837L0.790894 31.7357C0.797254 31.8574 0.92082 31.9383 1.0353 31.8947C1.05347 31.8883 1.07164 31.8811 1.08981 31.8747C1.15705 31.8493 1.20248 31.7875 1.2052 31.7157L1.58226 24.419C1.20974 24.7633 0.833596 25.1658 0.479254 25.6837" fill="var(--fill-0, white)"/>
<path id="Vector_14" d="M50.0941 24.51L50.473 31.7341C50.4766 31.8077 50.5239 31.8713 50.5938 31.8949C50.6138 31.9013 50.6338 31.9094 50.6529 31.9149C50.7656 31.954 50.8846 31.874 50.8909 31.755L51.1962 25.9538C50.8392 25.3514 50.4685 24.8962 50.0941 24.51Z" fill="var(--fill-0, white)"/>
<path id="Vector_15" d="M46.8995 22.4916L47.3592 30.8886C47.3637 30.964 47.4164 31.0303 47.49 31.0521C47.5055 31.0567 47.5209 31.0612 47.5364 31.0657C47.6481 31.0985 47.7608 31.0194 47.7672 30.9031L48.1896 23.1903C47.7962 22.9095 47.3628 22.6969 46.9004 22.4916" fill="var(--fill-0, white)"/>
<path id="Vector_16" d="M44.1975 21.3757C44.0322 21.274 43.8868 21.1713 43.7541 21.065L44.2748 30.1543C44.2784 30.2334 44.3338 30.2988 44.4101 30.3188C44.4174 30.3206 44.4247 30.3224 44.4319 30.3242C44.5428 30.3515 44.6491 30.2733 44.6564 30.1607L45.1297 21.88C44.8263 21.7328 44.5155 21.5711 44.1984 21.3766" fill="var(--fill-0, white)"/>
<path id="Vector_17" d="M41.7982 18.2579C41.532 17.8954 41.0995 17.6855 40.5898 17.5592L41.1377 29.4433C41.1422 29.526 41.2004 29.5941 41.2813 29.6114C41.3149 29.6187 41.3485 29.6259 41.3803 29.6332C41.4893 29.6568 41.5938 29.5769 41.5983 29.466L42.0944 18.7195C42.0072 18.565 41.91 18.4114 41.7982 18.2579Z" fill="var(--fill-0, white)"/>
<path id="Vector_18" d="M37.7606 17.2231C37.6634 17.2076 37.5726 17.1904 37.4862 17.1722L38.0023 28.7992C38.0059 28.8828 38.0696 28.9536 38.1522 28.9673C38.1931 28.9745 38.2349 28.9818 38.2749 28.9882C38.3821 29.0072 38.4802 28.9273 38.4857 28.8192L38.9954 17.3412C38.5575 17.313 38.1322 17.2849 37.7606 17.2222" fill="var(--fill-0, white)"/>
<path id="Vector_19" d="M35.5225 15.4852C35.1227 14.9864 34.7111 14.5785 34.3295 14.1369L34.9365 28.2833C34.9401 28.3706 35.0073 28.4423 35.0927 28.4532C35.1363 28.4596 35.18 28.465 35.2236 28.4714C35.328 28.4859 35.4216 28.406 35.4271 28.3006L35.954 16.0195C35.8241 15.8632 35.6851 15.6869 35.5225 15.4852Z" fill="var(--fill-0, white)"/>
<path id="Vector_20" d="M32.9561 11.9284C32.3573 9.96589 32.579 10.7236 32.0439 8.82473C31.7786 7.88708 31.4524 7.18203 31.059 6.59419L31.8504 27.9438C31.8531 28.0346 31.923 28.1073 32.013 28.1155C32.0857 28.1218 32.1584 28.13 32.2301 28.1373C32.3337 28.1473 32.4237 28.0682 32.4273 27.9646L33.0152 12.1092C32.9961 12.0492 32.9734 11.9911 32.9552 11.9293" fill="var(--fill-0, white)"/>
<path id="Vector_21" d="M27.8605 5.82175L28.6519 27.6974C28.6555 27.79 28.7301 27.8655 28.8236 27.8709C28.8927 27.8745 28.9617 27.8782 29.0317 27.8818C29.1325 27.8882 29.218 27.8109 29.2225 27.7101L30.0157 5.75906C29.4387 5.68365 28.6356 5.76814 27.8615 5.82175" fill="var(--fill-0, white)"/>
<path id="Vector_22" d="M20.5779 9.26525C20.3835 9.46514 20.2208 9.63504 20.1036 9.75043C20.1036 9.75043 19.2114 10.7608 18.7053 11.7811L19.3068 27.7619C19.3104 27.8628 19.3977 27.9418 19.4994 27.9336C19.5721 27.9282 19.643 27.9236 19.7157 27.9191C19.8074 27.9127 19.8792 27.8382 19.8837 27.7465L20.5788 9.26616L20.5779 9.26525Z" fill="var(--fill-0, white)"/>
<path id="Vector_23" d="M21.7074 8.01078L22.3979 27.6014C22.4015 27.7004 22.4842 27.7776 22.5832 27.7749C22.6705 27.7722 22.7577 27.7703 22.8449 27.7676C22.9403 27.7658 23.0166 27.6904 23.0212 27.5959L23.768 6.38172C23.2074 6.64248 22.4279 7.31845 21.7065 8.01078" fill="var(--fill-0, white)"/>
<path id="Vector_24" d="M26.8801 5.8604C26.7401 5.85404 26.6075 5.84404 26.4848 5.82496C25.8806 5.73502 25.3909 5.87948 24.8013 6.05483C24.7994 6.05483 24.7976 6.05665 24.7949 6.05665L25.509 27.5861C25.5127 27.6833 25.5926 27.7605 25.6889 27.7605H25.9833C26.0805 27.7605 26.1596 27.6833 26.1632 27.5861L26.8855 5.85949H26.8792" fill="var(--fill-0, white)"/>
</g>
<path id="Fill-49" fill-rule="evenodd" clip-rule="evenodd" d="M13.3279 47.9762C13.1235 47.989 12.9327 48.0017 12.741 48.0017C10.4559 48.0017 8.59247 46.737 7.1751 44.9389C6.58816 45.1542 5.94944 45.2678 5.28527 45.2678C2.31062 45.2678 0.000127065 43.0136 0.000127065 40.0244C0.000127065 37.0353 2.37422 34.7938 5.28527 34.7938C8.19633 34.7938 10.6086 36.9726 10.6086 40.0244C10.6086 41.9497 9.62551 43.5706 8.14454 44.4828C9.39564 45.9265 10.9656 47.0132 12.8809 47.0132C13.2643 47.0132 13.7232 46.9877 14.2474 46.9496C14.2601 47.482 13.864 47.9372 13.3279 47.9753M9.3702 40.0235C9.3702 37.6431 7.64665 35.8696 5.28527 35.8696C2.9239 35.8696 1.21307 37.6676 1.21307 40.0108C1.21307 42.354 2.9239 44.1648 5.298 44.1775C7.64665 44.1902 9.3702 42.2014 9.3702 40.0235ZM12.3703 44.1521V38.1364H12.4602C12.9963 38.1364 13.4306 38.5544 13.4306 39.0986V45.1015H13.3288C12.8055 45.1015 12.3712 44.6582 12.3712 44.1512M15.3858 41.5045C15.3858 39.5293 16.8286 37.8948 18.833 37.8948C19.8415 37.8948 20.9009 38.3381 21.4496 39.0605V34.9701H21.5259C22.0747 34.9701 22.509 35.4135 22.509 35.9577V45.127H22.4836C21.9348 45.127 21.5005 44.709 21.5005 44.0249C20.9263 44.8608 19.866 45.2787 18.833 45.2787C16.7905 45.2787 15.3858 43.5561 15.3858 41.5045ZM21.4623 41.5045C21.4623 39.9472 20.4284 38.896 18.9856 38.896C17.5428 38.896 16.4961 40.099 16.4961 41.5045C16.4961 43.05 17.5428 44.2784 18.9856 44.2784C20.4284 44.2784 21.4623 43.1381 21.4623 41.5045ZM24.3125 41.5045C24.3125 39.5293 25.7553 37.8948 27.7596 37.8948C28.7681 37.8948 29.8275 38.3381 30.3763 39.0605V34.9701H30.4526C31.0014 34.9701 31.4357 35.4135 31.4357 35.9577V45.127H31.4103C30.8615 45.127 30.4272 44.709 30.4272 44.0249C29.853 44.8608 28.7927 45.2787 27.7596 45.2787C25.7172 45.2787 24.3125 43.5561 24.3125 41.5045ZM30.389 41.5045C30.389 39.9472 29.3551 38.896 27.9123 38.896C26.4695 38.896 25.4228 40.099 25.4228 41.5045C25.4228 43.05 26.4695 44.2784 27.9123 44.2784C29.3551 44.2784 30.389 43.1381 30.389 41.5045ZM33.9597 44.1512V38.1355H34.0497C34.5857 38.1355 35.02 38.5535 35.02 39.0977V45.1006H34.9183C34.3949 45.1006 33.9606 44.6572 33.9606 44.1503M36.5982 47.0232V46.9605C37.326 47.0613 37.8493 47.0995 38.2963 46.796C38.6534 46.5807 39.1258 45.8102 39.5983 44.7218L36.7645 38.1355H37.1606C37.8757 38.1355 38.0283 38.4017 38.1691 38.7434L40.1861 43.5052L42.433 38.1228H43.5824L40.0335 46.2009C39.5483 47.3157 38.6543 47.999 37.6594 47.999H37.5704C37.0343 47.999 36.6 47.5556 36.6 47.0241M44.0412 41.5045C44.0412 39.5293 45.484 37.8948 47.4883 37.8948C48.4968 37.8948 49.5562 38.3381 50.105 39.0605V38.1355H51.1644V45.127H51.1389C50.5902 45.127 50.1559 44.709 50.1559 44.0249C49.5817 44.8608 48.5214 45.2787 47.4874 45.2787C45.4449 45.2787 44.0403 43.5306 44.0403 41.5045M50.1168 41.5045C50.1168 39.9472 49.0828 38.896 47.64 38.896C46.1972 38.896 45.1506 40.099 45.1506 41.5045C45.1506 43.0245 46.1972 44.2784 47.64 44.2784C49.0828 44.2784 50.1168 43.1127 50.1168 41.5045ZM12.9027 34.9628C12.5329 34.9628 12.2322 35.2608 12.2322 35.6279C12.2322 35.9949 12.532 36.293 12.9027 36.293C13.2734 36.293 13.5732 35.9949 13.5732 35.6279C13.5732 35.2608 13.2734 34.9628 12.9027 34.9628ZM34.4912 34.9628C34.1214 34.9628 33.8207 35.2608 33.8207 35.6279C33.8207 35.9949 34.1205 36.293 34.4912 36.293C34.8619 36.293 35.1618 35.9949 35.1618 35.6279C35.1618 35.2608 34.8619 34.9628 34.4912 34.9628Z" fill="var(--fill-0, white)"/>
</g>
</svg>
