<svg preserveAspectRatio="none" width="100%" height="100%" overflow="visible" style="display: block;" viewBox="0 0 16.125 16.125" fill="none" xmlns="http://www.w3.org/2000/svg">
<path id="Vector" fill-rule="evenodd" clip-rule="evenodd" d="M7.6875 1.125C4.06313 1.125 1.125 4.06313 1.125 7.6875C1.125 11.3119 4.06313 14.25 7.6875 14.25C11.3119 14.25 14.25 11.3119 14.25 7.6875C14.25 4.06313 11.3119 1.125 7.6875 1.125ZM0 7.6875C0 3.44181 3.44181 0 7.6875 0C11.9332 0 15.375 3.44181 15.375 7.6875C15.375 9.60788 14.6708 11.3638 13.5066 12.7112L15.9602 15.1648C16.1799 15.3844 16.1799 15.7406 15.9602 15.9602C15.7406 16.1799 15.3844 16.1799 15.1648 15.9602L12.7112 13.5066C11.3638 14.6708 9.60788 15.375 7.6875 15.375C3.44181 15.375 0 11.9332 0 7.6875Z" fill="var(--fill-0, #DCDCDC)"/>
</svg>
