<svg preserveAspectRatio="none" width="100%" height="100%" overflow="visible" style="display: block;" viewBox="0 0 10.726 20.8018" fill="none" xmlns="http://www.w3.org/2000/svg">
<g id="Group">
<path id="Vector" d="M9.10085 5.44428H6.17561C5.76933 5.28177 5.4443 4.95674 5.4443 4.30669C5.4443 3.57538 5.93184 2.6003 6.74441 1.70648H10.4822C10.6447 1.46271 10.726 1.13768 10.726 0.893912C10.726 0.325115 10.2384 8.64186e-05 9.66965 8.64186e-05C7.39446 8.64186e-05 5.03802 2.68156 4.30671 5.52554L2.60032 5.85057L2.51906 6.01308H4.22545C4.22545 6.09434 2.43781 16.0076 2.43781 16.0076C2.03152 18.1203 1.30021 19.7455 0.000105591 20.7205V20.8018C2.11278 20.233 3.81917 18.0391 4.30671 15.2763L6.0131 6.01308H8.85708L9.10085 5.44428Z" fill="var(--fill-0, white)"/>
</g>
</svg>
