<svg preserveAspectRatio="none" width="100%" height="100%" overflow="visible" style="display: block;" viewBox="0 0 65.9553 15.015" fill="none" xmlns="http://www.w3.org/2000/svg">
<g id="Group">
<path id="Vector" d="M65.6158 4.87209L65.4309 7.15273H64.5063C63.027 7.15273 62.2565 8.35469 62.2565 9.49501V14.6419H59.6369V4.87209H62.1332L62.1949 6.10487C62.7188 5.27275 63.6434 4.87209 64.7529 4.87209H65.6158Z" fill="var(--fill-0, white)"/>
<path id="Vector_2" d="M47.3401 14.6408H44.6897V9.49401C44.6897 8.41532 44.5972 7.05927 43.0871 7.05927C41.6385 7.05927 41.053 8.10713 41.053 9.33991V14.6408H38.4025V4.87109H40.8372L40.8989 6.10387C41.4228 5.27174 42.409 4.62453 43.8267 4.62453C46.4772 4.62453 47.3093 6.53534 47.3093 8.50778V14.6408H47.3401Z" fill="var(--fill-0, white)"/>
<path id="Vector_3" d="M37.2625 12.359L37.0775 14.578C36.4303 14.7629 35.8756 14.7938 35.1976 14.7938C32.7012 14.7938 31.9923 13.6534 31.9923 11.3728V2.12698H34.6428V4.86991H37.2625L37.0775 7.15054H34.6428V11.1879C34.6428 12.1125 34.8894 12.6056 35.8448 12.6056C36.2454 12.6056 36.7077 12.5439 37.2625 12.359Z" fill="var(--fill-0, white)"/>
<path id="Vector_4" d="M31.1272 4.87209L30.9115 7.15273H30.2026C28.7233 7.15273 27.9836 8.35469 27.9836 9.49501V14.6419H25.3332V4.87209H27.8295L27.8912 6.10487C28.4151 5.27275 29.3397 4.87209 30.48 4.87209H31.1272Z" fill="var(--fill-0, white)"/>
<path id="Vector_5" d="M13.4683 13.5618C11.6807 14.5172 9.89322 15.072 7.52012 15.0103C3.14376 14.8562 0.000178746 12.1441 0.000178746 7.55204C0.000178746 2.99077 3.17458 0.0629213 7.52012 0.00128241C9.73912 -0.029537 11.7116 0.525213 13.2525 1.88127L11.4034 3.76125C10.4171 2.95995 9.03027 2.49766 7.36602 2.5593C4.62309 2.68257 2.95884 4.68584 2.92802 7.39795C2.89721 10.3566 4.71555 12.3907 7.55094 12.4832C8.87617 12.514 9.83158 12.3291 10.6637 11.9592V8.93892H7.70504L7.88995 6.44254H13.4375V13.5618H13.4683Z" fill="var(--fill-0, white)"/>
<path id="Vector_6" d="M55.7848 8.66176C55.6924 7.42899 54.7678 6.6585 53.5042 6.68932C52.2098 6.75096 51.3776 7.58308 51.1927 8.66176H55.7848ZM58.4045 10.6958H51.1619C51.3776 11.9286 52.3639 12.6991 53.5658 12.7299C54.7678 12.7607 55.415 12.3909 56.2779 11.528L58.0038 12.8532C56.771 14.3634 55.3225 14.9181 53.6275 14.9181C50.6996 14.9181 48.4806 12.8532 48.4806 9.80208C48.4806 6.75096 50.6688 4.68606 53.5042 4.68606C56.6478 4.68606 58.3428 6.59686 58.3428 9.95618V10.6958H58.4045Z" fill="var(--fill-0, white)"/>
<path id="Vector_7" d="M21.1741 10.3878H20.8042C19.5714 10.3878 17.3524 10.4494 17.3833 11.7438C17.3833 13.593 21.1741 13.0074 21.1741 10.7884V10.3878ZM23.7012 8.26123V14.6408H21.3898L21.3281 13.6854C20.6193 14.5792 19.4482 14.8874 18.277 14.8874C16.4895 14.8874 14.7944 13.9936 14.7636 11.9287C14.702 8.6927 18.4003 8.44614 20.7426 8.44614H21.2049V8.32287C21.2049 7.24419 20.496 6.65862 19.1708 6.65862C18.2154 6.65862 17.26 7.02845 16.582 7.70648L15.0718 6.16551C16.4587 5.05601 17.8764 4.62453 19.4173 4.62453C22.376 4.65535 23.7012 6.04223 23.7012 8.26123Z" fill="var(--fill-0, white)"/>
<path id="Vector_8" d="M64.3527 13.4071V12.9448H64.6609C64.815 12.9448 64.9999 12.9756 64.9999 13.1605C64.9999 13.4071 64.815 13.4071 64.6301 13.4071H64.3527ZM64.3527 13.6228H64.6301L65.0307 14.27H65.2773L64.8458 13.592C65.0615 13.5612 65.2465 13.4379 65.2465 13.1605C65.2465 12.8523 65.0615 12.729 64.7225 12.729H64.1061V14.2392H64.3219V13.6228H64.3527ZM64.6301 14.8248C65.3389 14.8248 65.9553 14.27 65.9553 13.4995C65.9553 12.7599 65.3389 12.2051 64.6301 12.2051C63.9212 12.2051 63.3048 12.7599 63.3048 13.4995C63.3048 14.27 63.8904 14.8248 64.6301 14.8248ZM63.5514 13.4995C63.5514 12.8831 64.0137 12.4208 64.6301 12.4208C65.2156 12.4208 65.7088 12.8831 65.7088 13.4995C65.7088 14.1467 65.2465 14.609 64.6301 14.609C64.0137 14.609 63.5514 14.1467 63.5514 13.4995Z" fill="var(--fill-0, white)"/>
</g>
</svg>
