<svg preserveAspectRatio="none" width="100%" height="100%" overflow="visible" style="display: block;" viewBox="0 0 87.9395 20.02" fill="none" xmlns="http://www.w3.org/2000/svg">
<g id="Group">
<path id="Vector" d="M87.4855 6.49523L87.239 9.53608H86.0062C84.0338 9.53608 83.0064 11.1387 83.0064 12.6591V19.5216H79.5136V6.49523H82.8421L82.9243 8.13894C83.6228 7.02944 84.8556 6.49523 86.3349 6.49523H87.4855Z" fill="var(--fill-0, white)"/>
<path id="Vector_2" d="M63.1192 19.5215H59.5853V12.659C59.5853 11.2208 59.462 9.41268 57.4485 9.41268C55.5171 9.41268 54.7363 10.8098 54.7363 12.4535V19.5215H51.2024V6.4951H54.4487L54.5309 8.13881C55.2295 7.02931 56.5444 6.16636 58.4347 6.16636C61.9686 6.16636 63.0781 8.7141 63.0781 11.344V19.5215H63.1192Z" fill="var(--fill-0, white)"/>
<path id="Vector_3" d="M49.6818 16.4793L49.4352 19.438C48.5723 19.6845 47.8326 19.7256 46.9286 19.7256C43.6001 19.7256 42.6549 18.2052 42.6549 15.1643V2.83657H46.1889V6.4938H49.6818L49.4352 9.53465H46.1889V14.9178C46.1889 16.1506 46.5177 16.808 47.7915 16.808C48.3257 16.808 48.9421 16.7259 49.6818 16.4793Z" fill="var(--fill-0, white)"/>
<path id="Vector_4" d="M41.5041 6.49523L41.2164 9.53608H40.2713C38.2988 9.53608 37.3126 11.1387 37.3126 12.6591V19.5216H33.7786V6.49523H37.1071L37.1893 8.13894C37.8879 7.02944 39.1207 6.49523 40.6411 6.49523H41.5041Z" fill="var(--fill-0, white)"/>
<path id="Vector_5" d="M17.9575 18.0824C15.5741 19.3563 13.1907 20.096 10.0266 20.0138C4.19144 19.8083 0 16.1922 0 10.0694C0 3.98767 4.23254 0.0838718 10.0266 0.00168663C12.9853 -0.039406 15.6152 0.70026 17.6698 2.50833L15.2043 5.01498C13.8893 3.94657 12.0401 3.33019 9.82113 3.41237C6.16389 3.57674 3.94489 6.24776 3.90379 9.86391C3.8627 13.8088 6.28716 16.5209 10.0677 16.6442C11.8347 16.6853 13.1085 16.4387 14.218 15.9456V11.9185H10.2731L10.5197 8.59004H17.9164V18.0824H17.9575Z" fill="var(--fill-0, white)"/>
<path id="Vector_6" d="M74.3791 11.5495C74.2558 9.90582 73.023 8.87851 71.3382 8.9196C69.6124 9.00178 68.5029 10.1113 68.2563 11.5495H74.3791ZM77.872 14.2616H68.2152C68.5029 15.9053 69.8178 16.9327 71.4204 16.9737C73.023 17.0148 73.886 16.5217 75.0366 15.3711L77.3378 17.1381C75.6941 19.1516 73.7627 19.8913 71.5026 19.8913C67.5988 19.8913 64.6402 17.1381 64.6402 13.0699C64.6402 9.00178 67.5577 6.24858 71.3382 6.24858C75.5297 6.24858 77.7898 8.79632 77.7898 13.2754V14.2616H77.872Z" fill="var(--fill-0, white)"/>
<path id="Vector_7" d="M28.2314 13.8507H27.7383C26.0946 13.8507 23.1359 13.9329 23.177 15.6587C23.177 18.1243 28.2314 17.3435 28.2314 14.3849V13.8507ZM31.601 11.0153V19.5215H28.519L28.4369 18.2476C27.4917 19.4393 25.9302 19.8502 24.3687 19.8502C21.9853 19.8502 19.7252 18.6585 19.6841 15.9053C19.602 11.5906 24.5331 11.2618 27.6561 11.2618H28.2725V11.0975C28.2725 9.65923 27.3274 8.87847 25.5604 8.87847C24.2865 8.87847 23.0126 9.37158 22.1086 10.2756L20.0951 8.22099C21.9442 6.74166 23.8345 6.16636 25.8891 6.16636C29.834 6.20746 31.601 8.05662 31.601 11.0153Z" fill="var(--fill-0, white)"/>
<path id="Vector_8" d="M85.8027 17.8754V17.259H86.2136C86.419 17.259 86.6656 17.3001 86.6656 17.5466C86.6656 17.8754 86.419 17.8754 86.1725 17.8754H85.8027ZM85.8027 18.163H86.1725L86.7067 19.026H87.0354L86.4601 18.1219C86.7478 18.0808 86.9943 17.9165 86.9943 17.5466C86.9943 17.1357 86.7478 16.9713 86.2958 16.9713H85.4739V18.9849H85.7616V18.163H85.8027ZM86.1725 19.7656C87.1176 19.7656 87.9395 19.026 87.9395 17.9987C87.9395 17.0124 87.1176 16.2728 86.1725 16.2728C85.2274 16.2728 84.4055 17.0124 84.4055 17.9987C84.4055 19.026 85.1863 19.7656 86.1725 19.7656ZM84.7342 17.9987C84.7342 17.1768 85.3506 16.5604 86.1725 16.5604C86.9532 16.5604 87.6107 17.1768 87.6107 17.9987C87.6107 18.8616 86.9943 19.478 86.1725 19.478C85.3506 19.478 84.7342 18.8616 84.7342 17.9987Z" fill="var(--fill-0, white)"/>
</g>
</svg>
