<svg width="87" height="34" viewBox="0 0 87 34" fill="none" xmlns="http://www.w3.org/2000/svg">
<path d="M62.5547 33.9992H65.6895V18.6719L62.5547 20.4685V33.9992Z" fill="white" fill-opacity="0.7"/>
<path d="M55.2043 22.3359H51.7597C49.4303 22.3359 47.5469 24.2317 47.5469 26.5488V29.7828C47.5469 32.1122 49.4427 33.9956 51.7597 33.9956H59.4296V31.2201H51.5243C51.0535 31.2201 50.6817 30.8484 50.6817 30.3775V29.473H59.4296V26.5612C59.4296 24.2317 57.5338 22.3483 55.2167 22.3483M56.2823 27.3294H50.6817V25.954C50.6817 25.4832 51.0535 25.1115 51.5243 25.1115H55.4398C55.9106 25.1115 56.2823 25.4832 56.2823 25.954V27.3294Z" fill="white" fill-opacity="0.7"/>
<path d="M82.0151 22.3405H79.4007L77.6288 23.3566C76.8853 22.7246 75.9312 22.3405 74.878 22.3405H68.8438V33.9878H71.9786V25.1037H75.1135C75.5719 25.1037 75.956 25.4754 75.956 25.9462V33.9878H79.0909V26.541C79.0909 26.0453 78.9918 25.5497 78.8431 25.1037H82.2381C82.709 25.1037 83.0807 25.4754 83.0807 25.9462V33.9878H86.2156V26.541C86.2156 24.2115 84.3322 22.3281 82.0027 22.3281" fill="white" fill-opacity="0.7"/>
<path d="M78.2632 14.2471V9.74928C78.2632 9.27844 78.6349 8.90672 79.1058 8.90672H83.0956V6.13119H79.3412C77.0117 6.13119 75.1283 8.02697 75.1283 10.344V14.2471H72.8237C72.3652 14.2471 71.9811 13.8754 71.9811 13.4045V1.69531L68.8462 3.50436V12.8098C68.8462 13.3054 68.9454 13.8011 69.094 14.2471H65.699V6.14358H59.6399C57.3105 6.14358 55.4271 8.03936 55.4271 10.3564V14.2595H48.9343L47.3359 17.035H68.5489L70.3207 16.019C71.0642 16.6509 72.0183 17.035 73.0715 17.035H86.2428V14.2595H78.2632V14.2471ZM58.5743 14.2471V9.74928C58.5743 9.27844 58.946 8.90672 59.4169 8.90672H62.5765V14.2347H58.5743V14.2471Z" fill="white" fill-opacity="0.7"/>
<path d="M17.6719 27.2179V20.3906L23.5699 23.8105V30.613L17.6719 27.2179Z" fill="white" fill-opacity="0.7"/>
<path d="M17.6719 13.5904L23.5699 10.1953V16.9854L17.6719 20.3805V13.5904Z" fill="white" fill-opacity="0.7"/>
<path d="M29.4853 6.79012L23.5625 10.1976V3.39506L29.4853 0V6.79012Z" fill="white" fill-opacity="0.7"/>
<path d="M5.88281 13.5904L11.7808 10.1953V16.9854L5.88281 20.3805V13.5904Z" fill="white" fill-opacity="0.7"/>
<path d="M11.7734 16.9854V10.1953L17.659 13.5904V20.3805L11.7734 16.9854Z" fill="white" fill-opacity="0.7"/>
<path d="M35.3594 16.9854V10.1953L41.2698 13.5904V20.3805L35.3594 16.9854Z" fill="white" fill-opacity="0.7"/>
<path d="M0 30.5982L5.8856 27.2031L11.7836 30.5982L5.8856 33.9932L0 30.5982Z" fill="white" fill-opacity="0.7"/>
<path d="M11.7734 30.5982L17.659 27.2031L23.557 30.5982L17.659 33.9932L11.7734 30.5982Z" fill="white" fill-opacity="0.7"/>
<path d="M17.6719 20.3872L23.5699 16.9922L29.4555 20.3872L23.5699 23.8071L17.6719 20.3872Z" fill="white" fill-opacity="0.7"/>
<path d="M29.4453 20.3872L35.3557 16.9922L41.2661 20.3872L35.3557 23.8071L29.4453 20.3872Z" fill="white" fill-opacity="0.7"/>
</svg>
