<svg preserveAspectRatio="none" width="100%" height="100%" overflow="visible" style="display: block;" viewBox="0 0 7.125 16.125" fill="none" xmlns="http://www.w3.org/2000/svg">
<path id="Vector" d="M6.5625 8.0625C6.5625 9.04741 6.4849 10.0227 6.33414 10.9326C6.18337 11.8426 5.9624 12.6694 5.68382 13.3658C5.40524 14.0622 5.07453 14.6147 4.71055 14.9916C4.34657 15.3685 3.95647 15.5625 3.5625 15.5625C3.16853 15.5625 2.77843 15.3685 2.41445 14.9916C2.05047 14.6147 1.71976 14.0622 1.44118 13.3658C1.1626 12.6694 0.941625 11.8426 0.790861 10.9326C0.640097 10.0227 0.5625 9.04741 0.5625 8.0625C0.5625 7.07759 0.640097 6.10232 0.790862 5.19237C0.941626 4.28243 1.1626 3.45564 1.44118 2.7592C1.71976 2.06276 2.05047 1.51031 2.41445 1.1334C2.77843 0.756493 3.16853 0.5625 3.5625 0.5625C3.95647 0.5625 4.34657 0.756493 4.71055 1.1334C5.07453 1.51031 5.40524 2.06276 5.68382 2.7592C5.9624 3.45564 6.18337 4.28243 6.33414 5.19238C6.4849 6.10232 6.5625 7.07759 6.5625 8.0625L6.5625 8.0625Z" stroke="var(--stroke-0, #0C4EFF)" stroke-width="1.125"/>
</svg>
