<svg preserveAspectRatio="none" width="100%" height="100%" overflow="visible" style="display: block;" viewBox="0 0 20 20" fill="none" xmlns="http://www.w3.org/2000/svg">
<g id="66a6043f8b939a6f0fde8e05_Vector-1.svg" clip-path="url(#clip0_21472_1285595)">
<path id="Vector" d="M-0.0013331 3.03927C-0.0013331 2.39575 0.223899 1.86487 0.674342 1.4466C1.12479 1.02832 1.71039 0.819189 2.4311 0.819189C3.13896 0.819189 3.71166 1.02509 4.14925 1.43695C4.59969 1.86166 4.82492 2.41506 4.82492 3.09719C4.82492 3.71494 4.60614 4.22973 4.16855 4.64158C3.7181 5.06629 3.12608 5.27865 2.39249 5.27865H2.37319C1.66533 5.27865 1.09262 5.06629 0.655038 4.64158C0.217451 4.21688 -0.0013331 3.68276 -0.0013331 3.03927ZM0.249632 19.9311V7.0354H4.53535V19.9311H0.249632ZM6.90987 19.9311H11.1956V12.7304C11.1956 12.2799 11.247 11.9324 11.35 11.6879C11.5302 11.2503 11.8037 10.8803 12.1705 10.5779C12.5373 10.2754 12.9974 10.1242 13.5508 10.1242C14.9922 10.1242 15.7129 11.0959 15.7129 13.0392V19.9311H19.9987V12.5373C19.9987 10.6326 19.5482 9.18788 18.6473 8.20336C17.7464 7.2188 16.5559 6.72652 15.0758 6.72652C13.4157 6.72652 12.1222 7.44081 11.1956 8.86938V8.90799H11.1763L11.1956 8.86938V7.0354H6.90987C6.93559 7.44724 6.94848 8.72779 6.94848 10.8771C6.94848 13.0264 6.93559 16.0444 6.90987 19.9311Z" fill="var(--fill-0, white)"/>
</g>
<defs>
<clipPath id="clip0_21472_1285595">
<rect width="20" height="20" fill="white"/>
</clipPath>
</defs>
</svg>
