<svg width="97" height="24" viewBox="0 0 97 24" fill="none" xmlns="http://www.w3.org/2000/svg">
<path d="M87.5113 19.0398L95.7066 12.042V7.03906H80.8896V11.2783H89.7705L87.4334 12.6966L80.5312 18.5722L80.5156 23.279H96.0338V19.0398H87.5113Z" fill="white" fill-opacity="0.7"/>
<path d="M70.4579 6.44527C65.3942 6.44527 61.1719 9.98315 61.1719 15.2043C61.1719 20.4254 65.737 23.9632 70.7383 23.9632C75.7397 23.9632 74.8048 23.558 76.6901 22.7943L75.9578 19.0071C74.5088 19.4902 72.9507 19.8019 71.5329 19.8019C70.1151 19.8019 67.6378 19.7396 66.9367 16.6225H78.8246C78.8869 16.1706 78.9181 15.6874 78.9181 15.1887C78.9181 9.96757 75.5215 6.42969 70.4579 6.42969V6.44527ZM67.108 13.0846C67.591 11.1832 68.931 10.0299 70.38 10.0299C71.8289 10.0299 73.1689 11.1832 73.6519 13.0846H67.108Z" fill="white" fill-opacity="0.7"/>
<path d="M51.931 6.46793C49.8587 6.46793 47.8489 7.54332 46.3687 9.25771L47.0698 7.04459V0H41.4297V23.3001H47.0698V14.1359C47.0698 12.0007 48.8148 10.5981 50.5599 10.5981C52.3049 10.5981 53.4111 12.0007 53.4111 14.1359V23.3001H59.0513V15.2425C59.0513 10.3954 57.1816 6.48352 51.9154 6.48352L51.931 6.46793Z" fill="white" fill-opacity="0.7"/>
<path d="M33.6083 9.26634C32.1282 7.48961 29.9936 6.47656 27.6254 6.47656C23.1694 6.47656 19.5547 10.3106 19.5547 15.1732C19.5547 20.0358 23.1694 23.9945 27.6254 23.9945C32.0814 23.9945 32.0503 22.9191 33.5148 21.1892L34.3094 23.2776H38.6097V7.03764H34.3094L33.6083 9.23518V9.26634ZM32.9539 15.22C32.9384 17.7292 31.2089 19.7709 29.0744 19.7709C26.9399 19.7709 25.1948 17.6201 25.1948 15.1888C25.1948 12.7575 26.862 10.6067 29.0744 10.6067C31.2868 10.6067 32.9384 12.7575 32.9539 15.1576V15.2355V15.22Z" fill="white" fill-opacity="0.7"/>
<path d="M6.29453 1.88583V7.06018L11.9347 6.45235V14.7749C11.9347 16.9725 10.2208 18.6557 8.00839 18.6557C5.79595 18.6557 4.2379 17.5491 3.677 15.9594L0 19.7623C1.71386 22.3338 4.78322 23.9859 8.41348 23.9859C13.6174 23.9859 17.5904 20.0272 17.5904 14.8373C17.5904 9.64735 17.5904 0 17.5904 0L6.31011 1.88583H6.29453Z" fill="white" fill-opacity="0.7"/>
</svg>
