<svg width="360" height="236" viewBox="0 0 360 236" fill="none" xmlns="http://www.w3.org/2000/svg">
<g filter="url(#filter0_n_21468_881805)">
<path d="M44.2653 222.996L0.483643 247.191H366.867V11L333.455 45.5645L281.608 35.1951L252.804 98.5634L164.089 87.0419L141.046 143.497L55.7868 188.431L44.2653 222.996Z" fill="url(#paint0_linear_21468_881805)"/>
<path d="M44.2653 222.996L0.483643 247.191H366.867V11L333.455 45.5645L281.608 35.1951L252.804 98.5634L164.089 87.0419L141.046 143.497L55.7868 188.431L44.2653 222.996Z" stroke="#0C4EFF" stroke-width="2"/>
</g>
<rect x="209.366" y="0.5" width="130.036" height="31" rx="3.5" fill="white"/>
<rect x="209.366" y="0.5" width="130.036" height="31" rx="3.5" stroke="#E8E8E8"/>
<g clip-path="url(#clip0_21468_881805)">
<path d="M230.537 13.6472H225.441C224.112 12.3181 223.367 11.5738 222.038 10.2448V8H224.89C228.01 8 230.537 10.5278 230.537 13.6472Z" fill="#0C4EFF"/>
<path d="M219.195 18.3496H224.291C225.62 19.6787 226.365 20.4229 227.694 21.752V23.9968H224.842C221.722 23.9968 219.195 21.469 219.195 18.3496Z" fill="#0C4EFF"/>
<path d="M227.215 21.6709V16.5742C228.544 15.2452 229.289 14.5009 230.618 13.1719H232.862V16.0238C232.862 19.1431 230.335 21.6709 227.215 21.6709Z" fill="#0C4EFF"/>
<path d="M222.514 10.3281V15.4248C221.185 16.7538 220.44 17.4981 219.111 18.8272H216.866V15.9753C216.866 12.8559 219.394 10.3281 222.514 10.3281Z" fill="#0C4EFF"/>
</g>
<path d="M241.576 19.645C241.029 19.645 240.561 19.5403 240.175 19.3308C239.788 19.1132 239.482 18.8272 239.256 18.4727C239.03 18.1101 238.893 17.7193 238.845 17.3003H239.969C240.05 17.7193 240.231 18.0457 240.513 18.2793C240.795 18.5049 241.153 18.6177 241.589 18.6177C241.991 18.6177 242.346 18.4969 242.652 18.2551C242.958 18.0134 243.204 17.6468 243.389 17.1553C243.575 16.6638 243.679 16.0434 243.704 15.2941C243.712 15.2699 243.716 15.2457 243.716 15.2216C243.716 15.1974 243.716 15.1732 243.716 15.149C243.587 15.3908 243.41 15.6123 243.184 15.8138C242.958 16.0152 242.692 16.1763 242.386 16.2972C242.088 16.41 241.754 16.4664 241.383 16.4664C240.908 16.4664 240.461 16.3576 240.042 16.1401C239.631 15.9145 239.292 15.5962 239.026 15.1853C238.769 14.7744 238.64 14.295 238.64 13.7471C238.64 13.2556 238.756 12.7923 238.99 12.3572C239.232 11.9221 239.57 11.5716 240.005 11.3057C240.448 11.0317 240.968 10.8948 241.564 10.8948C242.185 10.8948 242.705 11.0116 243.123 11.2453C243.551 11.4709 243.889 11.7811 244.139 12.1759C244.397 12.5626 244.582 12.9977 244.695 13.4812C244.816 13.9566 244.876 14.448 244.876 14.9557C244.876 15.8823 244.747 16.7001 244.489 17.4091C244.231 18.1101 243.857 18.658 243.365 19.0528C242.874 19.4476 242.277 19.645 241.576 19.645ZM241.649 15.4391C241.995 15.4391 242.306 15.3626 242.58 15.2095C242.854 15.0483 243.071 14.8348 243.232 14.5689C243.393 14.303 243.474 14.0089 243.474 13.6866C243.474 13.3482 243.393 13.0501 243.232 12.7923C243.071 12.5264 242.85 12.3209 242.568 12.1759C242.294 12.0228 241.983 11.9462 241.637 11.9462C241.299 11.9462 240.992 12.0228 240.718 12.1759C240.444 12.3209 240.227 12.5264 240.066 12.7923C239.913 13.0501 239.836 13.3523 239.836 13.6987C239.836 14.0452 239.913 14.3514 240.066 14.6173C240.227 14.8751 240.444 15.0765 240.718 15.2216C240.992 15.3666 241.303 15.4391 241.649 15.4391ZM249.697 19.645C248.948 19.645 248.303 19.4637 247.763 19.1012C247.223 18.7305 246.808 18.2189 246.518 17.5662C246.228 16.9055 246.083 16.1401 246.083 15.2699C246.083 14.3997 246.228 13.6383 246.518 12.9856C246.808 12.3249 247.223 11.8133 247.763 11.4507C248.303 11.0801 248.948 10.8948 249.697 10.8948C250.446 10.8948 251.087 11.0801 251.619 11.4507C252.158 11.8133 252.569 12.3249 252.851 12.9856C253.141 13.6383 253.286 14.3997 253.286 15.2699C253.286 16.1401 253.141 16.9055 252.851 17.5662C252.569 18.2189 252.158 18.7305 251.619 19.1012C251.087 19.4637 250.446 19.645 249.697 19.645ZM249.697 18.5694C250.148 18.5694 250.551 18.4364 250.905 18.1705C251.268 17.9046 251.55 17.526 251.751 17.0345C251.953 16.543 252.054 15.9548 252.054 15.2699C252.054 14.585 251.953 13.9968 251.751 13.5053C251.55 13.0138 251.268 12.6392 250.905 12.3813C250.551 12.1154 250.148 11.9825 249.697 11.9825C249.238 11.9825 248.827 12.1154 248.464 12.3813C248.102 12.6392 247.82 13.0138 247.618 13.5053C247.417 13.9968 247.316 14.585 247.316 15.2699C247.316 15.9548 247.417 16.543 247.618 17.0345C247.82 17.526 248.102 17.9046 248.464 18.1705C248.827 18.4364 249.238 18.5694 249.697 18.5694ZM255.769 19.5L260.628 11.0398H261.824L256.966 19.5H255.769ZM261.317 19.645C260.946 19.645 260.612 19.5604 260.314 19.3912C260.015 19.222 259.778 18.9843 259.601 18.6782C259.423 18.3639 259.335 17.9973 259.335 17.5783C259.335 17.1432 259.423 16.7726 259.601 16.4664C259.778 16.1602 260.015 15.9225 260.314 15.7533C260.612 15.5841 260.946 15.4995 261.317 15.4995C261.703 15.4995 262.042 15.5841 262.332 15.7533C262.63 15.9225 262.864 16.1602 263.033 16.4664C263.21 16.7726 263.299 17.1432 263.299 17.5783C263.299 17.9973 263.21 18.3639 263.033 18.6782C262.864 18.9843 262.63 19.222 262.332 19.3912C262.034 19.5604 261.695 19.645 261.317 19.645ZM261.305 18.7507C261.49 18.7507 261.655 18.7064 261.8 18.6177C261.953 18.5291 262.074 18.4002 262.163 18.231C262.259 18.0537 262.308 17.8321 262.308 17.5662C262.308 17.3003 262.263 17.0828 262.175 16.9136C262.086 16.7363 261.965 16.6034 261.812 16.5148C261.667 16.4261 261.502 16.3818 261.317 16.3818C261.148 16.3818 260.986 16.4261 260.833 16.5148C260.68 16.6034 260.555 16.7363 260.459 16.9136C260.37 17.0828 260.326 17.3003 260.326 17.5662C260.326 17.8321 260.37 18.0537 260.459 18.231C260.555 18.4002 260.676 18.5291 260.821 18.6177C260.974 18.7064 261.135 18.7507 261.305 18.7507ZM256.349 15.0523C255.979 15.0523 255.644 14.9677 255.346 14.7985C255.048 14.6293 254.806 14.3916 254.621 14.0855C254.444 13.7712 254.355 13.4006 254.355 12.9736C254.355 12.5465 254.444 12.1799 254.621 11.8737C254.806 11.5676 255.048 11.3299 255.346 11.1607C255.652 10.9915 255.991 10.9068 256.361 10.9068C256.732 10.9068 257.066 10.9915 257.365 11.1607C257.663 11.3299 257.896 11.5676 258.066 11.8737C258.243 12.1799 258.331 12.5465 258.331 12.9736C258.331 13.4006 258.243 13.7712 258.066 14.0855C257.896 14.3916 257.659 14.6293 257.353 14.7985C257.054 14.9677 256.72 15.0523 256.349 15.0523ZM256.349 14.158C256.527 14.158 256.688 14.1137 256.833 14.025C256.986 13.9364 257.107 13.8075 257.195 13.6383C257.284 13.461 257.328 13.2394 257.328 12.9736C257.328 12.7077 257.284 12.4861 257.195 12.3088C257.107 12.1316 256.986 11.9986 256.833 11.91C256.688 11.8214 256.531 11.777 256.361 11.777C256.184 11.777 256.015 11.8214 255.854 11.91C255.701 11.9986 255.576 12.1316 255.479 12.3088C255.391 12.4861 255.346 12.7077 255.346 12.9736C255.346 13.2314 255.391 13.4489 255.479 13.6262C255.576 13.8035 255.701 13.9364 255.854 14.025C256.007 14.1137 256.172 14.158 256.349 14.158ZM267.772 19.5V11.0398H270.902C271.491 11.0398 271.982 11.1365 272.377 11.3299C272.772 11.5152 273.066 11.773 273.259 12.1034C273.461 12.4257 273.561 12.7923 273.561 13.2032C273.561 13.6302 273.469 13.9888 273.283 14.2788C273.098 14.5689 272.852 14.7945 272.546 14.9557C272.248 15.1088 271.926 15.1974 271.579 15.2216L271.748 15.1007C272.119 15.1088 272.457 15.2095 272.764 15.4028C273.07 15.5882 273.312 15.8379 273.489 16.1522C273.666 16.4664 273.755 16.8129 273.755 17.1916C273.755 17.6267 273.65 18.0215 273.44 18.376C273.231 18.7225 272.921 18.9964 272.51 19.1978C272.099 19.3993 271.595 19.5 270.999 19.5H267.772ZM268.981 18.4969H270.842C271.374 18.4969 271.785 18.376 272.075 18.1343C272.373 17.8845 272.522 17.534 272.522 17.0828C272.522 16.6396 272.369 16.2851 272.063 16.0192C271.765 15.7533 271.35 15.6204 270.818 15.6204H268.981V18.4969ZM268.981 14.6898H270.769C271.277 14.6898 271.664 14.5729 271.93 14.3393C272.196 14.0976 272.329 13.7672 272.329 13.3482C272.329 12.9454 272.196 12.6271 271.93 12.3934C271.664 12.1517 271.265 12.0308 270.733 12.0308H268.981V14.6898ZM277.891 19.645C277.311 19.645 276.795 19.5121 276.344 19.2462C275.893 18.9803 275.539 18.6097 275.281 18.1343C275.031 17.6589 274.906 17.107 274.906 16.4785C274.906 15.8339 275.031 15.2739 275.281 14.7985C275.539 14.3151 275.893 13.9404 276.344 13.6745C276.795 13.4006 277.319 13.2636 277.915 13.2636C278.512 13.2636 279.023 13.3966 279.45 13.6625C279.877 13.9284 280.208 14.2829 280.441 14.726C280.675 15.1611 280.792 15.6446 280.792 16.1763C280.792 16.2569 280.788 16.3456 280.78 16.4422C280.78 16.5309 280.776 16.6316 280.768 16.7444H275.788V15.8863H279.583C279.559 15.3787 279.39 14.9839 279.076 14.7019C278.761 14.4118 278.371 14.2668 277.903 14.2668C277.573 14.2668 277.271 14.3433 276.997 14.4964C276.723 14.6414 276.501 14.859 276.332 15.149C276.171 15.431 276.09 15.7896 276.09 16.2247V16.5631C276.09 17.0143 276.171 17.397 276.332 17.7113C276.501 18.0174 276.723 18.2511 276.997 18.4123C277.271 18.5653 277.569 18.6419 277.891 18.6419C278.278 18.6419 278.596 18.5573 278.846 18.3881C279.096 18.2189 279.281 17.9892 279.402 17.6992H280.611C280.506 18.0698 280.329 18.4042 280.079 18.7023C279.829 18.9924 279.519 19.222 279.148 19.3912C278.786 19.5604 278.367 19.645 277.891 19.645ZM282.135 19.5V13.4087H283.222L283.295 14.448C283.488 14.0855 283.762 13.7994 284.117 13.5899C284.471 13.3724 284.878 13.2636 285.337 13.2636C285.821 13.2636 286.236 13.3603 286.582 13.5537C286.929 13.7471 287.199 14.0412 287.392 14.436C287.585 14.8227 287.682 15.3102 287.682 15.8984V19.5H286.474V16.0192C286.474 15.4552 286.349 15.0282 286.099 14.7381C285.849 14.448 285.487 14.303 285.011 14.303C284.697 14.303 284.415 14.3796 284.165 14.5327C283.915 14.6777 283.714 14.8952 283.561 15.1853C283.416 15.4754 283.343 15.8299 283.343 16.2489V19.5H282.135ZM292.044 19.645C291.456 19.645 290.932 19.5121 290.473 19.2462C290.014 18.9722 289.651 18.5976 289.385 18.1222C289.127 17.6468 288.998 17.0949 288.998 16.4664C288.998 15.8299 289.127 15.2739 289.385 14.7985C289.651 14.3151 290.014 13.9404 290.473 13.6745C290.932 13.4006 291.456 13.2636 292.044 13.2636C292.785 13.2636 293.406 13.457 293.905 13.8437C294.405 14.2305 294.723 14.7542 294.86 15.4149H293.603C293.523 15.0604 293.337 14.7865 293.047 14.5931C292.765 14.3997 292.427 14.303 292.032 14.303C291.71 14.303 291.412 14.3876 291.138 14.5568C290.864 14.718 290.642 14.9597 290.473 15.282C290.312 15.5962 290.231 15.987 290.231 16.4543C290.231 16.8008 290.28 17.111 290.376 17.3849C290.473 17.6508 290.602 17.8764 290.763 18.0618C290.932 18.2471 291.126 18.3881 291.343 18.4848C291.561 18.5734 291.79 18.6177 292.032 18.6177C292.298 18.6177 292.536 18.5774 292.745 18.4969C292.963 18.4082 293.144 18.2793 293.289 18.1101C293.442 17.9409 293.547 17.7395 293.603 17.5058H294.86C294.723 18.1504 294.405 18.6701 293.905 19.0649C293.406 19.4517 292.785 19.645 292.044 19.645ZM296.274 19.5V10.7981H297.483V14.3997C297.684 14.0452 297.962 13.7672 298.317 13.5658C298.679 13.3643 299.078 13.2636 299.513 13.2636C299.997 13.2636 300.412 13.3643 300.758 13.5658C301.105 13.7591 301.371 14.0532 301.556 14.448C301.741 14.8348 301.834 15.3223 301.834 15.9105V19.5H300.637V16.0434C300.637 15.4713 300.517 15.0403 300.275 14.7502C300.033 14.4521 299.675 14.303 299.199 14.303C298.877 14.303 298.587 14.3796 298.329 14.5327C298.071 14.6857 297.866 14.9113 297.713 15.2095C297.56 15.4995 297.483 15.8541 297.483 16.273V19.5H296.274ZM303.38 19.5V13.4087H304.467L304.552 14.2668C304.745 13.9525 305.003 13.7068 305.325 13.5295C305.648 13.3523 306.01 13.2636 306.413 13.2636C306.719 13.2636 306.997 13.3079 307.247 13.3966C307.497 13.4771 307.718 13.602 307.912 13.7712C308.105 13.9404 308.262 14.1499 308.383 14.3997C308.601 14.0452 308.891 13.7672 309.253 13.5658C309.624 13.3643 310.015 13.2636 310.426 13.2636C310.917 13.2636 311.34 13.3643 311.695 13.5658C312.049 13.7591 312.319 14.0532 312.505 14.448C312.69 14.8348 312.783 15.3182 312.783 15.8984V19.5H311.586V16.0192C311.586 15.4552 311.469 15.0282 311.236 14.7381C311.01 14.448 310.676 14.303 310.232 14.303C309.934 14.303 309.668 14.3796 309.435 14.5327C309.201 14.6857 309.016 14.9073 308.879 15.1974C308.75 15.4874 308.685 15.842 308.685 16.261V19.5H307.477V16.0192C307.477 15.4552 307.36 15.0282 307.126 14.7381C306.901 14.448 306.566 14.303 306.123 14.303C305.841 14.303 305.583 14.3796 305.35 14.5327C305.116 14.6857 304.931 14.9073 304.794 15.1974C304.657 15.4874 304.588 15.842 304.588 16.261V19.5H303.38ZM316.363 19.645C315.863 19.645 315.448 19.5604 315.118 19.3912C314.788 19.222 314.542 18.9964 314.381 18.7144C314.219 18.4243 314.139 18.1141 314.139 17.7838C314.139 17.3809 314.244 17.0385 314.453 16.7565C314.663 16.4664 314.961 16.2448 315.347 16.0917C315.734 15.9387 316.198 15.8621 316.737 15.8621H318.321C318.321 15.5076 318.268 15.2135 318.164 14.9798C318.059 14.7462 317.902 14.5729 317.692 14.4601C317.491 14.3393 317.233 14.2788 316.919 14.2788C316.556 14.2788 316.246 14.3675 315.988 14.5447C315.73 14.7139 315.569 14.9677 315.505 15.3062H314.296C314.344 14.8791 314.489 14.5165 314.731 14.2184C314.981 13.9122 315.299 13.6786 315.686 13.5174C316.073 13.3482 316.484 13.2636 316.919 13.2636C317.491 13.2636 317.97 13.3643 318.357 13.5658C318.744 13.7672 319.034 14.0532 319.227 14.4239C319.429 14.7865 319.529 15.2216 319.529 15.7292V19.5H318.478L318.381 18.4727C318.292 18.6338 318.188 18.7869 318.067 18.932C317.946 19.077 317.801 19.2019 317.632 19.3066C317.471 19.4114 317.281 19.4919 317.064 19.5483C316.854 19.6128 316.621 19.645 316.363 19.645ZM316.592 18.6661C316.85 18.6661 317.084 18.6137 317.293 18.5089C317.503 18.4042 317.68 18.2632 317.825 18.0859C317.978 17.9006 318.091 17.6952 318.164 17.4696C318.244 17.2359 318.288 16.9982 318.296 16.7565V16.7202H316.858C316.512 16.7202 316.23 16.7645 316.012 16.8532C315.803 16.9337 315.65 17.0465 315.553 17.1916C315.456 17.3366 315.408 17.5058 315.408 17.6992C315.408 17.9006 315.452 18.0739 315.541 18.2189C315.638 18.3559 315.775 18.4646 315.952 18.5452C316.129 18.6258 316.343 18.6661 316.592 18.6661ZM321.072 19.5V13.4087H322.16L322.268 14.5568C322.405 14.2829 322.583 14.0532 322.8 13.8679C323.018 13.6745 323.272 13.5255 323.562 13.4207C323.86 13.316 324.198 13.2636 324.577 13.2636V14.5447H324.142C323.892 14.5447 323.654 14.577 323.429 14.6414C323.203 14.6978 323.002 14.7985 322.824 14.9436C322.655 15.0886 322.522 15.286 322.426 15.5358C322.329 15.7856 322.281 16.0958 322.281 16.4664V19.5H321.072ZM329.518 19.5L326.714 16.1643L329.252 13.4087H330.715L327.693 16.6356V15.7292L331.041 19.5H329.518ZM325.687 19.5V10.7981H326.895V19.5H325.687Z" fill="black"/>
<rect x="41.3665" y="129.5" width="118" height="30" rx="3.5" fill="white"/>
<rect x="41.3665" y="129.5" width="118" height="30" rx="3.5" stroke="#E8E8E8"/>
<path d="M53.5558 148.145C52.742 148.145 52.0249 147.964 51.4045 147.601C50.7922 147.231 50.3087 146.719 49.9542 146.066C49.6077 145.406 49.4345 144.64 49.4345 143.77C49.4345 142.908 49.6077 142.15 49.9542 141.498C50.3087 140.837 50.7922 140.321 51.4045 139.951C52.0249 139.58 52.742 139.395 53.5558 139.395C54.3857 139.395 55.1109 139.58 55.7313 139.951C56.3517 140.321 56.8311 140.837 57.1695 141.498C57.516 142.15 57.6892 142.908 57.6892 143.77C57.6892 144.64 57.516 145.406 57.1695 146.066C56.8311 146.719 56.3517 147.231 55.7313 147.601C55.1109 147.964 54.3857 148.145 53.5558 148.145ZM53.5679 147.069C54.148 147.069 54.6557 146.936 55.0907 146.671C55.5258 146.405 55.8602 146.026 56.0939 145.534C56.3356 145.043 56.4565 144.455 56.4565 143.77C56.4565 143.085 56.3356 142.497 56.0939 142.005C55.8602 141.514 55.5258 141.139 55.0907 140.881C54.6557 140.615 54.148 140.483 53.5679 140.483C52.9878 140.483 52.4802 140.615 52.0451 140.881C51.61 141.139 51.2716 141.514 51.0299 142.005C50.7881 142.497 50.6673 143.085 50.6673 143.77C50.6673 144.455 50.7881 145.043 51.0299 145.534C51.2716 146.026 51.61 146.405 52.0451 146.671C52.4802 146.936 52.9878 147.069 53.5679 147.069ZM61.5851 148C61.2064 148 60.876 147.94 60.594 147.819C60.312 147.698 60.0945 147.496 59.9414 147.214C59.7883 146.932 59.7118 146.55 59.7118 146.066V142.936H58.6603V141.909H59.7118L59.8568 140.386H60.9204V141.909H62.6487V142.936H60.9204V146.078C60.9204 146.425 60.9929 146.662 61.1379 146.791C61.2829 146.912 61.5327 146.973 61.8872 146.973H62.5882V148H61.5851ZM63.9814 148V139.298H65.19V142.9C65.3915 142.545 65.6694 142.267 66.024 142.066C66.3865 141.864 66.7854 141.764 67.2205 141.764C67.7039 141.764 68.1189 141.864 68.4653 142.066C68.8118 142.259 69.0777 142.553 69.263 142.948C69.4483 143.335 69.541 143.822 69.541 144.41V148H68.3445V144.543C68.3445 143.971 68.2236 143.54 67.9819 143.25C67.7402 142.952 67.3816 142.803 66.9062 142.803C66.5839 142.803 66.2939 142.88 66.036 143.033C65.7782 143.186 65.5727 143.411 65.4197 143.709C65.2666 144 65.19 144.354 65.19 144.773V148H63.9814ZM73.8423 148.145C73.2622 148.145 72.7465 148.012 72.2953 147.746C71.8441 147.48 71.4895 147.11 71.2317 146.634C70.9819 146.159 70.857 145.607 70.857 144.978C70.857 144.334 70.9819 143.774 71.2317 143.299C71.4895 142.815 71.8441 142.44 72.2953 142.175C72.7465 141.901 73.2702 141.764 73.8665 141.764C74.4627 141.764 74.9743 141.897 75.4014 142.162C75.8284 142.428 76.1588 142.783 76.3924 143.226C76.6261 143.661 76.7429 144.145 76.7429 144.676C76.7429 144.757 76.7389 144.846 76.7308 144.942C76.7308 145.031 76.7268 145.132 76.7188 145.244H71.7393V144.386H75.5343C75.5102 143.879 75.3409 143.484 75.0267 143.202C74.7125 142.912 74.3217 142.767 73.8544 142.767C73.524 142.767 73.2219 142.843 72.9479 142.996C72.674 143.141 72.4524 143.359 72.2832 143.649C72.122 143.931 72.0415 144.29 72.0415 144.725V145.063C72.0415 145.514 72.122 145.897 72.2832 146.211C72.4524 146.517 72.674 146.751 72.9479 146.912C73.2219 147.065 73.52 147.142 73.8423 147.142C74.229 147.142 74.5473 147.057 74.7971 146.888C75.0469 146.719 75.2322 146.489 75.353 146.199H76.5616C76.4569 146.57 76.2796 146.904 76.0299 147.202C75.7801 147.492 75.4699 147.722 75.0992 147.891C74.7366 148.06 74.3177 148.145 73.8423 148.145ZM78.0857 148V141.909H79.1734L79.2822 143.057C79.4192 142.783 79.5965 142.553 79.814 142.368C80.0315 142.175 80.2854 142.025 80.5754 141.921C80.8735 141.816 81.2119 141.764 81.5906 141.764V143.045H81.1555C80.9058 143.045 80.6681 143.077 80.4425 143.141C80.2169 143.198 80.0154 143.299 79.8382 143.444C79.669 143.589 79.536 143.786 79.4393 144.036C79.3426 144.286 79.2943 144.596 79.2943 144.966V148H78.0857ZM87.8113 148.145C87.3117 148.145 86.8967 148.06 86.5664 147.891C86.236 147.722 85.9903 147.496 85.8291 147.214C85.668 146.924 85.5874 146.614 85.5874 146.284C85.5874 145.881 85.6922 145.538 85.9017 145.256C86.1112 144.966 86.4093 144.745 86.796 144.592C87.1828 144.439 87.6461 144.362 88.1859 144.362H89.7692C89.7692 144.008 89.7168 143.713 89.6121 143.48C89.5073 143.246 89.3502 143.073 89.1407 142.96C88.9393 142.839 88.6814 142.779 88.3672 142.779C88.0046 142.779 87.6944 142.867 87.4366 143.045C87.1788 143.214 87.0176 143.468 86.9531 143.806H85.7445C85.7929 143.379 85.9379 143.017 86.1796 142.718C86.4294 142.412 86.7477 142.179 87.1344 142.017C87.5212 141.848 87.9321 141.764 88.3672 141.764C88.9393 141.764 89.4187 141.864 89.8054 142.066C90.1922 142.267 90.4823 142.553 90.6756 142.924C90.8771 143.286 90.9778 143.722 90.9778 144.229V148H89.9263L89.8296 146.973C89.741 147.134 89.6362 147.287 89.5154 147.432C89.3945 147.577 89.2495 147.702 89.0803 147.807C88.9191 147.911 88.7298 147.992 88.5122 148.048C88.3028 148.113 88.0691 148.145 87.8113 148.145ZM88.0409 147.166C88.2987 147.166 88.5324 147.114 88.7419 147.009C88.9514 146.904 89.1286 146.763 89.2737 146.586C89.4268 146.401 89.5396 146.195 89.6121 145.97C89.6926 145.736 89.737 145.498 89.745 145.256V145.22H88.3068C87.9603 145.22 87.6783 145.265 87.4608 145.353C87.2513 145.434 87.0982 145.547 87.0015 145.692C86.9048 145.837 86.8565 146.006 86.8565 146.199C86.8565 146.401 86.9008 146.574 86.9894 146.719C87.0861 146.856 87.2231 146.965 87.4003 147.045C87.5776 147.126 87.7911 147.166 88.0409 147.166ZM94.9981 150.804C94.4421 150.804 93.9506 150.731 93.5236 150.586C93.0966 150.449 92.7662 150.236 92.5325 149.946C92.2989 149.656 92.182 149.301 92.182 148.882C92.182 148.665 92.2304 148.443 92.3271 148.218C92.4238 148 92.5809 147.791 92.7984 147.589C93.016 147.388 93.3101 147.206 93.6807 147.045L94.3575 147.589C93.9466 147.742 93.6686 147.923 93.5236 148.133C93.3866 148.35 93.3181 148.56 93.3181 148.761C93.3181 149.003 93.3906 149.205 93.5357 149.366C93.6807 149.527 93.8781 149.648 94.1279 149.728C94.3857 149.809 94.6758 149.849 94.9981 149.849C95.3123 149.849 95.5863 149.805 95.8199 149.716C96.0536 149.628 96.2349 149.503 96.3638 149.342C96.4927 149.18 96.5572 148.991 96.5572 148.774C96.5572 148.516 96.4605 148.298 96.2671 148.121C96.0737 147.952 95.7031 147.851 95.1552 147.819C94.6959 147.786 94.3052 147.742 93.9829 147.686C93.6686 147.629 93.3987 147.561 93.1731 147.48C92.9555 147.4 92.7702 147.311 92.6171 147.214C92.4721 147.118 92.3472 147.017 92.2425 146.912V146.634L93.4511 145.389L94.43 145.728L93.1127 146.949L93.3665 146.405C93.4551 146.461 93.5397 146.517 93.6203 146.574C93.7009 146.622 93.8096 146.667 93.9466 146.707C94.0836 146.747 94.2689 146.783 94.5026 146.816C94.7362 146.848 95.0424 146.88 95.4211 146.912C95.969 146.953 96.4081 147.049 96.7385 147.202C97.0769 147.355 97.3226 147.561 97.4757 147.819C97.6288 148.077 97.7054 148.383 97.7054 148.737C97.7054 149.084 97.6087 149.414 97.4153 149.728C97.23 150.043 96.9359 150.3 96.533 150.502C96.1382 150.703 95.6266 150.804 94.9981 150.804ZM94.9981 146.127C94.4824 146.127 94.0433 146.03 93.6807 145.837C93.3262 145.643 93.0522 145.381 92.8589 145.051C92.6735 144.721 92.5809 144.354 92.5809 143.951C92.5809 143.54 92.6735 143.174 92.8589 142.851C93.0522 142.521 93.3302 142.259 93.6928 142.066C94.0554 141.864 94.4905 141.764 94.9981 141.764C95.5057 141.764 95.9368 141.864 96.2913 142.066C96.6539 142.259 96.9278 142.521 97.1131 142.851C97.3065 143.174 97.4032 143.54 97.4032 143.951C97.4032 144.354 97.3065 144.721 97.1131 145.051C96.9278 145.381 96.6539 145.643 96.2913 145.837C95.9368 146.03 95.5057 146.127 94.9981 146.127ZM94.9981 145.16C95.3929 145.16 95.7071 145.059 95.9408 144.858C96.1745 144.648 96.2913 144.346 96.2913 143.951C96.2913 143.556 96.1745 143.258 95.9408 143.057C95.7071 142.847 95.3929 142.743 94.9981 142.743C94.6033 142.743 94.285 142.847 94.0433 143.057C93.8016 143.258 93.6807 143.556 93.6807 143.951C93.6807 144.346 93.8016 144.648 94.0433 144.858C94.285 145.059 94.6033 145.16 94.9981 145.16ZM95.9891 142.863L95.6991 141.909H98.2009V142.743L95.9891 142.863ZM101.933 148.145C101.353 148.145 100.837 148.012 100.386 147.746C99.9346 147.48 99.5801 147.11 99.3222 146.634C99.0725 146.159 98.9476 145.607 98.9476 144.978C98.9476 144.334 99.0725 143.774 99.3222 143.299C99.5801 142.815 99.9346 142.44 100.386 142.175C100.837 141.901 101.361 141.764 101.957 141.764C102.553 141.764 103.065 141.897 103.492 142.162C103.919 142.428 104.249 142.783 104.483 143.226C104.717 143.661 104.833 144.145 104.833 144.676C104.833 144.757 104.829 144.846 104.821 144.942C104.821 145.031 104.817 145.132 104.809 145.244H99.8298V144.386H103.625C103.601 143.879 103.431 143.484 103.117 143.202C102.803 142.912 102.412 142.767 101.945 142.767C101.615 142.767 101.312 142.843 101.038 142.996C100.764 143.141 100.543 143.359 100.374 143.649C100.213 143.931 100.132 144.29 100.132 144.725V145.063C100.132 145.514 100.213 145.897 100.374 146.211C100.543 146.517 100.764 146.751 101.038 146.912C101.312 147.065 101.611 147.142 101.933 147.142C102.32 147.142 102.638 147.057 102.888 146.888C103.137 146.719 103.323 146.489 103.444 146.199H104.652C104.547 146.57 104.37 146.904 104.12 147.202C103.871 147.492 103.56 147.722 103.19 147.891C102.827 148.06 102.408 148.145 101.933 148.145ZM106.176 148V141.909H107.264L107.336 142.948C107.53 142.585 107.804 142.299 108.158 142.09C108.513 141.872 108.92 141.764 109.379 141.764C109.862 141.764 110.277 141.86 110.624 142.054C110.97 142.247 111.24 142.541 111.434 142.936C111.627 143.323 111.724 143.81 111.724 144.398V148H110.515V144.519C110.515 143.955 110.39 143.528 110.14 143.238C109.891 142.948 109.528 142.803 109.053 142.803C108.738 142.803 108.456 142.88 108.207 143.033C107.957 143.178 107.755 143.395 107.602 143.685C107.457 143.975 107.385 144.33 107.385 144.749V148H106.176ZM115.771 148C115.393 148 115.062 147.94 114.78 147.819C114.498 147.698 114.281 147.496 114.128 147.214C113.975 146.932 113.898 146.55 113.898 146.066V142.936H112.847V141.909H113.898L114.043 140.386H115.107V141.909H116.835V142.936H115.107V146.078C115.107 146.425 115.179 146.662 115.324 146.791C115.469 146.912 115.719 146.973 116.074 146.973H116.775V148H115.771ZM120.525 148.145C120.009 148.145 119.558 148.06 119.171 147.891C118.784 147.722 118.478 147.484 118.252 147.178C118.027 146.872 117.89 146.513 117.841 146.102H119.074C119.115 146.296 119.191 146.473 119.304 146.634C119.425 146.795 119.586 146.924 119.787 147.021C119.997 147.118 120.243 147.166 120.525 147.166C120.79 147.166 121.008 147.13 121.177 147.057C121.354 146.977 121.483 146.872 121.564 146.743C121.645 146.606 121.685 146.461 121.685 146.308C121.685 146.082 121.628 145.913 121.516 145.8C121.411 145.679 121.25 145.587 121.032 145.522C120.823 145.45 120.569 145.385 120.271 145.329C119.989 145.281 119.715 145.216 119.449 145.136C119.191 145.047 118.957 144.938 118.748 144.809C118.547 144.68 118.385 144.519 118.264 144.326C118.144 144.124 118.083 143.879 118.083 143.589C118.083 143.242 118.176 142.932 118.361 142.658C118.547 142.376 118.808 142.158 119.147 142.005C119.493 141.844 119.9 141.764 120.367 141.764C121.044 141.764 121.588 141.925 121.999 142.247C122.41 142.569 122.652 143.025 122.724 143.613H121.552C121.52 143.339 121.399 143.129 121.189 142.984C120.98 142.831 120.702 142.755 120.355 142.755C120.009 142.755 119.743 142.823 119.558 142.96C119.372 143.097 119.28 143.278 119.28 143.504C119.28 143.649 119.332 143.778 119.437 143.891C119.542 144.004 119.695 144.1 119.896 144.181C120.106 144.253 120.359 144.322 120.658 144.386C121.085 144.467 121.467 144.568 121.806 144.688C122.144 144.809 122.414 144.987 122.615 145.22C122.817 145.454 122.918 145.788 122.918 146.223C122.926 146.602 122.829 146.936 122.628 147.226C122.434 147.517 122.156 147.742 121.794 147.903C121.439 148.064 121.016 148.145 120.525 148.145ZM128.182 148L131.409 140.579H126.937V139.54H132.654V140.422L129.439 148H128.182ZM137.131 148.145C136.382 148.145 135.737 147.964 135.197 147.601C134.657 147.231 134.242 146.719 133.952 146.066C133.662 145.406 133.517 144.64 133.517 143.77C133.517 142.9 133.662 142.138 133.952 141.486C134.242 140.825 134.657 140.313 135.197 139.951C135.737 139.58 136.382 139.395 137.131 139.395C137.88 139.395 138.521 139.58 139.053 139.951C139.592 140.313 140.003 140.825 140.285 141.486C140.575 142.138 140.72 142.9 140.72 143.77C140.72 144.64 140.575 145.406 140.285 146.066C140.003 146.719 139.592 147.231 139.053 147.601C138.521 147.964 137.88 148.145 137.131 148.145ZM137.131 147.069C137.582 147.069 137.985 146.936 138.34 146.671C138.702 146.405 138.984 146.026 139.186 145.534C139.387 145.043 139.488 144.455 139.488 143.77C139.488 143.085 139.387 142.497 139.186 142.005C138.984 141.514 138.702 141.139 138.34 140.881C137.985 140.615 137.582 140.483 137.131 140.483C136.672 140.483 136.261 140.615 135.898 140.881C135.536 141.139 135.254 141.514 135.052 142.005C134.851 142.497 134.75 143.085 134.75 143.77C134.75 144.455 134.851 145.043 135.052 145.534C135.254 146.026 135.536 146.405 135.898 146.671C136.261 146.936 136.672 147.069 137.131 147.069ZM143.203 148L148.062 139.54H149.258L144.4 148H143.203ZM148.751 148.145C148.38 148.145 148.046 148.06 147.748 147.891C147.45 147.722 147.212 147.484 147.035 147.178C146.857 146.864 146.769 146.497 146.769 146.078C146.769 145.643 146.857 145.273 147.035 144.966C147.212 144.66 147.45 144.423 147.748 144.253C148.046 144.084 148.38 144 148.751 144C149.138 144 149.476 144.084 149.766 144.253C150.064 144.423 150.298 144.66 150.467 144.966C150.644 145.273 150.733 145.643 150.733 146.078C150.733 146.497 150.644 146.864 150.467 147.178C150.298 147.484 150.064 147.722 149.766 147.891C149.468 148.06 149.129 148.145 148.751 148.145ZM148.739 147.251C148.924 147.251 149.089 147.206 149.234 147.118C149.387 147.029 149.508 146.9 149.597 146.731C149.693 146.554 149.742 146.332 149.742 146.066C149.742 145.8 149.698 145.583 149.609 145.414C149.52 145.236 149.399 145.103 149.246 145.015C149.101 144.926 148.936 144.882 148.751 144.882C148.582 144.882 148.42 144.926 148.267 145.015C148.114 145.103 147.989 145.236 147.893 145.414C147.804 145.583 147.76 145.8 147.76 146.066C147.76 146.332 147.804 146.554 147.893 146.731C147.989 146.9 148.11 147.029 148.255 147.118C148.408 147.206 148.57 147.251 148.739 147.251ZM143.783 143.552C143.413 143.552 143.078 143.468 142.78 143.299C142.482 143.129 142.24 142.892 142.055 142.585C141.878 142.271 141.789 141.901 141.789 141.474C141.789 141.047 141.878 140.68 142.055 140.374C142.24 140.068 142.482 139.83 142.78 139.661C143.086 139.491 143.425 139.407 143.796 139.407C144.166 139.407 144.501 139.491 144.799 139.661C145.097 139.83 145.33 140.068 145.5 140.374C145.677 140.68 145.766 141.047 145.766 141.474C145.766 141.901 145.677 142.271 145.5 142.585C145.33 142.892 145.093 143.129 144.787 143.299C144.488 143.468 144.154 143.552 143.783 143.552ZM143.783 142.658C143.961 142.658 144.122 142.614 144.267 142.525C144.42 142.436 144.541 142.307 144.629 142.138C144.718 141.961 144.762 141.739 144.762 141.474C144.762 141.208 144.718 140.986 144.629 140.809C144.541 140.632 144.42 140.499 144.267 140.41C144.122 140.321 143.965 140.277 143.796 140.277C143.618 140.277 143.449 140.321 143.288 140.41C143.135 140.499 143.01 140.632 142.913 140.809C142.825 140.986 142.78 141.208 142.78 141.474C142.78 141.731 142.825 141.949 142.913 142.126C143.01 142.303 143.135 142.436 143.288 142.525C143.441 142.614 143.606 142.658 143.783 142.658Z" fill="#1E1E1E"/>
<defs>
<filter id="filter0_n_21468_881805" x="0" y="8.52734" width="367.867" height="239.664" filterUnits="userSpaceOnUse" color-interpolation-filters="sRGB">
<feFlood flood-opacity="0" result="BackgroundImageFix"/>
<feBlend mode="normal" in="SourceGraphic" in2="BackgroundImageFix" result="shape"/>
<feTurbulence type="fractalNoise" baseFrequency="1 1" stitchTiles="stitch" numOctaves="3" result="noise" seed="5628" />
<feColorMatrix in="noise" type="luminanceToAlpha" result="alphaNoise" />
<feComponentTransfer in="alphaNoise" result="coloredNoise1">
<feFuncA type="discrete" tableValues="1 1 1 1 1 1 1 1 1 1 1 1 1 1 1 1 1 1 1 1 1 1 1 1 1 1 1 1 1 1 1 1 1 1 1 1 1 1 1 1 1 1 1 1 1 1 1 1 1 1 1 0 0 0 0 0 0 0 0 0 0 0 0 0 0 0 0 0 0 0 0 0 0 0 0 0 0 0 0 0 0 0 0 0 0 0 0 0 0 0 0 0 0 0 0 0 0 0 0 0 "/>
</feComponentTransfer>
<feComposite operator="in" in2="shape" in="coloredNoise1" result="noise1Clipped" />
<feFlood flood-color="#0C4EFF" result="color1Flood" />
<feComposite operator="in" in2="noise1Clipped" in="color1Flood" result="color1" />
<feMerge result="effect1_noise_21468_881805">
<feMergeNode in="shape" />
<feMergeNode in="color1" />
</feMerge>
</filter>
<linearGradient id="paint0_linear_21468_881805" x1="183.675" y1="11" x2="183.675" y2="247.191" gradientUnits="userSpaceOnUse">
<stop stop-color="#0C4EFF" stop-opacity="0.5"/>
<stop offset="1" stop-color="#2F7BFF" stop-opacity="0"/>
</linearGradient>
<clipPath id="clip0_21468_881805">
<rect width="16" height="16" fill="white" transform="translate(216.866 8)"/>
</clipPath>
</defs>
</svg>
